<mxGraphModel dx="0" dy="0" grid="1" gridSize="10" guides="1" tooltips="1" connect="1" arrows="1" fold="1" page="0" pageScale="1" background="none" math="0" shadow="0">
  <root>
    <mxCell id="0" />
    <mxCell id="1" parent="0" />
    <mxCell id="node29" parent="1" vertex="1" value="DatabaseConn" style="label;fontStyle=0;strokeColor=default;fillColor=none;align=left;verticalAlign=middle;overflow=hidden;spacingLeft=28;spacingRight=4;rotatable=0;points=[[0,0.5],[1,0.5]];portConstraint=eastwest;imageWidth=16;imageHeight=16;image=data:image/png,iVBORw0KGgoAAAANSUhEUgAAACAAAAAgCAYAAABzenr0AAACPklEQVR4Xu2WuUsDQRTG03hbe7USi9jZaGNjtNBokyjZFQUrG/GsbATvUtTOSm2DuyERBMH7qtIE2VWwEDz+Aa2s1vf2kNmXZNfsERD8YIqdnZnfN2/fvNlA4F+/VGZnvEwWuQlZ4Bay4mgdfe+rXhNDVQA/gabo7eU+GW+m43wRC7/bjymHW/2lM0Hhgz2tSrgjqKQ2S2AiH7yzrVltOSZSfD2d70pWcNZEelszIYn8El3DsX4DxxbtCik3e1EtCgI/Q9dxJEdwkbt63h2rpGsVLSkxVO4Enj0eraFrscJ1JYGflARu0TJXcJDX8MzhQDXkx5k+3vrUYCLhoPRmRAm3B+3gRbVb2JSRsA8i9wpRaaD8gCyMNMKAdxyU3OgzmXADx4jGurX6kd6KaP1JbpnyVT2I8RZqwi7sBsh4fjrqrYDnc+zDnSM8zyZm2TVMYk1gsbGCo6gBSeSmbODXtqeGNWEFR+UaMOcShcP3r2XnF9RjimuCo7MOZuasHOcYgASD5zfDhCN4MaIG1L6D4aBhwlc4Shb5D4RgxEz9cKrgyK3ZRdC1AHKKBgA0T9+h1FMBdwX8Sa3kPf9uBQtH9DB/oQkWgokLEbo0PgUWoYKV0I1wd8z3zmm3kIg/RciP/wcURkKv+58UHg2HzP8PcDHR+Z5Jq4Ra2A24Woy6Q8qdfiSxWNF5nklNOAs4tHM0Sed5JrxoEPRTCc3wC7yi6RxPRSshCy9Uzj1XnkpYOrghLRL8qpyMT/v6zf+8vgFG80iK7km8qAAAAABJRU5ErkJggg==">
      <mxGeometry x="2598" y="-42" width="117" height="25" as="geometry" />
    </mxCell>
    <mxCell id="node37" parent="1" vertex="1" value="Lang" style="label;fontStyle=0;strokeColor=default;fillColor=none;align=left;verticalAlign=middle;overflow=hidden;spacingLeft=28;spacingRight=4;rotatable=0;points=[[0,0.5],[1,0.5]];portConstraint=eastwest;imageWidth=16;imageHeight=16;image=data:image/png,iVBORw0KGgoAAAANSUhEUgAAACAAAAAgCAYAAABzenr0AAACPklEQVR4Xu2WuUsDQRTG03hbe7USi9jZaGNjtNBokyjZFQUrG/GsbATvUtTOSm2DuyERBMH7qtIE2VWwEDz+Aa2s1vf2kNmXZNfsERD8YIqdnZnfN2/fvNlA4F+/VGZnvEwWuQlZ4Bay4mgdfe+rXhNDVQA/gabo7eU+GW+m43wRC7/bjymHW/2lM0Hhgz2tSrgjqKQ2S2AiH7yzrVltOSZSfD2d70pWcNZEelszIYn8El3DsX4DxxbtCik3e1EtCgI/Q9dxJEdwkbt63h2rpGsVLSkxVO4Enj0eraFrscJ1JYGflARu0TJXcJDX8MzhQDXkx5k+3vrUYCLhoPRmRAm3B+3gRbVb2JSRsA8i9wpRaaD8gCyMNMKAdxyU3OgzmXADx4jGurX6kd6KaP1JbpnyVT2I8RZqwi7sBsh4fjrqrYDnc+zDnSM8zyZm2TVMYk1gsbGCo6gBSeSmbODXtqeGNWEFR+UaMOcShcP3r2XnF9RjimuCo7MOZuasHOcYgASD5zfDhCN4MaIG1L6D4aBhwlc4Shb5D4RgxEz9cKrgyK3ZRdC1AHKKBgA0T9+h1FMBdwX8Sa3kPf9uBQtH9DB/oQkWgokLEbo0PgUWoYKV0I1wd8z3zmm3kIg/RciP/wcURkKv+58UHg2HzP8PcDHR+Z5Jq4Ra2A24Woy6Q8qdfiSxWNF5nklNOAs4tHM0Sed5JrxoEPRTCc3wC7yi6RxPRSshCy9Uzj1XnkpYOrghLRL8qpyMT/v6zf+8vgFG80iK7km8qAAAAABJRU5ErkJggg==">
      <mxGeometry x="1284" y="443" width="56" height="25" as="geometry" />
    </mxCell>
    <mxCell id="node43" parent="1" vertex="1" value="LangCollection" style="label;fontStyle=0;strokeColor=default;fillColor=none;align=left;verticalAlign=middle;overflow=hidden;spacingLeft=28;spacingRight=4;rotatable=0;points=[[0,0.5],[1,0.5]];portConstraint=eastwest;imageWidth=16;imageHeight=16;image=data:image/png,iVBORw0KGgoAAAANSUhEUgAAACAAAAAgCAYAAABzenr0AAACPklEQVR4Xu2WuUsDQRTG03hbe7USi9jZaGNjtNBokyjZFQUrG/GsbATvUtTOSm2DuyERBMH7qtIE2VWwEDz+Aa2s1vf2kNmXZNfsERD8YIqdnZnfN2/fvNlA4F+/VGZnvEwWuQlZ4Bay4mgdfe+rXhNDVQA/gabo7eU+GW+m43wRC7/bjymHW/2lM0Hhgz2tSrgjqKQ2S2AiH7yzrVltOSZSfD2d70pWcNZEelszIYn8El3DsX4DxxbtCik3e1EtCgI/Q9dxJEdwkbt63h2rpGsVLSkxVO4Enj0eraFrscJ1JYGflARu0TJXcJDX8MzhQDXkx5k+3vrUYCLhoPRmRAm3B+3gRbVb2JSRsA8i9wpRaaD8gCyMNMKAdxyU3OgzmXADx4jGurX6kd6KaP1JbpnyVT2I8RZqwi7sBsh4fjrqrYDnc+zDnSM8zyZm2TVMYk1gsbGCo6gBSeSmbODXtqeGNWEFR+UaMOcShcP3r2XnF9RjimuCo7MOZuasHOcYgASD5zfDhCN4MaIG1L6D4aBhwlc4Shb5D4RgxEz9cKrgyK3ZRdC1AHKKBgA0T9+h1FMBdwX8Sa3kPf9uBQtH9DB/oQkWgokLEbo0PgUWoYKV0I1wd8z3zmm3kIg/RciP/wcURkKv+58UHg2HzP8PcDHR+Z5Jq4Ra2A24Woy6Q8qdfiSxWNF5nklNOAs4tHM0Sed5JrxoEPRTCc3wC7yi6RxPRSshCy9Uzj1XnkpYOrghLRL8qpyMT/v6zf+8vgFG80iK7km8qAAAAABJRU5ErkJggg==">
      <mxGeometry x="1253" y="368" width="118" height="25" as="geometry" />
    </mxCell>
    <mxCell id="node9" parent="1" vertex="1" value="MappingAttribute" style="label;fontStyle=0;strokeColor=default;fillColor=none;align=left;verticalAlign=middle;overflow=hidden;spacingLeft=28;spacingRight=4;rotatable=0;points=[[0,0.5],[1,0.5]];portConstraint=eastwest;imageWidth=16;imageHeight=16;image=data:image/png,iVBORw0KGgoAAAANSUhEUgAAACAAAAAgCAYAAABzenr0AAACPklEQVR4Xu2WuUsDQRTG03hbe7USi9jZaGNjtNBokyjZFQUrG/GsbATvUtTOSm2DuyERBMH7qtIE2VWwEDz+Aa2s1vf2kNmXZNfsERD8YIqdnZnfN2/fvNlA4F+/VGZnvEwWuQlZ4Bay4mgdfe+rXhNDVQA/gabo7eU+GW+m43wRC7/bjymHW/2lM0Hhgz2tSrgjqKQ2S2AiH7yzrVltOSZSfD2d70pWcNZEelszIYn8El3DsX4DxxbtCik3e1EtCgI/Q9dxJEdwkbt63h2rpGsVLSkxVO4Enj0eraFrscJ1JYGflARu0TJXcJDX8MzhQDXkx5k+3vrUYCLhoPRmRAm3B+3gRbVb2JSRsA8i9wpRaaD8gCyMNMKAdxyU3OgzmXADx4jGurX6kd6KaP1JbpnyVT2I8RZqwi7sBsh4fjrqrYDnc+zDnSM8zyZm2TVMYk1gsbGCo6gBSeSmbODXtqeGNWEFR+UaMOcShcP3r2XnF9RjimuCo7MOZuasHOcYgASD5zfDhCN4MaIG1L6D4aBhwlc4Shb5D4RgxEz9cKrgyK3ZRdC1AHKKBgA0T9+h1FMBdwX8Sa3kPf9uBQtH9DB/oQkWgokLEbo0PgUWoYKV0I1wd8z3zmm3kIg/RciP/wcURkKv+58UHg2HzP8PcDHR+Z5Jq4Ra2A24Woy6Q8qdfiSxWNF5nklNOAs4tHM0Sed5JrxoEPRTCc3wC7yi6RxPRSshCy9Uzj1XnkpYOrghLRL8qpyMT/v6zf+8vgFG80iK7km8qAAAAABJRU5ErkJggg==">
      <mxGeometry x="2439" y="2183" width="136" height="25" as="geometry" />
    </mxCell>
    <mxCell id="node13" parent="1" vertex="1" value="Order" style="label;fontStyle=0;strokeColor=default;fillColor=none;align=left;verticalAlign=middle;overflow=hidden;spacingLeft=28;spacingRight=4;rotatable=0;points=[[0,0.5],[1,0.5]];portConstraint=eastwest;imageWidth=16;imageHeight=16;image=data:image/png,iVBORw0KGgoAAAANSUhEUgAAACAAAAAgCAYAAABzenr0AAACPklEQVR4Xu2WuUsDQRTG03hbe7USi9jZaGNjtNBokyjZFQUrG/GsbATvUtTOSm2DuyERBMH7qtIE2VWwEDz+Aa2s1vf2kNmXZNfsERD8YIqdnZnfN2/fvNlA4F+/VGZnvEwWuQlZ4Bay4mgdfe+rXhNDVQA/gabo7eU+GW+m43wRC7/bjymHW/2lM0Hhgz2tSrgjqKQ2S2AiH7yzrVltOSZSfD2d70pWcNZEelszIYn8El3DsX4DxxbtCik3e1EtCgI/Q9dxJEdwkbt63h2rpGsVLSkxVO4Enj0eraFrscJ1JYGflARu0TJXcJDX8MzhQDXkx5k+3vrUYCLhoPRmRAm3B+3gRbVb2JSRsA8i9wpRaaD8gCyMNMKAdxyU3OgzmXADx4jGurX6kd6KaP1JbpnyVT2I8RZqwi7sBsh4fjrqrYDnc+zDnSM8zyZm2TVMYk1gsbGCo6gBSeSmbODXtqeGNWEFR+UaMOcShcP3r2XnF9RjimuCo7MOZuasHOcYgASD5zfDhCN4MaIG1L6D4aBhwlc4Shb5D4RgxEz9cKrgyK3ZRdC1AHKKBgA0T9+h1FMBdwX8Sa3kPf9uBQtH9DB/oQkWgokLEbo0PgUWoYKV0I1wd8z3zmm3kIg/RciP/wcURkKv+58UHg2HzP8PcDHR+Z5Jq4Ra2A24Woy6Q8qdfiSxWNF5nklNOAs4tHM0Sed5JrxoEPRTCc3wC7yi6RxPRSshCy9Uzj1XnkpYOrghLRL8qpyMT/v6zf+8vgFG80iK7km8qAAAAABJRU5ErkJggg==">
      <mxGeometry x="2751" y="2033" width="62" height="25" as="geometry" />
    </mxCell>
    <mxCell id="node32" parent="1" vertex="1" value="OrderProduct" style="label;fontStyle=0;strokeColor=default;fillColor=none;align=left;verticalAlign=middle;overflow=hidden;spacingLeft=28;spacingRight=4;rotatable=0;points=[[0,0.5],[1,0.5]];portConstraint=eastwest;imageWidth=16;imageHeight=16;image=data:image/png,iVBORw0KGgoAAAANSUhEUgAAACAAAAAgCAYAAABzenr0AAACPklEQVR4Xu2WuUsDQRTG03hbe7USi9jZaGNjtNBokyjZFQUrG/GsbATvUtTOSm2DuyERBMH7qtIE2VWwEDz+Aa2s1vf2kNmXZNfsERD8YIqdnZnfN2/fvNlA4F+/VGZnvEwWuQlZ4Bay4mgdfe+rXhNDVQA/gabo7eU+GW+m43wRC7/bjymHW/2lM0Hhgz2tSrgjqKQ2S2AiH7yzrVltOSZSfD2d70pWcNZEelszIYn8El3DsX4DxxbtCik3e1EtCgI/Q9dxJEdwkbt63h2rpGsVLSkxVO4Enj0eraFrscJ1JYGflARu0TJXcJDX8MzhQDXkx5k+3vrUYCLhoPRmRAm3B+3gRbVb2JSRsA8i9wpRaaD8gCyMNMKAdxyU3OgzmXADx4jGurX6kd6KaP1JbpnyVT2I8RZqwi7sBsh4fjrqrYDnc+zDnSM8zyZm2TVMYk1gsbGCo6gBSeSmbODXtqeGNWEFR+UaMOcShcP3r2XnF9RjimuCo7MOZuasHOcYgASD5zfDhCN4MaIG1L6D4aBhwlc4Shb5D4RgxEz9cKrgyK3ZRdC1AHKKBgA0T9+h1FMBdwX8Sa3kPf9uBQtH9DB/oQkWgokLEbo0PgUWoYKV0I1wd8z3zmm3kIg/RciP/wcURkKv+58UHg2HzP8PcDHR+Z5Jq4Ra2A24Woy6Q8qdfiSxWNF5nklNOAs4tHM0Sed5JrxoEPRTCc3wC7yi6RxPRSshCy9Uzj1XnkpYOrghLRL8qpyMT/v6zf+8vgFG80iK7km8qAAAAABJRU5ErkJggg==">
      <mxGeometry x="76" y="2258" width="111" height="25" as="geometry" />
    </mxCell>
    <mxCell id="node15" parent="1" vertex="1" value="OrderStatus" style="label;fontStyle=0;strokeColor=default;fillColor=none;align=left;verticalAlign=middle;overflow=hidden;spacingLeft=28;spacingRight=4;rotatable=0;points=[[0,0.5],[1,0.5]];portConstraint=eastwest;imageWidth=16;imageHeight=16;image=data:image/png,iVBORw0KGgoAAAANSUhEUgAAACAAAAAgCAYAAABzenr0AAABIklEQVR4XmNgGAWjgERwZmYa69W1EW3X1kU8A+L/ROJnID0gvejmkQyurotsx2IBURikF908kgHQoKcgwxL99P/bGikThUFqoY54im4eyQDmG3RLCGGYPnTzSAboDtg0yQcjqGEYJEd1B1xdF3EE2WC6OwAbcNDW5rExUXGwNVLZjB70dHEAMrA1VqlEt5wkB1xdFcoGzWqk5XOgHpBekBkZIUaHLqwIIy8KgIo6sFhALO4AmdFT7JBBiQPA+TzBn/h8DlILtQCcz62t1XnR1ZDiALBCdAMIYXQLkOVIKojQHUBuNsOmj6iimFoOAJUXSGqJr4zQHUAsRncA2WDQOYDcKCAbDDoHEIup6QCKCyKKwDUqFMUUAWpURqNgFIwCUgAA7gdgpJ5H74cAAAAASUVORK5CYII=">
      <mxGeometry x="2731" y="2233" width="102" height="25" as="geometry" />
    </mxCell>
    <mxCell id="node14" parent="1" vertex="1" value="Orders" style="label;fontStyle=0;strokeColor=default;fillColor=none;align=left;verticalAlign=middle;overflow=hidden;spacingLeft=28;spacingRight=4;rotatable=0;points=[[0,0.5],[1,0.5]];portConstraint=eastwest;imageWidth=16;imageHeight=16;image=data:image/png,iVBORw0KGgoAAAANSUhEUgAAACAAAAAgCAYAAABzenr0AAACPklEQVR4Xu2WuUsDQRTG03hbe7USi9jZaGNjtNBokyjZFQUrG/GsbATvUtTOSm2DuyERBMH7qtIE2VWwEDz+Aa2s1vf2kNmXZNfsERD8YIqdnZnfN2/fvNlA4F+/VGZnvEwWuQlZ4Bay4mgdfe+rXhNDVQA/gabo7eU+GW+m43wRC7/bjymHW/2lM0Hhgz2tSrgjqKQ2S2AiH7yzrVltOSZSfD2d70pWcNZEelszIYn8El3DsX4DxxbtCik3e1EtCgI/Q9dxJEdwkbt63h2rpGsVLSkxVO4Enj0eraFrscJ1JYGflARu0TJXcJDX8MzhQDXkx5k+3vrUYCLhoPRmRAm3B+3gRbVb2JSRsA8i9wpRaaD8gCyMNMKAdxyU3OgzmXADx4jGurX6kd6KaP1JbpnyVT2I8RZqwi7sBsh4fjrqrYDnc+zDnSM8zyZm2TVMYk1gsbGCo6gBSeSmbODXtqeGNWEFR+UaMOcShcP3r2XnF9RjimuCo7MOZuasHOcYgASD5zfDhCN4MaIG1L6D4aBhwlc4Shb5D4RgxEz9cKrgyK3ZRdC1AHKKBgA0T9+h1FMBdwX8Sa3kPf9uBQtH9DB/oQkWgokLEbo0PgUWoYKV0I1wd8z3zmm3kIg/RciP/wcURkKv+58UHg2HzP8PcDHR+Z5Jq4Ra2A24Woy6Q8qdfiSxWNF5nklNOAs4tHM0Sed5JrxoEPRTCc3wC7yi6RxPRSshCy9Uzj1XnkpYOrghLRL8qpyMT/v6zf+8vgFG80iK7km8qAAAAABJRU5ErkJggg==">
      <mxGeometry x="2847" y="33" width="69" height="25" as="geometry" />
    </mxCell>
    <mxCell id="node5" parent="1" vertex="1" value="Perm" style="label;fontStyle=0;strokeColor=default;fillColor=none;align=left;verticalAlign=middle;overflow=hidden;spacingLeft=28;spacingRight=4;rotatable=0;points=[[0,0.5],[1,0.5]];portConstraint=eastwest;imageWidth=16;imageHeight=16;image=data:image/png,iVBORw0KGgoAAAANSUhEUgAAACAAAAAgCAYAAABzenr0AAABIklEQVR4XmNgGAWjgERwZmYa69W1EW3X1kU8A+L/ROJnID0gvejmkQyurotsx2IBURikF908kgHQoKcgwxL99P/bGikThUFqoY54im4eyQDmG3RLCGGYPnTzSAboDtg0yQcjqGEYJEd1B1xdF3EE2WC6OwAbcNDW5rExUXGwNVLZjB70dHEAMrA1VqlEt5wkB1xdFcoGzWqk5XOgHpBekBkZIUaHLqwIIy8KgIo6sFhALO4AmdFT7JBBiQPA+TzBn/h8DlILtQCcz62t1XnR1ZDiALBCdAMIYXQLkOVIKojQHUBuNsOmj6iimFoOAJUXSGqJr4zQHUAsRncA2WDQOYDcKCAbDDoHEIup6QCKCyKKwDUqFMUUAWpURqNgFIwCUgAA7gdgpJ5H74cAAAAASUVORK5CYII=">
      <mxGeometry x="2128" y="1108" width="58" height="25" as="geometry" />
    </mxCell>
    <mxCell id="node44" parent="1" vertex="1" value="Product" style="label;fontStyle=0;strokeColor=default;fillColor=none;align=left;verticalAlign=middle;overflow=hidden;spacingLeft=28;spacingRight=4;rotatable=0;points=[[0,0.5],[1,0.5]];portConstraint=eastwest;imageWidth=16;imageHeight=16;image=data:image/png,iVBORw0KGgoAAAANSUhEUgAAACAAAAAgCAYAAABzenr0AAACPklEQVR4Xu2WuUsDQRTG03hbe7USi9jZaGNjtNBokyjZFQUrG/GsbATvUtTOSm2DuyERBMH7qtIE2VWwEDz+Aa2s1vf2kNmXZNfsERD8YIqdnZnfN2/fvNlA4F+/VGZnvEwWuQlZ4Bay4mgdfe+rXhNDVQA/gabo7eU+GW+m43wRC7/bjymHW/2lM0Hhgz2tSrgjqKQ2S2AiH7yzrVltOSZSfD2d70pWcNZEelszIYn8El3DsX4DxxbtCik3e1EtCgI/Q9dxJEdwkbt63h2rpGsVLSkxVO4Enj0eraFrscJ1JYGflARu0TJXcJDX8MzhQDXkx5k+3vrUYCLhoPRmRAm3B+3gRbVb2JSRsA8i9wpRaaD8gCyMNMKAdxyU3OgzmXADx4jGurX6kd6KaP1JbpnyVT2I8RZqwi7sBsh4fjrqrYDnc+zDnSM8zyZm2TVMYk1gsbGCo6gBSeSmbODXtqeGNWEFR+UaMOcShcP3r2XnF9RjimuCo7MOZuasHOcYgASD5zfDhCN4MaIG1L6D4aBhwlc4Shb5D4RgxEz9cKrgyK3ZRdC1AHKKBgA0T9+h1FMBdwX8Sa3kPf9uBQtH9DB/oQkWgokLEbo0PgUWoYKV0I1wd8z3zmm3kIg/RciP/wcURkKv+58UHg2HzP8PcDHR+Z5Jq4Ra2A24Woy6Q8qdfiSxWNF5nklNOAs4tHM0Sed5JrxoEPRTCc3wC7yi6RxPRSshCy9Uzj1XnkpYOrghLRL8qpyMT/v6zf+8vgFG80iK7km8qAAAAABJRU5ErkJggg==">
      <mxGeometry x="94" y="1108" width="75" height="25" as="geometry" />
    </mxCell>
    <mxCell id="node20" parent="1" vertex="1" value="Products" style="label;fontStyle=0;strokeColor=default;fillColor=none;align=left;verticalAlign=middle;overflow=hidden;spacingLeft=28;spacingRight=4;rotatable=0;points=[[0,0.5],[1,0.5]];portConstraint=eastwest;imageWidth=16;imageHeight=16;image=data:image/png,iVBORw0KGgoAAAANSUhEUgAAACAAAAAgCAYAAABzenr0AAACPklEQVR4Xu2WuUsDQRTG03hbe7USi9jZaGNjtNBokyjZFQUrG/GsbATvUtTOSm2DuyERBMH7qtIE2VWwEDz+Aa2s1vf2kNmXZNfsERD8YIqdnZnfN2/fvNlA4F+/VGZnvEwWuQlZ4Bay4mgdfe+rXhNDVQA/gabo7eU+GW+m43wRC7/bjymHW/2lM0Hhgz2tSrgjqKQ2S2AiH7yzrVltOSZSfD2d70pWcNZEelszIYn8El3DsX4DxxbtCik3e1EtCgI/Q9dxJEdwkbt63h2rpGsVLSkxVO4Enj0eraFrscJ1JYGflARu0TJXcJDX8MzhQDXkx5k+3vrUYCLhoPRmRAm3B+3gRbVb2JSRsA8i9wpRaaD8gCyMNMKAdxyU3OgzmXADx4jGurX6kd6KaP1JbpnyVT2I8RZqwi7sBsh4fjrqrYDnc+zDnSM8zyZm2TVMYk1gsbGCo6gBSeSmbODXtqeGNWEFR+UaMOcShcP3r2XnF9RjimuCo7MOZuasHOcYgASD5zfDhCN4MaIG1L6D4aBhwlc4Shb5D4RgxEz9cKrgyK3ZRdC1AHKKBgA0T9+h1FMBdwX8Sa3kPf9uBQtH9DB/oQkWgokLEbo0PgUWoYKV0I1wd8z3zmm3kIg/RciP/wcURkKv+58UHg2HzP8PcDHR+Z5Jq4Ra2A24Woy6Q8qdfiSxWNF5nklNOAs4tHM0Sed5JrxoEPRTCc3wC7yi6RxPRSshCy9Uzj1XnkpYOrghLRL8qpyMT/v6zf+8vgFG80iK7km8qAAAAABJRU5ErkJggg==">
      <mxGeometry x="91" y="258" width="82" height="25" as="geometry" />
    </mxCell>
    <mxCell id="node12" parent="1" vertex="1" value="Program" style="label;fontStyle=0;strokeColor=default;fillColor=none;align=left;verticalAlign=middle;overflow=hidden;spacingLeft=28;spacingRight=4;rotatable=0;points=[[0,0.5],[1,0.5]];portConstraint=eastwest;imageWidth=16;imageHeight=16;image=data:image/png,iVBORw0KGgoAAAANSUhEUgAAACAAAAAgCAYAAABzenr0AAACPklEQVR4Xu2WuUsDQRTG03hbe7USi9jZaGNjtNBokyjZFQUrG/GsbATvUtTOSm2DuyERBMH7qtIE2VWwEDz+Aa2s1vf2kNmXZNfsERD8YIqdnZnfN2/fvNlA4F+/VGZnvEwWuQlZ4Bay4mgdfe+rXhNDVQA/gabo7eU+GW+m43wRC7/bjymHW/2lM0Hhgz2tSrgjqKQ2S2AiH7yzrVltOSZSfD2d70pWcNZEelszIYn8El3DsX4DxxbtCik3e1EtCgI/Q9dxJEdwkbt63h2rpGsVLSkxVO4Enj0eraFrscJ1JYGflARu0TJXcJDX8MzhQDXkx5k+3vrUYCLhoPRmRAm3B+3gRbVb2JSRsA8i9wpRaaD8gCyMNMKAdxyU3OgzmXADx4jGurX6kd6KaP1JbpnyVT2I8RZqwi7sBsh4fjrqrYDnc+zDnSM8zyZm2TVMYk1gsbGCo6gBSeSmbODXtqeGNWEFR+UaMOcShcP3r2XnF9RjimuCo7MOZuasHOcYgASD5zfDhCN4MaIG1L6D4aBhwlc4Shb5D4RgxEz9cKrgyK3ZRdC1AHKKBgA0T9+h1FMBdwX8Sa3kPf9uBQtH9DB/oQkWgokLEbo0PgUWoYKV0I1wd8z3zmm3kIg/RciP/wcURkKv+58UHg2HzP8PcDHR+Z5Jq4Ra2A24Woy6Q8qdfiSxWNF5nklNOAs4tHM0Sed5JrxoEPRTCc3wC7yi6RxPRSshCy9Uzj1XnkpYOrghLRL8qpyMT/v6zf+8vgFG80iK7km8qAAAAABJRU5ErkJggg==">
      <mxGeometry x="1193" y="2133" width="78" height="25" as="geometry" />
    </mxCell>
    <mxCell id="node6" parent="1" vertex="1" value="Session" style="label;fontStyle=0;strokeColor=default;fillColor=none;align=left;verticalAlign=middle;overflow=hidden;spacingLeft=28;spacingRight=4;rotatable=0;points=[[0,0.5],[1,0.5]];portConstraint=eastwest;imageWidth=16;imageHeight=16;image=data:image/png,iVBORw0KGgoAAAANSUhEUgAAACAAAAAgCAYAAABzenr0AAACPklEQVR4Xu2WuUsDQRTG03hbe7USi9jZaGNjtNBokyjZFQUrG/GsbATvUtTOSm2DuyERBMH7qtIE2VWwEDz+Aa2s1vf2kNmXZNfsERD8YIqdnZnfN2/fvNlA4F+/VGZnvEwWuQlZ4Bay4mgdfe+rXhNDVQA/gabo7eU+GW+m43wRC7/bjymHW/2lM0Hhgz2tSrgjqKQ2S2AiH7yzrVltOSZSfD2d70pWcNZEelszIYn8El3DsX4DxxbtCik3e1EtCgI/Q9dxJEdwkbt63h2rpGsVLSkxVO4Enj0eraFrscJ1JYGflARu0TJXcJDX8MzhQDXkx5k+3vrUYCLhoPRmRAm3B+3gRbVb2JSRsA8i9wpRaaD8gCyMNMKAdxyU3OgzmXADx4jGurX6kd6KaP1JbpnyVT2I8RZqwi7sBsh4fjrqrYDnc+zDnSM8zyZm2TVMYk1gsbGCo6gBSeSmbODXtqeGNWEFR+UaMOcShcP3r2XnF9RjimuCo7MOZuasHOcYgASD5zfDhCN4MaIG1L6D4aBhwlc4Shb5D4RgxEz9cKrgyK3ZRdC1AHKKBgA0T9+h1FMBdwX8Sa3kPf9uBQtH9DB/oQkWgokLEbo0PgUWoYKV0I1wd8z3zmm3kIg/RciP/wcURkKv+58UHg2HzP8PcDHR+Z5Jq4Ra2A24Woy6Q8qdfiSxWNF5nklNOAs4tHM0Sed5JrxoEPRTCc3wC7yi6RxPRSshCy9Uzj1XnkpYOrghLRL8qpyMT/v6zf+8vgFG80iK7km8qAAAAABJRU5ErkJggg==">
      <mxGeometry x="1194" y="108" width="75" height="25" as="geometry" />
    </mxCell>
    <mxCell id="node11" parent="1" vertex="1" value="Settings" style="label;fontStyle=0;strokeColor=default;fillColor=none;align=left;verticalAlign=middle;overflow=hidden;spacingLeft=28;spacingRight=4;rotatable=0;points=[[0,0.5],[1,0.5]];portConstraint=eastwest;imageWidth=16;imageHeight=16;image=data:image/png,iVBORw0KGgoAAAANSUhEUgAAACAAAAAgCAYAAABzenr0AAACPklEQVR4Xu2WuUsDQRTG03hbe7USi9jZaGNjtNBokyjZFQUrG/GsbATvUtTOSm2DuyERBMH7qtIE2VWwEDz+Aa2s1vf2kNmXZNfsERD8YIqdnZnfN2/fvNlA4F+/VGZnvEwWuQlZ4Bay4mgdfe+rXhNDVQA/gabo7eU+GW+m43wRC7/bjymHW/2lM0Hhgz2tSrgjqKQ2S2AiH7yzrVltOSZSfD2d70pWcNZEelszIYn8El3DsX4DxxbtCik3e1EtCgI/Q9dxJEdwkbt63h2rpGsVLSkxVO4Enj0eraFrscJ1JYGflARu0TJXcJDX8MzhQDXkx5k+3vrUYCLhoPRmRAm3B+3gRbVb2JSRsA8i9wpRaaD8gCyMNMKAdxyU3OgzmXADx4jGurX6kd6KaP1JbpnyVT2I8RZqwi7sBsh4fjrqrYDnc+zDnSM8zyZm2TVMYk1gsbGCo6gBSeSmbODXtqeGNWEFR+UaMOcShcP3r2XnF9RjimuCo7MOZuasHOcYgASD5zfDhCN4MaIG1L6D4aBhwlc4Shb5D4RgxEz9cKrgyK3ZRdC1AHKKBgA0T9+h1FMBdwX8Sa3kPf9uBQtH9DB/oQkWgokLEbo0PgUWoYKV0I1wd8z3zmm3kIg/RciP/wcURkKv+58UHg2HzP8PcDHR+Z5Jq4Ra2A24Woy6Q8qdfiSxWNF5nklNOAs4tHM0Sed5JrxoEPRTCc3wC7yi6RxPRSshCy9Uzj1XnkpYOrghLRL8qpyMT/v6zf+8vgFG80iK7km8qAAAAABJRU5ErkJggg==">
      <mxGeometry x="2618" y="2083" width="78" height="25" as="geometry" />
    </mxCell>
    <mxCell id="node23" parent="1" vertex="1" value="ShoppingCart" style="label;fontStyle=0;strokeColor=default;fillColor=none;align=left;verticalAlign=middle;overflow=hidden;spacingLeft=28;spacingRight=4;rotatable=0;points=[[0,0.5],[1,0.5]];portConstraint=eastwest;imageWidth=16;imageHeight=16;image=data:image/png,iVBORw0KGgoAAAANSUhEUgAAACAAAAAgCAYAAABzenr0AAACPklEQVR4Xu2WuUsDQRTG03hbe7USi9jZaGNjtNBokyjZFQUrG/GsbATvUtTOSm2DuyERBMH7qtIE2VWwEDz+Aa2s1vf2kNmXZNfsERD8YIqdnZnfN2/fvNlA4F+/VGZnvEwWuQlZ4Bay4mgdfe+rXhNDVQA/gabo7eU+GW+m43wRC7/bjymHW/2lM0Hhgz2tSrgjqKQ2S2AiH7yzrVltOSZSfD2d70pWcNZEelszIYn8El3DsX4DxxbtCik3e1EtCgI/Q9dxJEdwkbt63h2rpGsVLSkxVO4Enj0eraFrscJ1JYGflARu0TJXcJDX8MzhQDXkx5k+3vrUYCLhoPRmRAm3B+3gRbVb2JSRsA8i9wpRaaD8gCyMNMKAdxyU3OgzmXADx4jGurX6kd6KaP1JbpnyVT2I8RZqwi7sBsh4fjrqrYDnc+zDnSM8zyZm2TVMYk1gsbGCo6gBSeSmbODXtqeGNWEFR+UaMOcShcP3r2XnF9RjimuCo7MOZuasHOcYgASD5zfDhCN4MaIG1L6D4aBhwlc4Shb5D4RgxEz9cKrgyK3ZRdC1AHKKBgA0T9+h1FMBdwX8Sa3kPf9uBQtH9DB/oQkWgokLEbo0PgUWoYKV0I1wd8z3zmm3kIg/RciP/wcURkKv+58UHg2HzP8PcDHR+Z5Jq4Ra2A24Woy6Q8qdfiSxWNF5nklNOAs4tHM0Sed5JrxoEPRTCc3wC7yi6RxPRSshCy9Uzj1XnkpYOrghLRL8qpyMT/v6zf+8vgFG80iK7km8qAAAAABJRU5ErkJggg==">
      <mxGeometry x="-99" y="2258" width="111" height="25" as="geometry" />
    </mxCell>
    <mxCell id="node7" parent="1" vertex="1" value="SqlBuilder" style="label;fontStyle=0;strokeColor=default;fillColor=none;align=left;verticalAlign=middle;overflow=hidden;spacingLeft=28;spacingRight=4;rotatable=0;points=[[0,0.5],[1,0.5]];portConstraint=eastwest;imageWidth=16;imageHeight=16;image=data:image/png,iVBORw0KGgoAAAANSUhEUgAAACAAAAAgCAYAAABzenr0AAACPklEQVR4Xu2WuUsDQRTG03hbe7USi9jZaGNjtNBokyjZFQUrG/GsbATvUtTOSm2DuyERBMH7qtIE2VWwEDz+Aa2s1vf2kNmXZNfsERD8YIqdnZnfN2/fvNlA4F+/VGZnvEwWuQlZ4Bay4mgdfe+rXhNDVQA/gabo7eU+GW+m43wRC7/bjymHW/2lM0Hhgz2tSrgjqKQ2S2AiH7yzrVltOSZSfD2d70pWcNZEelszIYn8El3DsX4DxxbtCik3e1EtCgI/Q9dxJEdwkbt63h2rpGsVLSkxVO4Enj0eraFrscJ1JYGflARu0TJXcJDX8MzhQDXkx5k+3vrUYCLhoPRmRAm3B+3gRbVb2JSRsA8i9wpRaaD8gCyMNMKAdxyU3OgzmXADx4jGurX6kd6KaP1JbpnyVT2I8RZqwi7sBsh4fjrqrYDnc+zDnSM8zyZm2TVMYk1gsbGCo6gBSeSmbODXtqeGNWEFR+UaMOcShcP3r2XnF9RjimuCo7MOZuasHOcYgASD5zfDhCN4MaIG1L6D4aBhwlc4Shb5D4RgxEz9cKrgyK3ZRdC1AHKKBgA0T9+h1FMBdwX8Sa3kPf9uBQtH9DB/oQkWgokLEbo0PgUWoYKV0I1wd8z3zmm3kIg/RciP/wcURkKv+58UHg2HzP8PcDHR+Z5Jq4Ra2A24Woy6Q8qdfiSxWNF5nklNOAs4tHM0Sed5JrxoEPRTCc3wC7yi6RxPRSshCy9Uzj1XnkpYOrghLRL8qpyMT/v6zf+8vgFG80iK7km8qAAAAABJRU5ErkJggg==">
      <mxGeometry x="2613" y="33" width="88" height="25" as="geometry" />
    </mxCell>
    <mxCell id="node8" parent="1" vertex="1" value="SqlHelper" style="label;fontStyle=0;strokeColor=default;fillColor=none;align=left;verticalAlign=middle;overflow=hidden;spacingLeft=28;spacingRight=4;rotatable=0;points=[[0,0.5],[1,0.5]];portConstraint=eastwest;imageWidth=16;imageHeight=16;image=data:image/png,iVBORw0KGgoAAAANSUhEUgAAACAAAAAgCAYAAABzenr0AAACPklEQVR4Xu2WuUsDQRTG03hbe7USi9jZaGNjtNBokyjZFQUrG/GsbATvUtTOSm2DuyERBMH7qtIE2VWwEDz+Aa2s1vf2kNmXZNfsERD8YIqdnZnfN2/fvNlA4F+/VGZnvEwWuQlZ4Bay4mgdfe+rXhNDVQA/gabo7eU+GW+m43wRC7/bjymHW/2lM0Hhgz2tSrgjqKQ2S2AiH7yzrVltOSZSfD2d70pWcNZEelszIYn8El3DsX4DxxbtCik3e1EtCgI/Q9dxJEdwkbt63h2rpGsVLSkxVO4Enj0eraFrscJ1JYGflARu0TJXcJDX8MzhQDXkx5k+3vrUYCLhoPRmRAm3B+3gRbVb2JSRsA8i9wpRaaD8gCyMNMKAdxyU3OgzmXADx4jGurX6kd6KaP1JbpnyVT2I8RZqwi7sBsh4fjrqrYDnc+zDnSM8zyZm2TVMYk1gsbGCo6gBSeSmbODXtqeGNWEFR+UaMOcShcP3r2XnF9RjimuCo7MOZuasHOcYgASD5zfDhCN4MaIG1L6D4aBhwlc4Shb5D4RgxEz9cKrgyK3ZRdC1AHKKBgA0T9+h1FMBdwX8Sa3kPf9uBQtH9DB/oQkWgokLEbo0PgUWoYKV0I1wd8z3zmm3kIg/RciP/wcURkKv+58UHg2HzP8PcDHR+Z5Jq4Ra2A24Woy6Q8qdfiSxWNF5nklNOAs4tHM0Sed5JrxoEPRTCc3wC7yi6RxPRSshCy9Uzj1XnkpYOrghLRL8qpyMT/v6zf+8vgFG80iK7km8qAAAAABJRU5ErkJggg==">
      <mxGeometry x="163" y="183" width="87" height="25" as="geometry" />
    </mxCell>
    <mxCell id="node10" parent="1" vertex="1" value="StateHolder" style="label;fontStyle=0;strokeColor=default;fillColor=none;align=left;verticalAlign=middle;overflow=hidden;spacingLeft=28;spacingRight=4;rotatable=0;points=[[0,0.5],[1,0.5]];portConstraint=eastwest;imageWidth=16;imageHeight=16;image=data:image/png,iVBORw0KGgoAAAANSUhEUgAAACAAAAAgCAYAAABzenr0AAACPklEQVR4Xu2WuUsDQRTG03hbe7USi9jZaGNjtNBokyjZFQUrG/GsbATvUtTOSm2DuyERBMH7qtIE2VWwEDz+Aa2s1vf2kNmXZNfsERD8YIqdnZnfN2/fvNlA4F+/VGZnvEwWuQlZ4Bay4mgdfe+rXhNDVQA/gabo7eU+GW+m43wRC7/bjymHW/2lM0Hhgz2tSrgjqKQ2S2AiH7yzrVltOSZSfD2d70pWcNZEelszIYn8El3DsX4DxxbtCik3e1EtCgI/Q9dxJEdwkbt63h2rpGsVLSkxVO4Enj0eraFrscJ1JYGflARu0TJXcJDX8MzhQDXkx5k+3vrUYCLhoPRmRAm3B+3gRbVb2JSRsA8i9wpRaaD8gCyMNMKAdxyU3OgzmXADx4jGurX6kd6KaP1JbpnyVT2I8RZqwi7sBsh4fjrqrYDnc+zDnSM8zyZm2TVMYk1gsbGCo6gBSeSmbODXtqeGNWEFR+UaMOcShcP3r2XnF9RjimuCo7MOZuasHOcYgASD5zfDhCN4MaIG1L6D4aBhwlc4Shb5D4RgxEz9cKrgyK3ZRdC1AHKKBgA0T9+h1FMBdwX8Sa3kPf9uBQtH9DB/oQkWgokLEbo0PgUWoYKV0I1wd8z3zmm3kIg/RciP/wcURkKv+58UHg2HzP8PcDHR+Z5Jq4Ra2A24Woy6Q8qdfiSxWNF5nklNOAs4tHM0Sed5JrxoEPRTCc3wC7yi6RxPRSshCy9Uzj1XnkpYOrghLRL8qpyMT/v6zf+8vgFG80iK7km8qAAAAABJRU5ErkJggg==">
      <mxGeometry x="811" y="918" width="101" height="25" as="geometry" />
    </mxCell>
    <mxCell id="node33" parent="1" vertex="1" value="StringType" style="label;fontStyle=0;strokeColor=default;fillColor=none;align=left;verticalAlign=middle;overflow=hidden;spacingLeft=28;spacingRight=4;rotatable=0;points=[[0,0.5],[1,0.5]];portConstraint=eastwest;imageWidth=16;imageHeight=16;image=data:image/png,iVBORw0KGgoAAAANSUhEUgAAACAAAAAgCAYAAABzenr0AAABIklEQVR4XmNgGAWjgERwZmYa69W1EW3X1kU8A+L/ROJnID0gvejmkQyurotsx2IBURikF908kgHQoKcgwxL99P/bGikThUFqoY54im4eyQDmG3RLCGGYPnTzSAboDtg0yQcjqGEYJEd1B1xdF3EE2WC6OwAbcNDW5rExUXGwNVLZjB70dHEAMrA1VqlEt5wkB1xdFcoGzWqk5XOgHpBekBkZIUaHLqwIIy8KgIo6sFhALO4AmdFT7JBBiQPA+TzBn/h8DlILtQCcz62t1XnR1ZDiALBCdAMIYXQLkOVIKojQHUBuNsOmj6iimFoOAJUXSGqJr4zQHUAsRncA2WDQOYDcKCAbDDoHEIup6QCKCyKKwDUqFMUUAWpURqNgFIwCUgAA7gdgpJ5H74cAAAAASUVORK5CYII=">
      <mxGeometry x="1765" y="443" width="94" height="25" as="geometry" />
    </mxCell>
    <mxCell id="node16" parent="1" vertex="1" value="Ui" style="label;fontStyle=0;strokeColor=default;fillColor=none;align=left;verticalAlign=middle;overflow=hidden;spacingLeft=28;spacingRight=4;rotatable=0;points=[[0,0.5],[1,0.5]];portConstraint=eastwest;imageWidth=16;imageHeight=16;image=data:image/png,iVBORw0KGgoAAAANSUhEUgAAACAAAAAgCAYAAABzenr0AAACPklEQVR4Xu2WuUsDQRTG03hbe7USi9jZaGNjtNBokyjZFQUrG/GsbATvUtTOSm2DuyERBMH7qtIE2VWwEDz+Aa2s1vf2kNmXZNfsERD8YIqdnZnfN2/fvNlA4F+/VGZnvEwWuQlZ4Bay4mgdfe+rXhNDVQA/gabo7eU+GW+m43wRC7/bjymHW/2lM0Hhgz2tSrgjqKQ2S2AiH7yzrVltOSZSfD2d70pWcNZEelszIYn8El3DsX4DxxbtCik3e1EtCgI/Q9dxJEdwkbt63h2rpGsVLSkxVO4Enj0eraFrscJ1JYGflARu0TJXcJDX8MzhQDXkx5k+3vrUYCLhoPRmRAm3B+3gRbVb2JSRsA8i9wpRaaD8gCyMNMKAdxyU3OgzmXADx4jGurX6kd6KaP1JbpnyVT2I8RZqwi7sBsh4fjrqrYDnc+zDnSM8zyZm2TVMYk1gsbGCo6gBSeSmbODXtqeGNWEFR+UaMOcShcP3r2XnF9RjimuCo7MOZuasHOcYgASD5zfDhCN4MaIG1L6D4aBhwlc4Shb5D4RgxEz9cKrgyK3ZRdC1AHKKBgA0T9+h1FMBdwX8Sa3kPf9uBQtH9DB/oQkWgokLEbo0PgUWoYKV0I1wd8z3zmm3kIg/RciP/wcURkKv+58UHg2HzP8PcDHR+Z5Jq4Ra2A24Woy6Q8qdfiSxWNF5nklNOAs4tHM0Sed5JrxoEPRTCc3wC7yi6RxPRSshCy9Uzj1XnkpYOrghLRL8qpyMT/v6zf+8vgFG80iK7km8qAAAAABJRU5ErkJggg==">
      <mxGeometry x="617" y="1493" width="39" height="25" as="geometry" />
    </mxCell>
    <mxCell id="node27" parent="1" vertex="1" value="UiAddCartProd" style="label;fontStyle=0;strokeColor=default;fillColor=none;align=left;verticalAlign=middle;overflow=hidden;spacingLeft=28;spacingRight=4;rotatable=0;points=[[0,0.5],[1,0.5]];portConstraint=eastwest;imageWidth=16;imageHeight=16;image=data:image/png,iVBORw0KGgoAAAANSUhEUgAAACAAAAAgCAYAAABzenr0AAACPklEQVR4Xu2WuUsDQRTG03hbe7USi9jZaGNjtNBokyjZFQUrG/GsbATvUtTOSm2DuyERBMH7qtIE2VWwEDz+Aa2s1vf2kNmXZNfsERD8YIqdnZnfN2/fvNlA4F+/VGZnvEwWuQlZ4Bay4mgdfe+rXhNDVQA/gabo7eU+GW+m43wRC7/bjymHW/2lM0Hhgz2tSrgjqKQ2S2AiH7yzrVltOSZSfD2d70pWcNZEelszIYn8El3DsX4DxxbtCik3e1EtCgI/Q9dxJEdwkbt63h2rpGsVLSkxVO4Enj0eraFrscJ1JYGflARu0TJXcJDX8MzhQDXkx5k+3vrUYCLhoPRmRAm3B+3gRbVb2JSRsA8i9wpRaaD8gCyMNMKAdxyU3OgzmXADx4jGurX6kd6KaP1JbpnyVT2I8RZqwi7sBsh4fjrqrYDnc+zDnSM8zyZm2TVMYk1gsbGCo6gBSeSmbODXtqeGNWEFR+UaMOcShcP3r2XnF9RjimuCo7MOZuasHOcYgASD5zfDhCN4MaIG1L6D4aBhwlc4Shb5D4RgxEz9cKrgyK3ZRdC1AHKKBgA0T9+h1FMBdwX8Sa3kPf9uBQtH9DB/oQkWgokLEbo0PgUWoYKV0I1wd8z3zmm3kIg/RciP/wcURkKv+58UHg2HzP8PcDHR+Z5Jq4Ra2A24Woy6Q8qdfiSxWNF5nklNOAs4tHM0Sed5JrxoEPRTCc3wC7yi6RxPRSshCy9Uzj1XnkpYOrghLRL8qpyMT/v6zf+8vgFG80iK7km8qAAAAABJRU5ErkJggg==">
      <mxGeometry x="1919" y="1228" width="119" height="25" as="geometry" />
    </mxCell>
    <mxCell id="node42" parent="1" vertex="1" value="UiAddProd" style="label;fontStyle=0;strokeColor=default;fillColor=none;align=left;verticalAlign=middle;overflow=hidden;spacingLeft=28;spacingRight=4;rotatable=0;points=[[0,0.5],[1,0.5]];portConstraint=eastwest;imageWidth=16;imageHeight=16;image=data:image/png,iVBORw0KGgoAAAANSUhEUgAAACAAAAAgCAYAAABzenr0AAACPklEQVR4Xu2WuUsDQRTG03hbe7USi9jZaGNjtNBokyjZFQUrG/GsbATvUtTOSm2DuyERBMH7qtIE2VWwEDz+Aa2s1vf2kNmXZNfsERD8YIqdnZnfN2/fvNlA4F+/VGZnvEwWuQlZ4Bay4mgdfe+rXhNDVQA/gabo7eU+GW+m43wRC7/bjymHW/2lM0Hhgz2tSrgjqKQ2S2AiH7yzrVltOSZSfD2d70pWcNZEelszIYn8El3DsX4DxxbtCik3e1EtCgI/Q9dxJEdwkbt63h2rpGsVLSkxVO4Enj0eraFrscJ1JYGflARu0TJXcJDX8MzhQDXkx5k+3vrUYCLhoPRmRAm3B+3gRbVb2JSRsA8i9wpRaaD8gCyMNMKAdxyU3OgzmXADx4jGurX6kd6KaP1JbpnyVT2I8RZqwi7sBsh4fjrqrYDnc+zDnSM8zyZm2TVMYk1gsbGCo6gBSeSmbODXtqeGNWEFR+UaMOcShcP3r2XnF9RjimuCo7MOZuasHOcYgASD5zfDhCN4MaIG1L6D4aBhwlc4Shb5D4RgxEz9cKrgyK3ZRdC1AHKKBgA0T9+h1FMBdwX8Sa3kPf9uBQtH9DB/oQkWgokLEbo0PgUWoYKV0I1wd8z3zmm3kIg/RciP/wcURkKv+58UHg2HzP8PcDHR+Z5Jq4Ra2A24Woy6Q8qdfiSxWNF5nklNOAs4tHM0Sed5JrxoEPRTCc3wC7yi6RxPRSshCy9Uzj1XnkpYOrghLRL8qpyMT/v6zf+8vgFG80iK7km8qAAAAABJRU5ErkJggg==">
      <mxGeometry x="1732" y="1428" width="93" height="25" as="geometry" />
    </mxCell>
    <mxCell id="node25" parent="1" vertex="1" value="UiAddUser" style="label;fontStyle=0;strokeColor=default;fillColor=none;align=left;verticalAlign=middle;overflow=hidden;spacingLeft=28;spacingRight=4;rotatable=0;points=[[0,0.5],[1,0.5]];portConstraint=eastwest;imageWidth=16;imageHeight=16;image=data:image/png,iVBORw0KGgoAAAANSUhEUgAAACAAAAAgCAYAAABzenr0AAACPklEQVR4Xu2WuUsDQRTG03hbe7USi9jZaGNjtNBokyjZFQUrG/GsbATvUtTOSm2DuyERBMH7qtIE2VWwEDz+Aa2s1vf2kNmXZNfsERD8YIqdnZnfN2/fvNlA4F+/VGZnvEwWuQlZ4Bay4mgdfe+rXhNDVQA/gabo7eU+GW+m43wRC7/bjymHW/2lM0Hhgz2tSrgjqKQ2S2AiH7yzrVltOSZSfD2d70pWcNZEelszIYn8El3DsX4DxxbtCik3e1EtCgI/Q9dxJEdwkbt63h2rpGsVLSkxVO4Enj0eraFrscJ1JYGflARu0TJXcJDX8MzhQDXkx5k+3vrUYCLhoPRmRAm3B+3gRbVb2JSRsA8i9wpRaaD8gCyMNMKAdxyU3OgzmXADx4jGurX6kd6KaP1JbpnyVT2I8RZqwi7sBsh4fjrqrYDnc+zDnSM8zyZm2TVMYk1gsbGCo6gBSeSmbODXtqeGNWEFR+UaMOcShcP3r2XnF9RjimuCo7MOZuasHOcYgASD5zfDhCN4MaIG1L6D4aBhwlc4Shb5D4RgxEz9cKrgyK3ZRdC1AHKKBgA0T9+h1FMBdwX8Sa3kPf9uBQtH9DB/oQkWgokLEbo0PgUWoYKV0I1wd8z3zmm3kIg/RciP/wcURkKv+58UHg2HzP8PcDHR+Z5Jq4Ra2A24Woy6Q8qdfiSxWNF5nklNOAs4tHM0Sed5JrxoEPRTCc3wC7yi6RxPRSshCy9Uzj1XnkpYOrghLRL8qpyMT/v6zf+8vgFG80iK7km8qAAAAABJRU5ErkJggg==">
      <mxGeometry x="1138" y="778" width="94" height="25" as="geometry" />
    </mxCell>
    <mxCell id="node22" parent="1" vertex="1" value="UiBack" style="label;fontStyle=0;strokeColor=default;fillColor=none;align=left;verticalAlign=middle;overflow=hidden;spacingLeft=28;spacingRight=4;rotatable=0;points=[[0,0.5],[1,0.5]];portConstraint=eastwest;imageWidth=16;imageHeight=16;image=data:image/png,iVBORw0KGgoAAAANSUhEUgAAACAAAAAgCAYAAABzenr0AAACPklEQVR4Xu2WuUsDQRTG03hbe7USi9jZaGNjtNBokyjZFQUrG/GsbATvUtTOSm2DuyERBMH7qtIE2VWwEDz+Aa2s1vf2kNmXZNfsERD8YIqdnZnfN2/fvNlA4F+/VGZnvEwWuQlZ4Bay4mgdfe+rXhNDVQA/gabo7eU+GW+m43wRC7/bjymHW/2lM0Hhgz2tSrgjqKQ2S2AiH7yzrVltOSZSfD2d70pWcNZEelszIYn8El3DsX4DxxbtCik3e1EtCgI/Q9dxJEdwkbt63h2rpGsVLSkxVO4Enj0eraFrscJ1JYGflARu0TJXcJDX8MzhQDXkx5k+3vrUYCLhoPRmRAm3B+3gRbVb2JSRsA8i9wpRaaD8gCyMNMKAdxyU3OgzmXADx4jGurX6kd6KaP1JbpnyVT2I8RZqwi7sBsh4fjrqrYDnc+zDnSM8zyZm2TVMYk1gsbGCo6gBSeSmbODXtqeGNWEFR+UaMOcShcP3r2XnF9RjimuCo7MOZuasHOcYgASD5zfDhCN4MaIG1L6D4aBhwlc4Shb5D4RgxEz9cKrgyK3ZRdC1AHKKBgA0T9+h1FMBdwX8Sa3kPf9uBQtH9DB/oQkWgokLEbo0PgUWoYKV0I1wd8z3zmm3kIg/RciP/wcURkKv+58UHg2HzP8PcDHR+Z5Jq4Ra2A24Woy6Q8qdfiSxWNF5nklNOAs4tHM0Sed5JrxoEPRTCc3wC7yi6RxPRSshCy9Uzj1XnkpYOrghLRL8qpyMT/v6zf+8vgFG80iK7km8qAAAAABJRU5ErkJggg==">
      <mxGeometry x="577" y="1128" width="68" height="25" as="geometry" />
    </mxCell>
    <mxCell id="node36" parent="1" vertex="1" value="UiCart" style="label;fontStyle=0;strokeColor=default;fillColor=none;align=left;verticalAlign=middle;overflow=hidden;spacingLeft=28;spacingRight=4;rotatable=0;points=[[0,0.5],[1,0.5]];portConstraint=eastwest;imageWidth=16;imageHeight=16;image=data:image/png,iVBORw0KGgoAAAANSUhEUgAAACAAAAAgCAYAAABzenr0AAACPklEQVR4Xu2WuUsDQRTG03hbe7USi9jZaGNjtNBokyjZFQUrG/GsbATvUtTOSm2DuyERBMH7qtIE2VWwEDz+Aa2s1vf2kNmXZNfsERD8YIqdnZnfN2/fvNlA4F+/VGZnvEwWuQlZ4Bay4mgdfe+rXhNDVQA/gabo7eU+GW+m43wRC7/bjymHW/2lM0Hhgz2tSrgjqKQ2S2AiH7yzrVltOSZSfD2d70pWcNZEelszIYn8El3DsX4DxxbtCik3e1EtCgI/Q9dxJEdwkbt63h2rpGsVLSkxVO4Enj0eraFrscJ1JYGflARu0TJXcJDX8MzhQDXkx5k+3vrUYCLhoPRmRAm3B+3gRbVb2JSRsA8i9wpRaaD8gCyMNMKAdxyU3OgzmXADx4jGurX6kd6KaP1JbpnyVT2I8RZqwi7sBsh4fjrqrYDnc+zDnSM8zyZm2TVMYk1gsbGCo6gBSeSmbODXtqeGNWEFR+UaMOcShcP3r2XnF9RjimuCo7MOZuasHOcYgASD5zfDhCN4MaIG1L6D4aBhwlc4Shb5D4RgxEz9cKrgyK3ZRdC1AHKKBgA0T9+h1FMBdwX8Sa3kPf9uBQtH9DB/oQkWgokLEbo0PgUWoYKV0I1wd8z3zmm3kIg/RciP/wcURkKv+58UHg2HzP8PcDHR+Z5Jq4Ra2A24Woy6Q8qdfiSxWNF5nklNOAs4tHM0Sed5JrxoEPRTCc3wC7yi6RxPRSshCy9Uzj1XnkpYOrghLRL8qpyMT/v6zf+8vgFG80iK7km8qAAAAABJRU5ErkJggg==">
      <mxGeometry x="1240" y="1603" width="65" height="25" as="geometry" />
    </mxCell>
    <mxCell id="node24" parent="1" vertex="1" value="UiCartOrder" style="label;fontStyle=0;strokeColor=default;fillColor=none;align=left;verticalAlign=middle;overflow=hidden;spacingLeft=28;spacingRight=4;rotatable=0;points=[[0,0.5],[1,0.5]];portConstraint=eastwest;imageWidth=16;imageHeight=16;image=data:image/png,iVBORw0KGgoAAAANSUhEUgAAACAAAAAgCAYAAABzenr0AAACPklEQVR4Xu2WuUsDQRTG03hbe7USi9jZaGNjtNBokyjZFQUrG/GsbATvUtTOSm2DuyERBMH7qtIE2VWwEDz+Aa2s1vf2kNmXZNfsERD8YIqdnZnfN2/fvNlA4F+/VGZnvEwWuQlZ4Bay4mgdfe+rXhNDVQA/gabo7eU+GW+m43wRC7/bjymHW/2lM0Hhgz2tSrgjqKQ2S2AiH7yzrVltOSZSfD2d70pWcNZEelszIYn8El3DsX4DxxbtCik3e1EtCgI/Q9dxJEdwkbt63h2rpGsVLSkxVO4Enj0eraFrscJ1JYGflARu0TJXcJDX8MzhQDXkx5k+3vrUYCLhoPRmRAm3B+3gRbVb2JSRsA8i9wpRaaD8gCyMNMKAdxyU3OgzmXADx4jGurX6kd6KaP1JbpnyVT2I8RZqwi7sBsh4fjrqrYDnc+zDnSM8zyZm2TVMYk1gsbGCo6gBSeSmbODXtqeGNWEFR+UaMOcShcP3r2XnF9RjimuCo7MOZuasHOcYgASD5zfDhCN4MaIG1L6D4aBhwlc4Shb5D4RgxEz9cKrgyK3ZRdC1AHKKBgA0T9+h1FMBdwX8Sa3kPf9uBQtH9DB/oQkWgokLEbo0PgUWoYKV0I1wd8z3zmm3kIg/RciP/wcURkKv+58UHg2HzP8PcDHR+Z5Jq4Ra2A24Woy6Q8qdfiSxWNF5nklNOAs4tHM0Sed5JrxoEPRTCc3wC7yi6RxPRSshCy9Uzj1XnkpYOrghLRL8qpyMT/v6zf+8vgFG80iK7km8qAAAAABJRU5ErkJggg==">
      <mxGeometry x="1222" y="1678" width="101" height="25" as="geometry" />
    </mxCell>
    <mxCell id="node45" parent="1" vertex="1" value="UiCartProd" style="label;fontStyle=0;strokeColor=default;fillColor=none;align=left;verticalAlign=middle;overflow=hidden;spacingLeft=28;spacingRight=4;rotatable=0;points=[[0,0.5],[1,0.5]];portConstraint=eastwest;imageWidth=16;imageHeight=16;image=data:image/png,iVBORw0KGgoAAAANSUhEUgAAACAAAAAgCAYAAABzenr0AAACPklEQVR4Xu2WuUsDQRTG03hbe7USi9jZaGNjtNBokyjZFQUrG/GsbATvUtTOSm2DuyERBMH7qtIE2VWwEDz+Aa2s1vf2kNmXZNfsERD8YIqdnZnfN2/fvNlA4F+/VGZnvEwWuQlZ4Bay4mgdfe+rXhNDVQA/gabo7eU+GW+m43wRC7/bjymHW/2lM0Hhgz2tSrgjqKQ2S2AiH7yzrVltOSZSfD2d70pWcNZEelszIYn8El3DsX4DxxbtCik3e1EtCgI/Q9dxJEdwkbt63h2rpGsVLSkxVO4Enj0eraFrscJ1JYGflARu0TJXcJDX8MzhQDXkx5k+3vrUYCLhoPRmRAm3B+3gRbVb2JSRsA8i9wpRaaD8gCyMNMKAdxyU3OgzmXADx4jGurX6kd6KaP1JbpnyVT2I8RZqwi7sBsh4fjrqrYDnc+zDnSM8zyZm2TVMYk1gsbGCo6gBSeSmbODXtqeGNWEFR+UaMOcShcP3r2XnF9RjimuCo7MOZuasHOcYgASD5zfDhCN4MaIG1L6D4aBhwlc4Shb5D4RgxEz9cKrgyK3ZRdC1AHKKBgA0T9+h1FMBdwX8Sa3kPf9uBQtH9DB/oQkWgokLEbo0PgUWoYKV0I1wd8z3zmm3kIg/RciP/wcURkKv+58UHg2HzP8PcDHR+Z5Jq4Ra2A24Woy6Q8qdfiSxWNF5nklNOAs4tHM0Sed5JrxoEPRTCc3wC7yi6RxPRSshCy9Uzj1XnkpYOrghLRL8qpyMT/v6zf+8vgFG80iK7km8qAAAAABJRU5ErkJggg==">
      <mxGeometry x="1201" y="1728" width="94" height="25" as="geometry" />
    </mxCell>
    <mxCell id="node46" parent="1" vertex="1" value="UiCartRem" style="label;fontStyle=0;strokeColor=default;fillColor=none;align=left;verticalAlign=middle;overflow=hidden;spacingLeft=28;spacingRight=4;rotatable=0;points=[[0,0.5],[1,0.5]];portConstraint=eastwest;imageWidth=16;imageHeight=16;image=data:image/png,iVBORw0KGgoAAAANSUhEUgAAACAAAAAgCAYAAABzenr0AAACPklEQVR4Xu2WuUsDQRTG03hbe7USi9jZaGNjtNBokyjZFQUrG/GsbATvUtTOSm2DuyERBMH7qtIE2VWwEDz+Aa2s1vf2kNmXZNfsERD8YIqdnZnfN2/fvNlA4F+/VGZnvEwWuQlZ4Bay4mgdfe+rXhNDVQA/gabo7eU+GW+m43wRC7/bjymHW/2lM0Hhgz2tSrgjqKQ2S2AiH7yzrVltOSZSfD2d70pWcNZEelszIYn8El3DsX4DxxbtCik3e1EtCgI/Q9dxJEdwkbt63h2rpGsVLSkxVO4Enj0eraFrscJ1JYGflARu0TJXcJDX8MzhQDXkx5k+3vrUYCLhoPRmRAm3B+3gRbVb2JSRsA8i9wpRaaD8gCyMNMKAdxyU3OgzmXADx4jGurX6kd6KaP1JbpnyVT2I8RZqwi7sBsh4fjrqrYDnc+zDnSM8zyZm2TVMYk1gsbGCo6gBSeSmbODXtqeGNWEFR+UaMOcShcP3r2XnF9RjimuCo7MOZuasHOcYgASD5zfDhCN4MaIG1L6D4aBhwlc4Shb5D4RgxEz9cKrgyK3ZRdC1AHKKBgA0T9+h1FMBdwX8Sa3kPf9uBQtH9DB/oQkWgokLEbo0PgUWoYKV0I1wd8z3zmm3kIg/RciP/wcURkKv+58UHg2HzP8PcDHR+Z5Jq4Ra2A24Woy6Q8qdfiSxWNF5nklNOAs4tHM0Sed5JrxoEPRTCc3wC7yi6RxPRSshCy9Uzj1XnkpYOrghLRL8qpyMT/v6zf+8vgFG80iK7km8qAAAAABJRU5ErkJggg==">
      <mxGeometry x="1202" y="1803" width="92" height="25" as="geometry" />
    </mxCell>
    <mxCell id="node30" parent="1" vertex="1" value="UiCatalog" style="label;fontStyle=0;strokeColor=default;fillColor=none;align=left;verticalAlign=middle;overflow=hidden;spacingLeft=28;spacingRight=4;rotatable=0;points=[[0,0.5],[1,0.5]];portConstraint=eastwest;imageWidth=16;imageHeight=16;image=data:image/png,iVBORw0KGgoAAAANSUhEUgAAACAAAAAgCAYAAABzenr0AAACPklEQVR4Xu2WuUsDQRTG03hbe7USi9jZaGNjtNBokyjZFQUrG/GsbATvUtTOSm2DuyERBMH7qtIE2VWwEDz+Aa2s1vf2kNmXZNfsERD8YIqdnZnfN2/fvNlA4F+/VGZnvEwWuQlZ4Bay4mgdfe+rXhNDVQA/gabo7eU+GW+m43wRC7/bjymHW/2lM0Hhgz2tSrgjqKQ2S2AiH7yzrVltOSZSfD2d70pWcNZEelszIYn8El3DsX4DxxbtCik3e1EtCgI/Q9dxJEdwkbt63h2rpGsVLSkxVO4Enj0eraFrscJ1JYGflARu0TJXcJDX8MzhQDXkx5k+3vrUYCLhoPRmRAm3B+3gRbVb2JSRsA8i9wpRaaD8gCyMNMKAdxyU3OgzmXADx4jGurX6kd6KaP1JbpnyVT2I8RZqwi7sBsh4fjrqrYDnc+zDnSM8zyZm2TVMYk1gsbGCo6gBSeSmbODXtqeGNWEFR+UaMOcShcP3r2XnF9RjimuCo7MOZuasHOcYgASD5zfDhCN4MaIG1L6D4aBhwlc4Shb5D4RgxEz9cKrgyK3ZRdC1AHKKBgA0T9+h1FMBdwX8Sa3kPf9uBQtH9DB/oQkWgokLEbo0PgUWoYKV0I1wd8z3zmm3kIg/RciP/wcURkKv+58UHg2HzP8PcDHR+Z5Jq4Ra2A24Woy6Q8qdfiSxWNF5nklNOAs4tHM0Sed5JrxoEPRTCc3wC7yi6RxPRSshCy9Uzj1XnkpYOrghLRL8qpyMT/v6zf+8vgFG80iK7km8qAAAAABJRU5ErkJggg==">
      <mxGeometry x="1736" y="1353" width="86" height="25" as="geometry" />
    </mxCell>
    <mxCell id="node41" parent="1" vertex="1" value="UiCatalogProd" style="label;fontStyle=0;strokeColor=default;fillColor=none;align=left;verticalAlign=middle;overflow=hidden;spacingLeft=28;spacingRight=4;rotatable=0;points=[[0,0.5],[1,0.5]];portConstraint=eastwest;imageWidth=16;imageHeight=16;image=data:image/png,iVBORw0KGgoAAAANSUhEUgAAACAAAAAgCAYAAABzenr0AAACPklEQVR4Xu2WuUsDQRTG03hbe7USi9jZaGNjtNBokyjZFQUrG/GsbATvUtTOSm2DuyERBMH7qtIE2VWwEDz+Aa2s1vf2kNmXZNfsERD8YIqdnZnfN2/fvNlA4F+/VGZnvEwWuQlZ4Bay4mgdfe+rXhNDVQA/gabo7eU+GW+m43wRC7/bjymHW/2lM0Hhgz2tSrgjqKQ2S2AiH7yzrVltOSZSfD2d70pWcNZEelszIYn8El3DsX4DxxbtCik3e1EtCgI/Q9dxJEdwkbt63h2rpGsVLSkxVO4Enj0eraFrscJ1JYGflARu0TJXcJDX8MzhQDXkx5k+3vrUYCLhoPRmRAm3B+3gRbVb2JSRsA8i9wpRaaD8gCyMNMKAdxyU3OgzmXADx4jGurX6kd6KaP1JbpnyVT2I8RZqwi7sBsh4fjrqrYDnc+zDnSM8zyZm2TVMYk1gsbGCo6gBSeSmbODXtqeGNWEFR+UaMOcShcP3r2XnF9RjimuCo7MOZuasHOcYgASD5zfDhCN4MaIG1L6D4aBhwlc4Shb5D4RgxEz9cKrgyK3ZRdC1AHKKBgA0T9+h1FMBdwX8Sa3kPf9uBQtH9DB/oQkWgokLEbo0PgUWoYKV0I1wd8z3zmm3kIg/RciP/wcURkKv+58UHg2HzP8PcDHR+Z5Jq4Ra2A24Woy6Q8qdfiSxWNF5nklNOAs4tHM0Sed5JrxoEPRTCc3wC7yi6RxPRSshCy9Uzj1XnkpYOrghLRL8qpyMT/v6zf+8vgFG80iK7km8qAAAAABJRU5ErkJggg==">
      <mxGeometry x="1746" y="1228" width="115" height="25" as="geometry" />
    </mxCell>
    <mxCell id="node38" parent="1" vertex="1" value="UiChangeLang" style="label;fontStyle=0;strokeColor=default;fillColor=none;align=left;verticalAlign=middle;overflow=hidden;spacingLeft=28;spacingRight=4;rotatable=0;points=[[0,0.5],[1,0.5]];portConstraint=eastwest;imageWidth=16;imageHeight=16;image=data:image/png,iVBORw0KGgoAAAANSUhEUgAAACAAAAAgCAYAAABzenr0AAACPklEQVR4Xu2WuUsDQRTG03hbe7USi9jZaGNjtNBokyjZFQUrG/GsbATvUtTOSm2DuyERBMH7qtIE2VWwEDz+Aa2s1vf2kNmXZNfsERD8YIqdnZnfN2/fvNlA4F+/VGZnvEwWuQlZ4Bay4mgdfe+rXhNDVQA/gabo7eU+GW+m43wRC7/bjymHW/2lM0Hhgz2tSrgjqKQ2S2AiH7yzrVltOSZSfD2d70pWcNZEelszIYn8El3DsX4DxxbtCik3e1EtCgI/Q9dxJEdwkbt63h2rpGsVLSkxVO4Enj0eraFrscJ1JYGflARu0TJXcJDX8MzhQDXkx5k+3vrUYCLhoPRmRAm3B+3gRbVb2JSRsA8i9wpRaaD8gCyMNMKAdxyU3OgzmXADx4jGurX6kd6KaP1JbpnyVT2I8RZqwi7sBsh4fjrqrYDnc+zDnSM8zyZm2TVMYk1gsbGCo6gBSeSmbODXtqeGNWEFR+UaMOcShcP3r2XnF9RjimuCo7MOZuasHOcYgASD5zfDhCN4MaIG1L6D4aBhwlc4Shb5D4RgxEz9cKrgyK3ZRdC1AHKKBgA0T9+h1FMBdwX8Sa3kPf9uBQtH9DB/oQkWgokLEbo0PgUWoYKV0I1wd8z3zmm3kIg/RciP/wcURkKv+58UHg2HzP8PcDHR+Z5Jq4Ra2A24Woy6Q8qdfiSxWNF5nklNOAs4tHM0Sed5JrxoEPRTCc3wC7yi6RxPRSshCy9Uzj1XnkpYOrghLRL8qpyMT/v6zf+8vgFG80iK7km8qAAAAABJRU5ErkJggg==">
      <mxGeometry x="577" y="1028" width="117" height="25" as="geometry" />
    </mxCell>
    <mxCell id="node18" parent="1" vertex="1" value="UiChangeUser" style="label;fontStyle=0;strokeColor=default;fillColor=none;align=left;verticalAlign=middle;overflow=hidden;spacingLeft=28;spacingRight=4;rotatable=0;points=[[0,0.5],[1,0.5]];portConstraint=eastwest;imageWidth=16;imageHeight=16;image=data:image/png,iVBORw0KGgoAAAANSUhEUgAAACAAAAAgCAYAAABzenr0AAACPklEQVR4Xu2WuUsDQRTG03hbe7USi9jZaGNjtNBokyjZFQUrG/GsbATvUtTOSm2DuyERBMH7qtIE2VWwEDz+Aa2s1vf2kNmXZNfsERD8YIqdnZnfN2/fvNlA4F+/VGZnvEwWuQlZ4Bay4mgdfe+rXhNDVQA/gabo7eU+GW+m43wRC7/bjymHW/2lM0Hhgz2tSrgjqKQ2S2AiH7yzrVltOSZSfD2d70pWcNZEelszIYn8El3DsX4DxxbtCik3e1EtCgI/Q9dxJEdwkbt63h2rpGsVLSkxVO4Enj0eraFrscJ1JYGflARu0TJXcJDX8MzhQDXkx5k+3vrUYCLhoPRmRAm3B+3gRbVb2JSRsA8i9wpRaaD8gCyMNMKAdxyU3OgzmXADx4jGurX6kd6KaP1JbpnyVT2I8RZqwi7sBsh4fjrqrYDnc+zDnSM8zyZm2TVMYk1gsbGCo6gBSeSmbODXtqeGNWEFR+UaMOcShcP3r2XnF9RjimuCo7MOZuasHOcYgASD5zfDhCN4MaIG1L6D4aBhwlc4Shb5D4RgxEz9cKrgyK3ZRdC1AHKKBgA0T9+h1FMBdwX8Sa3kPf9uBQtH9DB/oQkWgokLEbo0PgUWoYKV0I1wd8z3zmm3kIg/RciP/wcURkKv+58UHg2HzP8PcDHR+Z5Jq4Ra2A24Woy6Q8qdfiSxWNF5nklNOAs4tHM0Sed5JrxoEPRTCc3wC7yi6RxPRSshCy9Uzj1XnkpYOrghLRL8qpyMT/v6zf+8vgFG80iK7km8qAAAAABJRU5ErkJggg==">
      <mxGeometry x="1251" y="628" width="117" height="25" as="geometry" />
    </mxCell>
    <mxCell id="node34" parent="1" vertex="1" value="UiEditProd" style="label;fontStyle=0;strokeColor=default;fillColor=none;align=left;verticalAlign=middle;overflow=hidden;spacingLeft=28;spacingRight=4;rotatable=0;points=[[0,0.5],[1,0.5]];portConstraint=eastwest;imageWidth=16;imageHeight=16;image=data:image/png,iVBORw0KGgoAAAANSUhEUgAAACAAAAAgCAYAAABzenr0AAACPklEQVR4Xu2WuUsDQRTG03hbe7USi9jZaGNjtNBokyjZFQUrG/GsbATvUtTOSm2DuyERBMH7qtIE2VWwEDz+Aa2s1vf2kNmXZNfsERD8YIqdnZnfN2/fvNlA4F+/VGZnvEwWuQlZ4Bay4mgdfe+rXhNDVQA/gabo7eU+GW+m43wRC7/bjymHW/2lM0Hhgz2tSrgjqKQ2S2AiH7yzrVltOSZSfD2d70pWcNZEelszIYn8El3DsX4DxxbtCik3e1EtCgI/Q9dxJEdwkbt63h2rpGsVLSkxVO4Enj0eraFrscJ1JYGflARu0TJXcJDX8MzhQDXkx5k+3vrUYCLhoPRmRAm3B+3gRbVb2JSRsA8i9wpRaaD8gCyMNMKAdxyU3OgzmXADx4jGurX6kd6KaP1JbpnyVT2I8RZqwi7sBsh4fjrqrYDnc+zDnSM8zyZm2TVMYk1gsbGCo6gBSeSmbODXtqeGNWEFR+UaMOcShcP3r2XnF9RjimuCo7MOZuasHOcYgASD5zfDhCN4MaIG1L6D4aBhwlc4Shb5D4RgxEz9cKrgyK3ZRdC1AHKKBgA0T9+h1FMBdwX8Sa3kPf9uBQtH9DB/oQkWgokLEbo0PgUWoYKV0I1wd8z3zmm3kIg/RciP/wcURkKv+58UHg2HzP8PcDHR+Z5Jq4Ra2A24Woy6Q8qdfiSxWNF5nklNOAs4tHM0Sed5JrxoEPRTCc3wC7yi6RxPRSshCy9Uzj1XnkpYOrghLRL8qpyMT/v6zf+8vgFG80iK7km8qAAAAABJRU5ErkJggg==">
      <mxGeometry x="1758" y="1303" width="92" height="25" as="geometry" />
    </mxCell>
    <mxCell id="node31" parent="1" vertex="1" value="UiExit" style="label;fontStyle=0;strokeColor=default;fillColor=none;align=left;verticalAlign=middle;overflow=hidden;spacingLeft=28;spacingRight=4;rotatable=0;points=[[0,0.5],[1,0.5]];portConstraint=eastwest;imageWidth=16;imageHeight=16;image=data:image/png,iVBORw0KGgoAAAANSUhEUgAAACAAAAAgCAYAAABzenr0AAACPklEQVR4Xu2WuUsDQRTG03hbe7USi9jZaGNjtNBokyjZFQUrG/GsbATvUtTOSm2DuyERBMH7qtIE2VWwEDz+Aa2s1vf2kNmXZNfsERD8YIqdnZnfN2/fvNlA4F+/VGZnvEwWuQlZ4Bay4mgdfe+rXhNDVQA/gabo7eU+GW+m43wRC7/bjymHW/2lM0Hhgz2tSrgjqKQ2S2AiH7yzrVltOSZSfD2d70pWcNZEelszIYn8El3DsX4DxxbtCik3e1EtCgI/Q9dxJEdwkbt63h2rpGsVLSkxVO4Enj0eraFrscJ1JYGflARu0TJXcJDX8MzhQDXkx5k+3vrUYCLhoPRmRAm3B+3gRbVb2JSRsA8i9wpRaaD8gCyMNMKAdxyU3OgzmXADx4jGurX6kd6KaP1JbpnyVT2I8RZqwi7sBsh4fjrqrYDnc+zDnSM8zyZm2TVMYk1gsbGCo6gBSeSmbODXtqeGNWEFR+UaMOcShcP3r2XnF9RjimuCo7MOZuasHOcYgASD5zfDhCN4MaIG1L6D4aBhwlc4Shb5D4RgxEz9cKrgyK3ZRdC1AHKKBgA0T9+h1FMBdwX8Sa3kPf9uBQtH9DB/oQkWgokLEbo0PgUWoYKV0I1wd8z3zmm3kIg/RciP/wcURkKv+58UHg2HzP8PcDHR+Z5Jq4Ra2A24Woy6Q8qdfiSxWNF5nklNOAs4tHM0Sed5JrxoEPRTCc3wC7yi6RxPRSshCy9Uzj1XnkpYOrghLRL8qpyMT/v6zf+8vgFG80iK7km8qAAAAABJRU5ErkJggg==">
      <mxGeometry x="580" y="1078" width="62" height="25" as="geometry" />
    </mxCell>
    <mxCell id="node39" parent="1" vertex="1" value="UiHelper" style="label;fontStyle=0;strokeColor=default;fillColor=none;align=left;verticalAlign=middle;overflow=hidden;spacingLeft=28;spacingRight=4;rotatable=0;points=[[0,0.5],[1,0.5]];portConstraint=eastwest;imageWidth=16;imageHeight=16;image=data:image/png,iVBORw0KGgoAAAANSUhEUgAAACAAAAAgCAYAAABzenr0AAACPklEQVR4Xu2WuUsDQRTG03hbe7USi9jZaGNjtNBokyjZFQUrG/GsbATvUtTOSm2DuyERBMH7qtIE2VWwEDz+Aa2s1vf2kNmXZNfsERD8YIqdnZnfN2/fvNlA4F+/VGZnvEwWuQlZ4Bay4mgdfe+rXhNDVQA/gabo7eU+GW+m43wRC7/bjymHW/2lM0Hhgz2tSrgjqKQ2S2AiH7yzrVltOSZSfD2d70pWcNZEelszIYn8El3DsX4DxxbtCik3e1EtCgI/Q9dxJEdwkbt63h2rpGsVLSkxVO4Enj0eraFrscJ1JYGflARu0TJXcJDX8MzhQDXkx5k+3vrUYCLhoPRmRAm3B+3gRbVb2JSRsA8i9wpRaaD8gCyMNMKAdxyU3OgzmXADx4jGurX6kd6KaP1JbpnyVT2I8RZqwi7sBsh4fjrqrYDnc+zDnSM8zyZm2TVMYk1gsbGCo6gBSeSmbODXtqeGNWEFR+UaMOcShcP3r2XnF9RjimuCo7MOZuasHOcYgASD5zfDhCN4MaIG1L6D4aBhwlc4Shb5D4RgxEz9cKrgyK3ZRdC1AHKKBgA0T9+h1FMBdwX8Sa3kPf9uBQtH9DB/oQkWgokLEbo0PgUWoYKV0I1wd8z3zmm3kIg/RciP/wcURkKv+58UHg2HzP8PcDHR+Z5Jq4Ra2A24Woy6Q8qdfiSxWNF5nklNOAs4tHM0Sed5JrxoEPRTCc3wC7yi6RxPRSshCy9Uzj1XnkpYOrghLRL8qpyMT/v6zf+8vgFG80iK7km8qAAAAABJRU5ErkJggg==">
      <mxGeometry x="1621" y="718" width="81" height="25" as="geometry" />
    </mxCell>
    <mxCell id="node4" parent="1" vertex="1" value="UiItem" style="label;fontStyle=0;strokeColor=default;fillColor=none;align=left;verticalAlign=middle;overflow=hidden;spacingLeft=28;spacingRight=4;rotatable=0;points=[[0,0.5],[1,0.5]];portConstraint=eastwest;imageWidth=16;imageHeight=16;image=data:image/png,iVBORw0KGgoAAAANSUhEUgAAACAAAAAgCAYAAABzenr0AAACPklEQVR4Xu2WuUsDQRTG03hbe7USi9jZaGNjtNBokyjZFQUrG/GsbATvUtTOSm2DuyERBMH7qtIE2VWwEDz+Aa2s1vf2kNmXZNfsERD8YIqdnZnfN2/fvNlA4F+/VGZnvEwWuQlZ4Bay4mgdfe+rXhNDVQA/gabo7eU+GW+m43wRC7/bjymHW/2lM0Hhgz2tSrgjqKQ2S2AiH7yzrVltOSZSfD2d70pWcNZEelszIYn8El3DsX4DxxbtCik3e1EtCgI/Q9dxJEdwkbt63h2rpGsVLSkxVO4Enj0eraFrscJ1JYGflARu0TJXcJDX8MzhQDXkx5k+3vrUYCLhoPRmRAm3B+3gRbVb2JSRsA8i9wpRaaD8gCyMNMKAdxyU3OgzmXADx4jGurX6kd6KaP1JbpnyVT2I8RZqwi7sBsh4fjrqrYDnc+zDnSM8zyZm2TVMYk1gsbGCo6gBSeSmbODXtqeGNWEFR+UaMOcShcP3r2XnF9RjimuCo7MOZuasHOcYgASD5zfDhCN4MaIG1L6D4aBhwlc4Shb5D4RgxEz9cKrgyK3ZRdC1AHKKBgA0T9+h1FMBdwX8Sa3kPf9uBQtH9DB/oQkWgokLEbo0PgUWoYKV0I1wd8z3zmm3kIg/RciP/wcURkKv+58UHg2HzP8PcDHR+Z5Jq4Ra2A24Woy6Q8qdfiSxWNF5nklNOAs4tHM0Sed5JrxoEPRTCc3wC7yi6RxPRSshCy9Uzj1XnkpYOrghLRL8qpyMT/v6zf+8vgFG80iK7km8qAAAAABJRU5ErkJggg==">
      <mxGeometry x="1279" y="1318" width="66" height="25" as="geometry" />
    </mxCell>
    <mxCell id="node0" parent="1" vertex="1" value="UiLoginLogout" style="label;fontStyle=0;strokeColor=default;fillColor=none;align=left;verticalAlign=middle;overflow=hidden;spacingLeft=28;spacingRight=4;rotatable=0;points=[[0,0.5],[1,0.5]];portConstraint=eastwest;imageWidth=16;imageHeight=16;image=data:image/png,iVBORw0KGgoAAAANSUhEUgAAACAAAAAgCAYAAABzenr0AAACPklEQVR4Xu2WuUsDQRTG03hbe7USi9jZaGNjtNBokyjZFQUrG/GsbATvUtTOSm2DuyERBMH7qtIE2VWwEDz+Aa2s1vf2kNmXZNfsERD8YIqdnZnfN2/fvNlA4F+/VGZnvEwWuQlZ4Bay4mgdfe+rXhNDVQA/gabo7eU+GW+m43wRC7/bjymHW/2lM0Hhgz2tSrgjqKQ2S2AiH7yzrVltOSZSfD2d70pWcNZEelszIYn8El3DsX4DxxbtCik3e1EtCgI/Q9dxJEdwkbt63h2rpGsVLSkxVO4Enj0eraFrscJ1JYGflARu0TJXcJDX8MzhQDXkx5k+3vrUYCLhoPRmRAm3B+3gRbVb2JSRsA8i9wpRaaD8gCyMNMKAdxyU3OgzmXADx4jGurX6kd6KaP1JbpnyVT2I8RZqwi7sBsh4fjrqrYDnc+zDnSM8zyZm2TVMYk1gsbGCo6gBSeSmbODXtqeGNWEFR+UaMOcShcP3r2XnF9RjimuCo7MOZuasHOcYgASD5zfDhCN4MaIG1L6D4aBhwlc4Shb5D4RgxEz9cKrgyK3ZRdC1AHKKBgA0T9+h1FMBdwX8Sa3kPf9uBQtH9DB/oQkWgokLEbo0PgUWoYKV0I1wd8z3zmm3kIg/RciP/wcURkKv+58UHg2HzP8PcDHR+Z5Jq4Ra2A24Woy6Q8qdfiSxWNF5nklNOAs4tHM0Sed5JrxoEPRTCc3wC7yi6RxPRSshCy9Uzj1XnkpYOrghLRL8qpyMT/v6zf+8vgFG80iK7km8qAAAAABJRU5ErkJggg==">
      <mxGeometry x="1151" y="828" width="117" height="25" as="geometry" />
    </mxCell>
    <mxCell id="node3" parent="1" vertex="1" value="UiOrder" style="label;fontStyle=0;strokeColor=default;fillColor=none;align=left;verticalAlign=middle;overflow=hidden;spacingLeft=28;spacingRight=4;rotatable=0;points=[[0,0.5],[1,0.5]];portConstraint=eastwest;imageWidth=16;imageHeight=16;image=data:image/png,iVBORw0KGgoAAAANSUhEUgAAACAAAAAgCAYAAABzenr0AAACPklEQVR4Xu2WuUsDQRTG03hbe7USi9jZaGNjtNBokyjZFQUrG/GsbATvUtTOSm2DuyERBMH7qtIE2VWwEDz+Aa2s1vf2kNmXZNfsERD8YIqdnZnfN2/fvNlA4F+/VGZnvEwWuQlZ4Bay4mgdfe+rXhNDVQA/gabo7eU+GW+m43wRC7/bjymHW/2lM0Hhgz2tSrgjqKQ2S2AiH7yzrVltOSZSfD2d70pWcNZEelszIYn8El3DsX4DxxbtCik3e1EtCgI/Q9dxJEdwkbt63h2rpGsVLSkxVO4Enj0eraFrscJ1JYGflARu0TJXcJDX8MzhQDXkx5k+3vrUYCLhoPRmRAm3B+3gRbVb2JSRsA8i9wpRaaD8gCyMNMKAdxyU3OgzmXADx4jGurX6kd6KaP1JbpnyVT2I8RZqwi7sBsh4fjrqrYDnc+zDnSM8zyZm2TVMYk1gsbGCo6gBSeSmbODXtqeGNWEFR+UaMOcShcP3r2XnF9RjimuCo7MOZuasHOcYgASD5zfDhCN4MaIG1L6D4aBhwlc4Shb5D4RgxEz9cKrgyK3ZRdC1AHKKBgA0T9+h1FMBdwX8Sa3kPf9uBQtH9DB/oQkWgokLEbo0PgUWoYKV0I1wd8z3zmm3kIg/RciP/wcURkKv+58UHg2HzP8PcDHR+Z5Jq4Ra2A24Woy6Q8qdfiSxWNF5nklNOAs4tHM0Sed5JrxoEPRTCc3wC7yi6RxPRSshCy9Uzj1XnkpYOrghLRL8qpyMT/v6zf+8vgFG80iK7km8qAAAAABJRU5ErkJggg==">
      <mxGeometry x="926" y="1266" width="75" height="25" as="geometry" />
    </mxCell>
    <mxCell id="node21" parent="1" vertex="1" value="UiOrderAccept" style="label;fontStyle=0;strokeColor=default;fillColor=none;align=left;verticalAlign=middle;overflow=hidden;spacingLeft=28;spacingRight=4;rotatable=0;points=[[0,0.5],[1,0.5]];portConstraint=eastwest;imageWidth=16;imageHeight=16;image=data:image/png,iVBORw0KGgoAAAANSUhEUgAAACAAAAAgCAYAAABzenr0AAACPklEQVR4Xu2WuUsDQRTG03hbe7USi9jZaGNjtNBokyjZFQUrG/GsbATvUtTOSm2DuyERBMH7qtIE2VWwEDz+Aa2s1vf2kNmXZNfsERD8YIqdnZnfN2/fvNlA4F+/VGZnvEwWuQlZ4Bay4mgdfe+rXhNDVQA/gabo7eU+GW+m43wRC7/bjymHW/2lM0Hhgz2tSrgjqKQ2S2AiH7yzrVltOSZSfD2d70pWcNZEelszIYn8El3DsX4DxxbtCik3e1EtCgI/Q9dxJEdwkbt63h2rpGsVLSkxVO4Enj0eraFrscJ1JYGflARu0TJXcJDX8MzhQDXkx5k+3vrUYCLhoPRmRAm3B+3gRbVb2JSRsA8i9wpRaaD8gCyMNMKAdxyU3OgzmXADx4jGurX6kd6KaP1JbpnyVT2I8RZqwi7sBsh4fjrqrYDnc+zDnSM8zyZm2TVMYk1gsbGCo6gBSeSmbODXtqeGNWEFR+UaMOcShcP3r2XnF9RjimuCo7MOZuasHOcYgASD5zfDhCN4MaIG1L6D4aBhwlc4Shb5D4RgxEz9cKrgyK3ZRdC1AHKKBgA0T9+h1FMBdwX8Sa3kPf9uBQtH9DB/oQkWgokLEbo0PgUWoYKV0I1wd8z3zmm3kIg/RciP/wcURkKv+58UHg2HzP8PcDHR+Z5Jq4Ra2A24Woy6Q8qdfiSxWNF5nklNOAs4tHM0Sed5JrxoEPRTCc3wC7yi6RxPRSshCy9Uzj1XnkpYOrghLRL8qpyMT/v6zf+8vgFG80iK7km8qAAAAABJRU5ErkJggg==">
      <mxGeometry x="1054" y="1266" width="119" height="25" as="geometry" />
    </mxCell>
    <mxCell id="node40" parent="1" vertex="1" value="UiOrderReject" style="label;fontStyle=0;strokeColor=default;fillColor=none;align=left;verticalAlign=middle;overflow=hidden;spacingLeft=28;spacingRight=4;rotatable=0;points=[[0,0.5],[1,0.5]];portConstraint=eastwest;imageWidth=16;imageHeight=16;image=data:image/png,iVBORw0KGgoAAAANSUhEUgAAACAAAAAgCAYAAABzenr0AAACPklEQVR4Xu2WuUsDQRTG03hbe7USi9jZaGNjtNBokyjZFQUrG/GsbATvUtTOSm2DuyERBMH7qtIE2VWwEDz+Aa2s1vf2kNmXZNfsERD8YIqdnZnfN2/fvNlA4F+/VGZnvEwWuQlZ4Bay4mgdfe+rXhNDVQA/gabo7eU+GW+m43wRC7/bjymHW/2lM0Hhgz2tSrgjqKQ2S2AiH7yzrVltOSZSfD2d70pWcNZEelszIYn8El3DsX4DxxbtCik3e1EtCgI/Q9dxJEdwkbt63h2rpGsVLSkxVO4Enj0eraFrscJ1JYGflARu0TJXcJDX8MzhQDXkx5k+3vrUYCLhoPRmRAm3B+3gRbVb2JSRsA8i9wpRaaD8gCyMNMKAdxyU3OgzmXADx4jGurX6kd6KaP1JbpnyVT2I8RZqwi7sBsh4fjrqrYDnc+zDnSM8zyZm2TVMYk1gsbGCo6gBSeSmbODXtqeGNWEFR+UaMOcShcP3r2XnF9RjimuCo7MOZuasHOcYgASD5zfDhCN4MaIG1L6D4aBhwlc4Shb5D4RgxEz9cKrgyK3ZRdC1AHKKBgA0T9+h1FMBdwX8Sa3kPf9uBQtH9DB/oQkWgokLEbo0PgUWoYKV0I1wd8z3zmm3kIg/RciP/wcURkKv+58UHg2HzP8PcDHR+Z5Jq4Ra2A24Woy6Q8qdfiSxWNF5nklNOAs4tHM0Sed5JrxoEPRTCc3wC7yi6RxPRSshCy9Uzj1XnkpYOrghLRL8qpyMT/v6zf+8vgFG80iK7km8qAAAAABJRU5ErkJggg==">
      <mxGeometry x="907" y="1341" width="114" height="25" as="geometry" />
    </mxCell>
    <mxCell id="node1" parent="1" vertex="1" value="UiOrders" style="label;fontStyle=0;strokeColor=default;fillColor=none;align=left;verticalAlign=middle;overflow=hidden;spacingLeft=28;spacingRight=4;rotatable=0;points=[[0,0.5],[1,0.5]];portConstraint=eastwest;imageWidth=16;imageHeight=16;image=data:image/png,iVBORw0KGgoAAAANSUhEUgAAACAAAAAgCAYAAABzenr0AAACPklEQVR4Xu2WuUsDQRTG03hbe7USi9jZaGNjtNBokyjZFQUrG/GsbATvUtTOSm2DuyERBMH7qtIE2VWwEDz+Aa2s1vf2kNmXZNfsERD8YIqdnZnfN2/fvNlA4F+/VGZnvEwWuQlZ4Bay4mgdfe+rXhNDVQA/gabo7eU+GW+m43wRC7/bjymHW/2lM0Hhgz2tSrgjqKQ2S2AiH7yzrVltOSZSfD2d70pWcNZEelszIYn8El3DsX4DxxbtCik3e1EtCgI/Q9dxJEdwkbt63h2rpGsVLSkxVO4Enj0eraFrscJ1JYGflARu0TJXcJDX8MzhQDXkx5k+3vrUYCLhoPRmRAm3B+3gRbVb2JSRsA8i9wpRaaD8gCyMNMKAdxyU3OgzmXADx4jGurX6kd6KaP1JbpnyVT2I8RZqwi7sBsh4fjrqrYDnc+zDnSM8zyZm2TVMYk1gsbGCo6gBSeSmbODXtqeGNWEFR+UaMOcShcP3r2XnF9RjimuCo7MOZuasHOcYgASD5zfDhCN4MaIG1L6D4aBhwlc4Shb5D4RgxEz9cKrgyK3ZRdC1AHKKBgA0T9+h1FMBdwX8Sa3kPf9uBQtH9DB/oQkWgokLEbo0PgUWoYKV0I1wd8z3zmm3kIg/RciP/wcURkKv+58UHg2HzP8PcDHR+Z5Jq4Ra2A24Woy6Q8qdfiSxWNF5nklNOAs4tHM0Sed5JrxoEPRTCc3wC7yi6RxPRSshCy9Uzj1XnkpYOrghLRL8qpyMT/v6zf+8vgFG80iK7km8qAAAAABJRU5ErkJggg==">
      <mxGeometry x="898" y="1391" width="82" height="25" as="geometry" />
    </mxCell>
    <mxCell id="node17" parent="1" vertex="1" value="UiRemProd" style="label;fontStyle=0;strokeColor=default;fillColor=none;align=left;verticalAlign=middle;overflow=hidden;spacingLeft=28;spacingRight=4;rotatable=0;points=[[0,0.5],[1,0.5]];portConstraint=eastwest;imageWidth=16;imageHeight=16;image=data:image/png,iVBORw0KGgoAAAANSUhEUgAAACAAAAAgCAYAAABzenr0AAACPklEQVR4Xu2WuUsDQRTG03hbe7USi9jZaGNjtNBokyjZFQUrG/GsbATvUtTOSm2DuyERBMH7qtIE2VWwEDz+Aa2s1vf2kNmXZNfsERD8YIqdnZnfN2/fvNlA4F+/VGZnvEwWuQlZ4Bay4mgdfe+rXhNDVQA/gabo7eU+GW+m43wRC7/bjymHW/2lM0Hhgz2tSrgjqKQ2S2AiH7yzrVltOSZSfD2d70pWcNZEelszIYn8El3DsX4DxxbtCik3e1EtCgI/Q9dxJEdwkbt63h2rpGsVLSkxVO4Enj0eraFrscJ1JYGflARu0TJXcJDX8MzhQDXkx5k+3vrUYCLhoPRmRAm3B+3gRbVb2JSRsA8i9wpRaaD8gCyMNMKAdxyU3OgzmXADx4jGurX6kd6KaP1JbpnyVT2I8RZqwi7sBsh4fjrqrYDnc+zDnSM8zyZm2TVMYk1gsbGCo6gBSeSmbODXtqeGNWEFR+UaMOcShcP3r2XnF9RjimuCo7MOZuasHOcYgASD5zfDhCN4MaIG1L6D4aBhwlc4Shb5D4RgxEz9cKrgyK3ZRdC1AHKKBgA0T9+h1FMBdwX8Sa3kPf9uBQtH9DB/oQkWgokLEbo0PgUWoYKV0I1wd8z3zmm3kIg/RciP/wcURkKv+58UHg2HzP8PcDHR+Z5Jq4Ra2A24Woy6Q8qdfiSxWNF5nklNOAs4tHM0Sed5JrxoEPRTCc3wC7yi6RxPRSshCy9Uzj1XnkpYOrghLRL8qpyMT/v6zf+8vgFG80iK7km8qAAAAABJRU5ErkJggg==">
      <mxGeometry x="1325" y="1728" width="95" height="25" as="geometry" />
    </mxCell>
    <mxCell id="node19" parent="1" vertex="1" value="UiRemUser" style="label;fontStyle=0;strokeColor=default;fillColor=none;align=left;verticalAlign=middle;overflow=hidden;spacingLeft=28;spacingRight=4;rotatable=0;points=[[0,0.5],[1,0.5]];portConstraint=eastwest;imageWidth=16;imageHeight=16;image=data:image/png,iVBORw0KGgoAAAANSUhEUgAAACAAAAAgCAYAAABzenr0AAACPklEQVR4Xu2WuUsDQRTG03hbe7USi9jZaGNjtNBokyjZFQUrG/GsbATvUtTOSm2DuyERBMH7qtIE2VWwEDz+Aa2s1vf2kNmXZNfsERD8YIqdnZnfN2/fvNlA4F+/VGZnvEwWuQlZ4Bay4mgdfe+rXhNDVQA/gabo7eU+GW+m43wRC7/bjymHW/2lM0Hhgz2tSrgjqKQ2S2AiH7yzrVltOSZSfD2d70pWcNZEelszIYn8El3DsX4DxxbtCik3e1EtCgI/Q9dxJEdwkbt63h2rpGsVLSkxVO4Enj0eraFrscJ1JYGflARu0TJXcJDX8MzhQDXkx5k+3vrUYCLhoPRmRAm3B+3gRbVb2JSRsA8i9wpRaaD8gCyMNMKAdxyU3OgzmXADx4jGurX6kd6KaP1JbpnyVT2I8RZqwi7sBsh4fjrqrYDnc+zDnSM8zyZm2TVMYk1gsbGCo6gBSeSmbODXtqeGNWEFR+UaMOcShcP3r2XnF9RjimuCo7MOZuasHOcYgASD5zfDhCN4MaIG1L6D4aBhwlc4Shb5D4RgxEz9cKrgyK3ZRdC1AHKKBgA0T9+h1FMBdwX8Sa3kPf9uBQtH9DB/oQkWgokLEbo0PgUWoYKV0I1wd8z3zmm3kIg/RciP/wcURkKv+58UHg2HzP8PcDHR+Z5Jq4Ra2A24Woy6Q8qdfiSxWNF5nklNOAs4tHM0Sed5JrxoEPRTCc3wC7yi6RxPRSshCy9Uzj1XnkpYOrghLRL8qpyMT/v6zf+8vgFG80iK7km8qAAAAABJRU5ErkJggg==">
      <mxGeometry x="1387" y="703" width="96" height="25" as="geometry" />
    </mxCell>
    <mxCell id="node26" parent="1" vertex="1" value="UiUser" style="label;fontStyle=0;strokeColor=default;fillColor=none;align=left;verticalAlign=middle;overflow=hidden;spacingLeft=28;spacingRight=4;rotatable=0;points=[[0,0.5],[1,0.5]];portConstraint=eastwest;imageWidth=16;imageHeight=16;image=data:image/png,iVBORw0KGgoAAAANSUhEUgAAACAAAAAgCAYAAABzenr0AAACPklEQVR4Xu2WuUsDQRTG03hbe7USi9jZaGNjtNBokyjZFQUrG/GsbATvUtTOSm2DuyERBMH7qtIE2VWwEDz+Aa2s1vf2kNmXZNfsERD8YIqdnZnfN2/fvNlA4F+/VGZnvEwWuQlZ4Bay4mgdfe+rXhNDVQA/gabo7eU+GW+m43wRC7/bjymHW/2lM0Hhgz2tSrgjqKQ2S2AiH7yzrVltOSZSfD2d70pWcNZEelszIYn8El3DsX4DxxbtCik3e1EtCgI/Q9dxJEdwkbt63h2rpGsVLSkxVO4Enj0eraFrscJ1JYGflARu0TJXcJDX8MzhQDXkx5k+3vrUYCLhoPRmRAm3B+3gRbVb2JSRsA8i9wpRaaD8gCyMNMKAdxyU3OgzmXADx4jGurX6kd6KaP1JbpnyVT2I8RZqwi7sBsh4fjrqrYDnc+zDnSM8zyZm2TVMYk1gsbGCo6gBSeSmbODXtqeGNWEFR+UaMOcShcP3r2XnF9RjimuCo7MOZuasHOcYgASD5zfDhCN4MaIG1L6D4aBhwlc4Shb5D4RgxEz9cKrgyK3ZRdC1AHKKBgA0T9+h1FMBdwX8Sa3kPf9uBQtH9DB/oQkWgokLEbo0PgUWoYKV0I1wd8z3zmm3kIg/RciP/wcURkKv+58UHg2HzP8PcDHR+Z5Jq4Ra2A24Woy6Q8qdfiSxWNF5nklNOAs4tHM0Sed5JrxoEPRTCc3wC7yi6RxPRSshCy9Uzj1XnkpYOrghLRL8qpyMT/v6zf+8vgFG80iK7km8qAAAAABJRU5ErkJggg==">
      <mxGeometry x="1275" y="703" width="69" height="25" as="geometry" />
    </mxCell>
    <mxCell id="node35" parent="1" vertex="1" value="UiUsers" style="label;fontStyle=0;strokeColor=default;fillColor=none;align=left;verticalAlign=middle;overflow=hidden;spacingLeft=28;spacingRight=4;rotatable=0;points=[[0,0.5],[1,0.5]];portConstraint=eastwest;imageWidth=16;imageHeight=16;image=data:image/png,iVBORw0KGgoAAAANSUhEUgAAACAAAAAgCAYAAABzenr0AAACPklEQVR4Xu2WuUsDQRTG03hbe7USi9jZaGNjtNBokyjZFQUrG/GsbATvUtTOSm2DuyERBMH7qtIE2VWwEDz+Aa2s1vf2kNmXZNfsERD8YIqdnZnfN2/fvNlA4F+/VGZnvEwWuQlZ4Bay4mgdfe+rXhNDVQA/gabo7eU+GW+m43wRC7/bjymHW/2lM0Hhgz2tSrgjqKQ2S2AiH7yzrVltOSZSfD2d70pWcNZEelszIYn8El3DsX4DxxbtCik3e1EtCgI/Q9dxJEdwkbt63h2rpGsVLSkxVO4Enj0eraFrscJ1JYGflARu0TJXcJDX8MzhQDXkx5k+3vrUYCLhoPRmRAm3B+3gRbVb2JSRsA8i9wpRaaD8gCyMNMKAdxyU3OgzmXADx4jGurX6kd6KaP1JbpnyVT2I8RZqwi7sBsh4fjrqrYDnc+zDnSM8zyZm2TVMYk1gsbGCo6gBSeSmbODXtqeGNWEFR+UaMOcShcP3r2XnF9RjimuCo7MOZuasHOcYgASD5zfDhCN4MaIG1L6D4aBhwlc4Shb5D4RgxEz9cKrgyK3ZRdC1AHKKBgA0T9+h1FMBdwX8Sa3kPf9uBQtH9DB/oQkWgokLEbo0PgUWoYKV0I1wd8z3zmm3kIg/RciP/wcURkKv+58UHg2HzP8PcDHR+Z5Jq4Ra2A24Woy6Q8qdfiSxWNF5nklNOAs4tHM0Sed5JrxoEPRTCc3wC7yi6RxPRSshCy9Uzj1XnkpYOrghLRL8qpyMT/v6zf+8vgFG80iK7km8qAAAAABJRU5ErkJggg==">
      <mxGeometry x="1147" y="703" width="76" height="25" as="geometry" />
    </mxCell>
    <mxCell id="node2" parent="1" vertex="1" value="User" style="label;fontStyle=0;strokeColor=default;fillColor=none;align=left;verticalAlign=middle;overflow=hidden;spacingLeft=28;spacingRight=4;rotatable=0;points=[[0,0.5],[1,0.5]];portConstraint=eastwest;imageWidth=16;imageHeight=16;image=data:image/png,iVBORw0KGgoAAAANSUhEUgAAACAAAAAgCAYAAABzenr0AAACPklEQVR4Xu2WuUsDQRTG03hbe7USi9jZaGNjtNBokyjZFQUrG/GsbATvUtTOSm2DuyERBMH7qtIE2VWwEDz+Aa2s1vf2kNmXZNfsERD8YIqdnZnfN2/fvNlA4F+/VGZnvEwWuQlZ4Bay4mgdfe+rXhNDVQA/gabo7eU+GW+m43wRC7/bjymHW/2lM0Hhgz2tSrgjqKQ2S2AiH7yzrVltOSZSfD2d70pWcNZEelszIYn8El3DsX4DxxbtCik3e1EtCgI/Q9dxJEdwkbt63h2rpGsVLSkxVO4Enj0eraFrscJ1JYGflARu0TJXcJDX8MzhQDXkx5k+3vrUYCLhoPRmRAm3B+3gRbVb2JSRsA8i9wpRaaD8gCyMNMKAdxyU3OgzmXADx4jGurX6kd6KaP1JbpnyVT2I8RZqwi7sBsh4fjrqrYDnc+zDnSM8zyZm2TVMYk1gsbGCo6gBSeSmbODXtqeGNWEFR+UaMOcShcP3r2XnF9RjimuCo7MOZuasHOcYgASD5zfDhCN4MaIG1L6D4aBhwlc4Shb5D4RgxEz9cKrgyK3ZRdC1AHKKBgA0T9+h1FMBdwX8Sa3kPf9uBQtH9DB/oQkWgokLEbo0PgUWoYKV0I1wd8z3zmm3kIg/RciP/wcURkKv+58UHg2HzP8PcDHR+Z5Jq4Ra2A24Woy6Q8qdfiSxWNF5nklNOAs4tHM0Sed5JrxoEPRTCc3wC7yi6RxPRSshCy9Uzj1XnkpYOrghLRL8qpyMT/v6zf+8vgFG80iK7km8qAAAAABJRU5ErkJggg==">
      <mxGeometry x="2379" y="1983" width="56" height="25" as="geometry" />
    </mxCell>
    <mxCell id="node28" parent="1" vertex="1" value="Users" style="label;fontStyle=0;strokeColor=default;fillColor=none;align=left;verticalAlign=middle;overflow=hidden;spacingLeft=28;spacingRight=4;rotatable=0;points=[[0,0.5],[1,0.5]];portConstraint=eastwest;imageWidth=16;imageHeight=16;image=data:image/png,iVBORw0KGgoAAAANSUhEUgAAACAAAAAgCAYAAABzenr0AAACPklEQVR4Xu2WuUsDQRTG03hbe7USi9jZaGNjtNBokyjZFQUrG/GsbATvUtTOSm2DuyERBMH7qtIE2VWwEDz+Aa2s1vf2kNmXZNfsERD8YIqdnZnfN2/fvNlA4F+/VGZnvEwWuQlZ4Bay4mgdfe+rXhNDVQA/gabo7eU+GW+m43wRC7/bjymHW/2lM0Hhgz2tSrgjqKQ2S2AiH7yzrVltOSZSfD2d70pWcNZEelszIYn8El3DsX4DxxbtCik3e1EtCgI/Q9dxJEdwkbt63h2rpGsVLSkxVO4Enj0eraFrscJ1JYGflARu0TJXcJDX8MzhQDXkx5k+3vrUYCLhoPRmRAm3B+3gRbVb2JSRsA8i9wpRaaD8gCyMNMKAdxyU3OgzmXADx4jGurX6kd6KaP1JbpnyVT2I8RZqwi7sBsh4fjrqrYDnc+zDnSM8zyZm2TVMYk1gsbGCo6gBSeSmbODXtqeGNWEFR+UaMOcShcP3r2XnF9RjimuCo7MOZuasHOcYgASD5zfDhCN4MaIG1L6D4aBhwlc4Shb5D4RgxEz9cKrgyK3ZRdC1AHKKBgA0T9+h1FMBdwX8Sa3kPf9uBQtH9DB/oQkWgokLEbo0PgUWoYKV0I1wd8z3zmm3kIg/RciP/wcURkKv+58UHg2HzP8PcDHR+Z5Jq4Ra2A24Woy6Q8qdfiSxWNF5nklNOAs4tHM0Sed5JrxoEPRTCc3wC7yi6RxPRSshCy9Uzj1XnkpYOrghLRL8qpyMT/v6zf+8vgFG80iK7km8qAAAAABJRU5ErkJggg==">
      <mxGeometry x="300" y="183" width="63" height="25" as="geometry" />
    </mxCell>
    <mxCell id="edge28" edge="1" value="" parent="1" source="node29" target="node29" style="html=1;rounded=1;;dashed=1;dashPattern=1 1;startArrow=none;endArrow=block;endSize=12;strokeColor=#5fad65;exitX=0.415;exitY=0.002;exitDx=0;exitDy=0;entryX=0.000;entryY=0.217;entryDx=0;entryDy=0;">
      <mxGeometry width="50" height="50" relative="1" as="geometry">
        <Array as="points">
          <mxPoint x="2647" y="-90" />
          <mxPoint x="2626" y="-110" />
          <mxPoint x="2554" y="-110" />
          <mxPoint x="2554" y="-37" />
        </Array>
      </mxGeometry>
    </mxCell>
    <mxCell id="edge49" edge="1" value="" parent="1" source="node29" target="node29" style="html=1;rounded=1;;dashed=0;startArrow=none;endArrow=block;endSize=12;strokeColor=#955ae0;exitX=0.585;exitY=0.002;exitDx=0;exitDy=0;entryX=1.000;entryY=0.500;entryDx=0;entryDy=0;">
      <mxGeometry width="50" height="50" relative="1" as="geometry">
        <Array as="points">
          <mxPoint x="2667" y="-128" />
          <mxPoint x="2807" y="-128" />
          <mxPoint x="2836" y="-100" />
          <mxPoint x="2836" y="-59" />
          <mxPoint x="2807" y="-31" />
        </Array>
      </mxGeometry>
    </mxCell>
    <mxCell id="edge45" edge="1" value="" parent="1" source="node37" target="node43" style="html=1;rounded=1;;dashed=1;dashPattern=1 1;startArrow=none;endArrow=block;endSize=12;strokeColor=#5fad65;exitX=0.679;exitY=0.001;exitDx=0;exitDy=0;entryX=0.585;entryY=1.001;entryDx=0;entryDy=0;">
      <mxGeometry width="50" height="50" relative="1" as="geometry">
        <Array as="points" />
      </mxGeometry>
    </mxCell>
    <mxCell id="edge69" edge="1" value="" parent="1" source="node37" target="node43" style="html=1;rounded=1;;dashed=0;startArrow=none;endArrow=block;endSize=12;strokeColor=#3574f0;exitX=0.321;exitY=0.001;exitDx=0;exitDy=0;entryX=0.415;entryY=1.001;entryDx=0;entryDy=0;">
      <mxGeometry width="50" height="50" relative="1" as="geometry">
        <Array as="points" />
      </mxGeometry>
    </mxCell>
    <mxCell id="edge38" edge="1" value="" parent="1" source="node37" target="node33" style="html=1;rounded=1;;dashed=0;startArrow=none;endArrow=block;endSize=12;strokeColor=#3574f0;exitX=0.911;exitY=1.001;exitDx=0;exitDy=0;entryX=0.181;entryY=1.002;entryDx=0;entryDy=0;">
      <mxGeometry width="50" height="50" relative="1" as="geometry">
        <Array as="points">
          <mxPoint x="1335" y="496" />
          <mxPoint x="1773" y="496" />
          <mxPoint x="1782" y="487" />
        </Array>
      </mxGeometry>
    </mxCell>
    <mxCell id="edge31" edge="1" value="" parent="1" source="node43" target="node43" style="html=1;rounded=1;;dashed=0;startArrow=none;endArrow=block;endSize=12;strokeColor=#3574f0;exitX=0.500;exitY=0.002;exitDx=0;exitDy=0;entryX=0.000;entryY=0.700;entryDx=0;entryDy=0;">
      <mxGeometry width="50" height="50" relative="1" as="geometry">
        <Array as="points">
          <mxPoint x="1312" y="347" />
          <mxPoint x="1303" y="338" />
          <mxPoint x="1218" y="338" />
          <mxPoint x="1218" y="384" />
        </Array>
      </mxGeometry>
    </mxCell>
    <mxCell id="edge42" edge="1" value="" parent="1" source="node43" target="node33" style="html=1;rounded=1;;dashed=0;startArrow=none;endArrow=block;endSize=12;strokeColor=#3574f0;exitX=1.000;exitY=0.700;exitDx=0;exitDy=0;entryX=0.500;entryY=0.002;entryDx=0;entryDy=0;">
      <mxGeometry width="50" height="50" relative="1" as="geometry">
        <Array as="points">
          <mxPoint x="1794" y="384" />
          <mxPoint x="1812" y="402" />
        </Array>
      </mxGeometry>
    </mxCell>
    <mxCell id="edge19" edge="1" value="" parent="1" source="node13" target="node9" style="html=1;rounded=1;;dashed=0;startArrow=none;endArrow=block;endSize=12;strokeColor=#3574f0;exitX=0.001;exitY=0.696;exitDx=0;exitDy=0;entryX=0.963;entryY=0.001;entryDx=0;entryDy=0;">
      <mxGeometry width="50" height="50" relative="1" as="geometry">
        <Array as="points">
          <mxPoint x="2570" y="2049" />
        </Array>
      </mxGeometry>
    </mxCell>
    <mxCell id="edge20" edge="1" value="" parent="1" source="node13" target="node15" style="html=1;rounded=1;;dashed=0;startArrow=none;endArrow=block;endSize=12;strokeColor=#955ae0;exitX=0.661;exitY=1.002;exitDx=0;exitDy=0;entryX=0.598;entryY=0.002;entryDx=0;entryDy=0;">
      <mxGeometry width="50" height="50" relative="1" as="geometry">
        <Array as="points" />
      </mxGeometry>
    </mxCell>
    <mxCell id="edge21" edge="1" value="" parent="1" source="node13" target="node15" style="html=1;rounded=1;;dashed=0;startArrow=none;endArrow=block;endSize=12;strokeColor=#3574f0;exitX=0.339;exitY=1.002;exitDx=0;exitDy=0;entryX=0.402;entryY=0.002;entryDx=0;entryDy=0;">
      <mxGeometry width="50" height="50" relative="1" as="geometry">
        <Array as="points" />
      </mxGeometry>
    </mxCell>
    <mxCell id="edge23" edge="1" value="" parent="1" source="node13" target="node7" style="html=1;rounded=1;;dashed=1;startArrow=none;endArrow=block;endSize=12;endFill=0;strokeColor=#24a394;exitX=0.823;exitY=0.001;exitDx=0;exitDy=0;entryX=1.000;entryY=0.641;entryDx=0;entryDy=0;">
      <mxGeometry width="50" height="50" relative="1" as="geometry">
        <Array as="points">
          <mxPoint x="2802" y="78" />
          <mxPoint x="2771" y="47" />
        </Array>
      </mxGeometry>
    </mxCell>
    <mxCell id="edge59" edge="1" value="" parent="1" source="node32" target="node9" style="html=1;rounded=1;;dashed=0;startArrow=none;endArrow=block;endSize=12;strokeColor=#3574f0;exitX=0.851;exitY=0.001;exitDx=0;exitDy=0;entryX=0.000;entryY=0.783;entryDx=0;entryDy=0;">
      <mxGeometry width="50" height="50" relative="1" as="geometry">
        <Array as="points">
          <mxPoint x="171" y="2201" />
        </Array>
      </mxGeometry>
    </mxCell>
    <mxCell id="edge65" edge="1" value="" parent="1" source="node32" target="node44" style="html=1;rounded=1;;dashed=1;startArrow=none;endArrow=block;endSize=12;endFill=0;strokeColor=#24a394;exitX=0.311;exitY=0.001;exitDx=0;exitDy=0;entryX=0.220;entryY=1.001;entryDx=0;entryDy=0;">
      <mxGeometry width="50" height="50" relative="1" as="geometry">
        <Array as="points" />
      </mxGeometry>
    </mxCell>
    <mxCell id="edge22" edge="1" value="" parent="1" source="node14" target="node13" style="html=1;rounded=1;;dashed=1;dashPattern=1 1;startArrow=none;endArrow=block;endSize=12;strokeColor=#5fad65;exitX=0.500;exitY=1.001;exitDx=0;exitDy=0;entryX=1.001;entryY=0.500;entryDx=0;entryDy=0;">
      <mxGeometry width="50" height="50" relative="1" as="geometry">
        <Array as="points">
          <mxPoint x="2882" y="2024" />
          <mxPoint x="2861" y="2044" />
        </Array>
      </mxGeometry>
    </mxCell>
    <mxCell id="edge18" edge="1" value="" parent="1" source="node14" target="node7" style="html=1;rounded=1;;dashed=1;startArrow=none;endArrow=block;endSize=12;endFill=0;strokeColor=#24a394;exitX=0.001;exitY=0.359;exitDx=0;exitDy=0;entryX=1.000;entryY=0.359;entryDx=0;entryDy=0;">
      <mxGeometry width="50" height="50" relative="1" as="geometry">
        <Array as="points" />
      </mxGeometry>
    </mxCell>
    <mxCell id="edge39" edge="1" value="" parent="1" source="node44" target="node9" style="html=1;rounded=1;;dashed=0;startArrow=none;endArrow=block;endSize=12;strokeColor=#3574f0;exitX=0.753;exitY=1.001;exitDx=0;exitDy=0;entryX=0.191;entryY=0.001;entryDx=0;entryDy=0;">
      <mxGeometry width="50" height="50" relative="1" as="geometry">
        <Array as="points">
          <mxPoint x="151" y="2095" />
          <mxPoint x="2439" y="2095" />
          <mxPoint x="2465" y="2121" />
        </Array>
      </mxGeometry>
    </mxCell>
    <mxCell id="edge41" edge="1" value="" parent="1" source="node20" target="node44" style="html=1;rounded=1;;dashed=0;startArrow=none;endArrow=block;endSize=12;strokeColor=#955ae0;exitX=0.134;exitY=1.001;exitDx=0;exitDy=0;entryX=0.100;entryY=0.001;entryDx=0;entryDy=0;">
      <mxGeometry width="50" height="50" relative="1" as="geometry">
        <Array as="points" />
      </mxGeometry>
    </mxCell>
    <mxCell id="edge71" edge="1" value="" parent="1" source="node20" target="node44" style="html=1;rounded=1;;dashed=0;startArrow=none;endArrow=block;endSize=12;strokeColor=#3574f0;exitX=0.378;exitY=1.001;exitDx=0;exitDy=0;entryX=0.367;entryY=0.001;entryDx=0;entryDy=0;">
      <mxGeometry width="50" height="50" relative="1" as="geometry">
        <Array as="points" />
      </mxGeometry>
    </mxCell>
    <mxCell id="edge43" edge="1" value="" parent="1" source="node20" target="node7" style="html=1;rounded=1;;dashed=1;startArrow=none;endArrow=block;endSize=12;endFill=0;strokeColor=#24a394;exitX=1.000;exitY=0.484;exitDx=0;exitDy=0;entryX=0.670;entryY=1.002;entryDx=0;entryDy=0;">
      <mxGeometry width="50" height="50" relative="1" as="geometry">
        <Array as="points">
          <mxPoint x="2608" y="269" />
          <mxPoint x="2672" y="206" />
        </Array>
      </mxGeometry>
    </mxCell>
    <mxCell id="edge83" edge="1" value="" parent="1" source="node12" target="node37" style="html=1;rounded=1;;dashed=0;startArrow=none;endArrow=block;endSize=12;strokeColor=#3574f0;exitX=0.500;exitY=1.002;exitDx=0;exitDy=0;entryX=0.000;entryY=0.217;entryDx=0;entryDy=0;">
      <mxGeometry width="50" height="50" relative="1" as="geometry">
        <Array as="points">
          <mxPoint x="1232" y="2248" />
          <mxPoint x="1192" y="2287" />
          <mxPoint x="375" y="2287" />
          <mxPoint x="375" y="448" />
        </Array>
      </mxGeometry>
    </mxCell>
    <mxCell id="edge82" edge="1" value="" parent="1" source="node12" target="node16" style="html=1;rounded=1;;dashed=0;startArrow=none;endArrow=block;endSize=12;strokeColor=#3574f0;exitX=0.000;exitY=0.500;exitDx=0;exitDy=0;entryX=0.256;entryY=1.002;entryDx=0;entryDy=0;">
      <mxGeometry width="50" height="50" relative="1" as="geometry">
        <Array as="points">
          <mxPoint x="627" y="2144" />
        </Array>
      </mxGeometry>
    </mxCell>
    <mxCell id="edge12" edge="1" value="" parent="1" source="node6" target="node9" style="html=1;rounded=1;;dashed=0;startArrow=none;endArrow=block;endSize=12;strokeColor=#3574f0;exitX=1.000;exitY=0.217;exitDx=0;exitDy=0;entryX=0.934;entryY=0.001;entryDx=0;entryDy=0;">
      <mxGeometry width="50" height="50" relative="1" as="geometry">
        <Array as="points">
          <mxPoint x="2177" y="113" />
          <mxPoint x="2566" y="502" />
        </Array>
      </mxGeometry>
    </mxCell>
    <mxCell id="edge0" edge="1" value="" parent="1" source="node6" target="node5" style="html=1;rounded=1;;dashed=0;startArrow=none;endArrow=block;endSize=12;strokeColor=#3574f0;exitX=1.001;exitY=0.783;exitDx=0;exitDy=0;entryX=0.638;entryY=0.001;entryDx=0;entryDy=0;">
      <mxGeometry width="50" height="50" relative="1" as="geometry">
        <Array as="points">
          <mxPoint x="2054" y="126" />
          <mxPoint x="2165" y="237" />
        </Array>
      </mxGeometry>
    </mxCell>
    <mxCell id="edge4" edge="1" value="" parent="1" source="node6" target="node5" style="html=1;rounded=1;;dashed=0;startArrow=none;endArrow=block;endSize=12;strokeColor=#955ae0;exitX=0.853;exitY=0.002;exitDx=0;exitDy=0;entryX=0.845;entryY=0.001;entryDx=0;entryDy=0;">
      <mxGeometry width="50" height="50" relative="1" as="geometry">
        <Array as="points">
          <mxPoint x="1258" y="68" />
          <mxPoint x="2071" y="68" />
          <mxPoint x="2177" y="174" />
        </Array>
      </mxGeometry>
    </mxCell>
    <mxCell id="edge6" edge="1" value="" parent="1" source="node6" target="node7" style="html=1;rounded=1;;dashed=0;startArrow=none;endArrow=block;endSize=12;strokeColor=#3574f0;exitX=0.933;exitY=0.001;exitDx=0;exitDy=0;entryX=0.398;entryY=1.001;entryDx=0;entryDy=0;">
      <mxGeometry width="50" height="50" relative="1" as="geometry">
        <Array as="points">
          <mxPoint x="1264" y="78" />
          <mxPoint x="2384" y="78" />
          <mxPoint x="2550" y="244" />
          <mxPoint x="2550" y="633" />
          <mxPoint x="2619" y="633" />
          <mxPoint x="2648" y="605" />
        </Array>
      </mxGeometry>
    </mxCell>
    <mxCell id="edge8" edge="1" value="" parent="1" source="node6" target="node7" style="html=1;rounded=1;;dashed=1;startArrow=none;endArrow=block;endSize=12;endFill=0;strokeColor=#24a394;exitX=0.773;exitY=0.001;exitDx=0;exitDy=0;entryX=0.000;entryY=0.217;entryDx=0;entryDy=0;">
      <mxGeometry width="50" height="50" relative="1" as="geometry">
        <Array as="points">
          <mxPoint x="1252" y="38" />
        </Array>
      </mxGeometry>
    </mxCell>
    <mxCell id="edge17" edge="1" value="" parent="1" source="node11" target="node9" style="html=1;rounded=1;;dashed=0;startArrow=none;endArrow=block;endSize=12;strokeColor=#3574f0;exitX=0.500;exitY=1.001;exitDx=0;exitDy=0;entryX=1.000;entryY=0.500;entryDx=0;entryDy=0;">
      <mxGeometry width="50" height="50" relative="1" as="geometry">
        <Array as="points">
          <mxPoint x="2657" y="2171" />
          <mxPoint x="2633" y="2194" />
        </Array>
      </mxGeometry>
    </mxCell>
    <mxCell id="edge15" edge="1" value="" parent="1" source="node11" target="node7" style="html=1;rounded=1;;dashed=1;startArrow=none;endArrow=block;endSize=12;endFill=0;strokeColor=#24a394;exitX=0.282;exitY=0.002;exitDx=0;exitDy=0;entryX=0.057;entryY=1.001;entryDx=0;entryDy=0;">
      <mxGeometry width="50" height="50" relative="1" as="geometry">
        <Array as="points">
          <mxPoint x="2640" y="2062" />
          <mxPoint x="2617" y="2039" />
        </Array>
      </mxGeometry>
    </mxCell>
    <mxCell id="edge16" edge="1" value="" parent="1" source="node11" target="node7" style="html=1;rounded=1;;dashed=0;startArrow=none;endArrow=block;endSize=12;strokeColor=#3574f0;exitX=0.179;exitY=0.001;exitDx=0;exitDy=0;entryX=0.216;entryY=1.001;entryDx=0;entryDy=0;">
      <mxGeometry width="50" height="50" relative="1" as="geometry">
        <Array as="points" />
      </mxGeometry>
    </mxCell>
    <mxCell id="edge35" edge="1" value="" parent="1" source="node23" target="node32" style="html=1;rounded=1;;dashed=0;startArrow=none;endArrow=block;endSize=12;strokeColor=#955ae0;exitX=1.000;exitY=0.500;exitDx=0;exitDy=0;entryX=0.000;entryY=0.500;entryDx=0;entryDy=0;">
      <mxGeometry width="50" height="50" relative="1" as="geometry">
        <Array as="points" />
      </mxGeometry>
    </mxCell>
    <mxCell id="edge51" edge="1" value="" parent="1" source="node23" target="node32" style="html=1;rounded=1;;dashed=0;startArrow=none;endArrow=block;endSize=12;strokeColor=#3574f0;exitX=0.680;exitY=0.001;exitDx=0;exitDy=0;entryX=0.491;entryY=0.002;entryDx=0;entryDy=0;">
      <mxGeometry width="50" height="50" relative="1" as="geometry">
        <Array as="points">
          <mxPoint x="-23" y="2228" />
          <mxPoint x="122" y="2228" />
          <mxPoint x="131" y="2237" />
        </Array>
      </mxGeometry>
    </mxCell>
    <mxCell id="edge58" edge="1" value="" parent="1" source="node23" target="node44" style="html=1;rounded=1;;dashed=0;startArrow=none;endArrow=block;endSize=12;strokeColor=#3574f0;exitX=0.500;exitY=0.002;exitDx=0;exitDy=0;entryX=0.000;entryY=0.500;entryDx=0;entryDy=0;">
      <mxGeometry width="50" height="50" relative="1" as="geometry">
        <Array as="points">
          <mxPoint x="-43" y="1119" />
        </Array>
      </mxGeometry>
    </mxCell>
    <mxCell id="edge66" edge="1" value="" parent="1" source="node23" target="node7" style="html=1;rounded=1;;dashed=1;startArrow=none;endArrow=block;endSize=12;endFill=0;strokeColor=#24a394;exitX=0.320;exitY=0.002;exitDx=0;exitDy=0;entryX=0.614;entryY=0.002;entryDx=0;entryDy=0;">
      <mxGeometry width="50" height="50" relative="1" as="geometry">
        <Array as="points">
          <mxPoint x="-63" y="-19" />
          <mxPoint x="2651" y="-19" />
          <mxPoint x="2667" y="-3" />
        </Array>
      </mxGeometry>
    </mxCell>
    <mxCell id="edge70" edge="1" value="" parent="1" source="node7" target="node29" style="html=1;rounded=1;;dashed=0;startArrow=none;endArrow=block;endSize=12;strokeColor=#3574f0;exitX=0.386;exitY=0.001;exitDx=0;exitDy=0;entryX=0.415;entryY=1.001;entryDx=0;entryDy=0;">
      <mxGeometry width="50" height="50" relative="1" as="geometry">
        <Array as="points" />
      </mxGeometry>
    </mxCell>
    <mxCell id="edge11" edge="1" value="" parent="1" source="node8" target="node9" style="html=1;rounded=1;;dashed=0;startArrow=none;endArrow=block;endSize=12;strokeColor=#3574f0;exitX=0.943;exitY=1.001;exitDx=0;exitDy=0;entryX=0.875;entryY=0.001;entryDx=0;entryDy=0;">
      <mxGeometry width="50" height="50" relative="1" as="geometry">
        <Array as="points">
          <mxPoint x="245" y="2091" />
          <mxPoint x="2531" y="2091" />
          <mxPoint x="2558" y="2118" />
        </Array>
      </mxGeometry>
    </mxCell>
    <mxCell id="edge13" edge="1" value="" parent="1" source="node8" target="node7" style="html=1;rounded=1;;dashed=0;startArrow=none;endArrow=block;endSize=12;strokeColor=#3574f0;exitX=0.713;exitY=1.002;exitDx=0;exitDy=0;entryX=0.580;entryY=1.001;entryDx=0;entryDy=0;">
      <mxGeometry width="50" height="50" relative="1" as="geometry">
        <Array as="points">
          <mxPoint x="225" y="242" />
          <mxPoint x="2608" y="242" />
          <mxPoint x="2664" y="186" />
        </Array>
      </mxGeometry>
    </mxCell>
    <mxCell id="edge80" edge="1" value="" parent="1" source="node10" target="node13" style="html=1;rounded=1;;dashed=0;startArrow=none;endArrow=block;endSize=12;strokeColor=#955ae0;exitX=0.901;exitY=0.002;exitDx=0;exitDy=0;entryX=0.177;entryY=0.002;entryDx=0;entryDy=0;">
      <mxGeometry width="50" height="50" relative="1" as="geometry">
        <Array as="points">
          <mxPoint x="902" y="303" />
          <mxPoint x="2243" y="303" />
          <mxPoint x="2762" y="822" />
        </Array>
      </mxGeometry>
    </mxCell>
    <mxCell id="edge81" edge="1" value="" parent="1" source="node10" target="node13" style="html=1;rounded=1;;dashed=0;startArrow=none;endArrow=block;endSize=12;strokeColor=#3574f0;exitX=0.851;exitY=0.002;exitDx=0;exitDy=0;entryX=0.500;entryY=0.002;entryDx=0;entryDy=0;">
      <mxGeometry width="50" height="50" relative="1" as="geometry">
        <Array as="points">
          <mxPoint x="897" y="215" />
          <mxPoint x="2237" y="215" />
          <mxPoint x="2782" y="760" />
        </Array>
      </mxGeometry>
    </mxCell>
    <mxCell id="edge75" edge="1" value="" parent="1" source="node10" target="node44" style="html=1;rounded=1;;dashed=0;startArrow=none;endArrow=block;endSize=12;strokeColor=#955ae0;exitX=0.802;exitY=0.001;exitDx=0;exitDy=0;entryX=0.633;entryY=0.002;entryDx=0;entryDy=0;">
      <mxGeometry width="50" height="50" relative="1" as="geometry">
        <Array as="points">
          <mxPoint x="892" y="794" />
          <mxPoint x="839" y="741" />
          <mxPoint x="142" y="741" />
        </Array>
      </mxGeometry>
    </mxCell>
    <mxCell id="edge76" edge="1" value="" parent="1" source="node10" target="node44" style="html=1;rounded=1;;dashed=0;startArrow=none;endArrow=block;endSize=12;strokeColor=#3574f0;exitX=0.000;exitY=0.500;exitDx=0;exitDy=0;entryX=0.900;entryY=0.002;entryDx=0;entryDy=0;">
      <mxGeometry width="50" height="50" relative="1" as="geometry">
        <Array as="points">
          <mxPoint x="162" y="929" />
        </Array>
      </mxGeometry>
    </mxCell>
    <mxCell id="edge77" edge="1" value="" parent="1" source="node10" target="node2" style="html=1;rounded=1;;dashed=0;startArrow=none;endArrow=block;endSize=12;strokeColor=#955ae0;exitX=0.171;exitY=1.002;exitDx=0;exitDy=0;entryX=0.268;entryY=1.001;entryDx=0;entryDy=0;">
      <mxGeometry width="50" height="50" relative="1" as="geometry">
        <Array as="points">
          <mxPoint x="829" y="2099" />
          <mxPoint x="2366" y="2099" />
          <mxPoint x="2394" y="2072" />
        </Array>
      </mxGeometry>
    </mxCell>
    <mxCell id="edge78" edge="1" value="" parent="1" source="node10" target="node2" style="html=1;rounded=1;;dashed=0;startArrow=none;endArrow=block;endSize=12;strokeColor=#3574f0;exitX=0.250;exitY=1.001;exitDx=0;exitDy=0;entryX=0.001;entryY=0.609;entryDx=0;entryDy=0;">
      <mxGeometry width="50" height="50" relative="1" as="geometry">
        <Array as="points">
          <mxPoint x="837" y="1997" />
        </Array>
      </mxGeometry>
    </mxCell>
    <mxCell id="edge72" edge="1" value="" parent="1" source="node16" target="node36" style="html=1;rounded=1;;dashed=0;startArrow=none;endArrow=block;endSize=12;strokeColor=#3574f0;exitX=0.872;exitY=1.002;exitDx=0;exitDy=0;entryX=0.001;entryY=0.500;entryDx=0;entryDy=0;">
      <mxGeometry width="50" height="50" relative="1" as="geometry">
        <Array as="points">
          <mxPoint x="651" y="1615" />
        </Array>
      </mxGeometry>
    </mxCell>
    <mxCell id="edge60" edge="1" value="" parent="1" source="node16" target="node30" style="html=1;rounded=1;;dashed=0;startArrow=none;endArrow=block;endSize=12;strokeColor=#3574f0;exitX=0.462;exitY=1.002;exitDx=0;exitDy=0;entryX=0.733;entryY=1.001;entryDx=0;entryDy=0;">
      <mxGeometry width="50" height="50" relative="1" as="geometry">
        <Array as="points">
          <mxPoint x="635" y="1877" />
          <mxPoint x="1499" y="1877" />
          <mxPoint x="1635" y="1741" />
          <mxPoint x="1635" y="1421" />
          <mxPoint x="1786" y="1421" />
          <mxPoint x="1799" y="1408" />
        </Array>
      </mxGeometry>
    </mxCell>
    <mxCell id="edge134" edge="1" value="" parent="1" source="node16" target="node38" style="html=1;rounded=1;;dashed=0;startArrow=none;endArrow=block;endSize=12;strokeColor=#3574f0;exitX=0.615;exitY=0.001;exitDx=0;exitDy=0;entryX=1.000;entryY=0.217;entryDx=0;entryDy=0;">
      <mxGeometry width="50" height="50" relative="1" as="geometry">
        <Array as="points">
          <mxPoint x="641" y="1258" />
          <mxPoint x="761" y="1258" />
          <mxPoint x="813" y="1207" />
          <mxPoint x="813" y="1069" />
          <mxPoint x="777" y="1033" />
        </Array>
      </mxGeometry>
    </mxCell>
    <mxCell id="edge133" edge="1" value="" parent="1" source="node16" target="node31" style="html=1;rounded=1;;dashed=0;startArrow=none;endArrow=block;endSize=12;strokeColor=#3574f0;exitX=0.872;exitY=0.002;exitDx=0;exitDy=0;entryX=1.001;entryY=0.217;entryDx=0;entryDy=0;">
      <mxGeometry width="50" height="50" relative="1" as="geometry">
        <Array as="points">
          <mxPoint x="651" y="1206" />
          <mxPoint x="686" y="1171" />
          <mxPoint x="686" y="1096" />
          <mxPoint x="673" y="1083" />
        </Array>
      </mxGeometry>
    </mxCell>
    <mxCell id="edge61" edge="1" value="" parent="1" source="node16" target="node39" style="html=1;rounded=1;;dashed=0;startArrow=none;endArrow=block;endSize=12;strokeColor=#3574f0;exitX=0.667;exitY=1.002;exitDx=0;exitDy=0;entryX=0.914;entryY=1.001;entryDx=0;entryDy=0;">
      <mxGeometry width="50" height="50" relative="1" as="geometry">
        <Array as="points">
          <mxPoint x="643" y="1888" />
          <mxPoint x="1409" y="1888" />
          <mxPoint x="1695" y="1602" />
        </Array>
      </mxGeometry>
    </mxCell>
    <mxCell id="edge26" edge="1" value="" parent="1" source="node16" target="node4" style="html=1;rounded=1;;dashed=0;startArrow=none;endArrow=block;endSize=12;strokeColor=#3574f0;exitX=1.001;exitY=0.217;exitDx=0;exitDy=0;entryX=0.258;entryY=0.002;entryDx=0;entryDy=0;">
      <mxGeometry width="50" height="50" relative="1" as="geometry">
        <Array as="points">
          <mxPoint x="761" y="1498" />
          <mxPoint x="805" y="1455" />
          <mxPoint x="805" y="1179" />
          <mxPoint x="1254" y="1179" />
          <mxPoint x="1296" y="1221" />
        </Array>
      </mxGeometry>
    </mxCell>
    <mxCell id="edge125" edge="1" value="" parent="1" source="node16" target="node0" style="html=1;rounded=1;;dashed=0;startArrow=none;endArrow=block;endSize=12;strokeColor=#3574f0;exitX=1.001;exitY=0.326;exitDx=0;exitDy=0;entryX=0.774;entryY=1.001;entryDx=0;entryDy=0;">
      <mxGeometry width="50" height="50" relative="1" as="geometry">
        <Array as="points">
          <mxPoint x="1137" y="1500" />
          <mxPoint x="1242" y="1395" />
        </Array>
      </mxGeometry>
    </mxCell>
    <mxCell id="edge24" edge="1" value="" parent="1" source="node16" target="node1" style="html=1;rounded=1;;dashed=0;startArrow=none;endArrow=block;endSize=12;strokeColor=#3574f0;exitX=1.001;exitY=0.783;exitDx=0;exitDy=0;entryX=0.134;entryY=1.001;entryDx=0;entryDy=0;">
      <mxGeometry width="50" height="50" relative="1" as="geometry">
        <Array as="points">
          <mxPoint x="880" y="1511" />
          <mxPoint x="909" y="1483" />
        </Array>
      </mxGeometry>
    </mxCell>
    <mxCell id="edge126" edge="1" value="" parent="1" source="node16" target="node35" style="html=1;rounded=1;;dashed=0;startArrow=none;endArrow=block;endSize=12;strokeColor=#3574f0;exitX=0.001;exitY=0.641;exitDx=0;exitDy=0;entryX=0.342;entryY=0.002;entryDx=0;entryDy=0;">
      <mxGeometry width="50" height="50" relative="1" as="geometry">
        <Array as="points">
          <mxPoint x="482" y="1508" />
          <mxPoint x="482" y="647" />
          <mxPoint x="1157" y="647" />
          <mxPoint x="1173" y="663" />
        </Array>
      </mxGeometry>
    </mxCell>
    <mxCell id="edge188" edge="1" value="" parent="1" source="node27" target="node5" style="html=1;rounded=1;;dashed=0;startArrow=none;endArrow=block;endSize=12;strokeColor=#3574f0;exitX=1.000;exitY=0.500;exitDx=0;exitDy=0;entryX=0.138;entryY=1.002;entryDx=0;entryDy=0;">
      <mxGeometry width="50" height="50" relative="1" as="geometry">
        <Array as="points">
          <mxPoint x="2107" y="1240" />
          <mxPoint x="2136" y="1212" />
        </Array>
      </mxGeometry>
    </mxCell>
    <mxCell id="edge183" edge="1" value="" parent="1" source="node27" target="node6" style="html=1;rounded=1;;dashed=0;startArrow=none;endArrow=block;endSize=12;strokeColor=#3574f0;exitX=0.668;exitY=0.001;exitDx=0;exitDy=0;entryX=1.000;entryY=0.783;entryDx=0;entryDy=0;">
      <mxGeometry width="50" height="50" relative="1" as="geometry">
        <Array as="points">
          <mxPoint x="1999" y="284" />
          <mxPoint x="1841" y="126" />
        </Array>
      </mxGeometry>
    </mxCell>
    <mxCell id="edge175" edge="1" value="" parent="1" source="node27" target="node4" style="html=1;rounded=1;;dashed=1;startArrow=none;endArrow=block;endSize=12;endFill=0;strokeColor=#24a394;exitX=0.500;exitY=0.001;exitDx=0;exitDy=0;entryX=0.439;entryY=0.001;entryDx=0;entryDy=0;">
      <mxGeometry width="50" height="50" relative="1" as="geometry">
        <Array as="points">
          <mxPoint x="1979" y="1100" />
          <mxPoint x="1925" y="1046" />
          <mxPoint x="1308" y="1046" />
        </Array>
      </mxGeometry>
    </mxCell>
    <mxCell id="edge181" edge="1" value="" parent="1" source="node27" target="node4" style="html=1;rounded=1;;dashed=0;startArrow=none;endArrow=block;endSize=12;strokeColor=#3574f0;exitX=0.332;exitY=0.001;exitDx=0;exitDy=0;entryX=0.424;entryY=0.001;entryDx=0;entryDy=0;">
      <mxGeometry width="50" height="50" relative="1" as="geometry">
        <Array as="points">
          <mxPoint x="1959" y="1096" />
          <mxPoint x="1903" y="1040" />
          <mxPoint x="1307" y="1040" />
        </Array>
      </mxGeometry>
    </mxCell>
    <mxCell id="edge186" edge="1" value="" parent="1" source="node42" target="node5" style="html=1;rounded=1;;dashed=0;startArrow=none;endArrow=block;endSize=12;strokeColor=#3574f0;exitX=1.000;exitY=0.500;exitDx=0;exitDy=0;entryX=0.310;entryY=1.001;entryDx=0;entryDy=0;">
      <mxGeometry width="50" height="50" relative="1" as="geometry">
        <Array as="points">
          <mxPoint x="2064" y="1440" />
          <mxPoint x="2146" y="1359" />
        </Array>
      </mxGeometry>
    </mxCell>
    <mxCell id="edge184" edge="1" value="" parent="1" source="node42" target="node6" style="html=1;rounded=1;;dashed=0;startArrow=none;endArrow=block;endSize=12;strokeColor=#3574f0;exitX=0.608;exitY=1.001;exitDx=0;exitDy=0;entryX=1.001;entryY=0.783;entryDx=0;entryDy=0;">
      <mxGeometry width="50" height="50" relative="1" as="geometry">
        <Array as="points">
          <mxPoint x="1789" y="1484" />
          <mxPoint x="1775" y="1498" />
          <mxPoint x="1541" y="1498" />
          <mxPoint x="1541" y="207" />
          <mxPoint x="1460" y="126" />
        </Array>
      </mxGeometry>
    </mxCell>
    <mxCell id="edge176" edge="1" value="" parent="1" source="node42" target="node4" style="html=1;rounded=1;;dashed=1;startArrow=none;endArrow=block;endSize=12;endFill=0;strokeColor=#24a394;exitX=0.392;exitY=1.002;exitDx=0;exitDy=0;entryX=1.000;entryY=0.781;entryDx=0;entryDy=0;">
      <mxGeometry width="50" height="50" relative="1" as="geometry">
        <Array as="points">
          <mxPoint x="1769" y="1493" />
          <mxPoint x="1751" y="1511" />
          <mxPoint x="1423" y="1511" />
          <mxPoint x="1423" y="1359" />
          <mxPoint x="1400" y="1336" />
        </Array>
      </mxGeometry>
    </mxCell>
    <mxCell id="edge180" edge="1" value="" parent="1" source="node42" target="node4" style="html=1;rounded=1;;dashed=0;startArrow=none;endArrow=block;endSize=12;strokeColor=#3574f0;exitX=0.000;exitY=0.783;exitDx=0;exitDy=0;entryX=1.000;entryY=0.777;entryDx=0;entryDy=0;">
      <mxGeometry width="50" height="50" relative="1" as="geometry">
        <Array as="points">
          <mxPoint x="1433" y="1446" />
          <mxPoint x="1433" y="1362" />
          <mxPoint x="1407" y="1336" />
        </Array>
      </mxGeometry>
    </mxCell>
    <mxCell id="edge103" edge="1" value="" parent="1" source="node25" target="node37" style="html=1;rounded=1;;dashed=0;startArrow=none;endArrow=block;endSize=12;strokeColor=#3574f0;exitX=0.096;exitY=0.002;exitDx=0;exitDy=0;entryX=0.001;entryY=0.783;entryDx=0;entryDy=0;">
      <mxGeometry width="50" height="50" relative="1" as="geometry">
        <Array as="points">
          <mxPoint x="1147" y="461" />
        </Array>
      </mxGeometry>
    </mxCell>
    <mxCell id="edge123" edge="1" value="" parent="1" source="node25" target="node5" style="html=1;rounded=1;;dashed=0;startArrow=none;endArrow=block;endSize=12;strokeColor=#3574f0;exitX=1.001;exitY=0.783;exitDx=0;exitDy=0;entryX=0.293;entryY=0.002;entryDx=0;entryDy=0;">
      <mxGeometry width="50" height="50" relative="1" as="geometry">
        <Array as="points">
          <mxPoint x="1434" y="796" />
          <mxPoint x="1463" y="825" />
          <mxPoint x="1463" y="891" />
          <mxPoint x="2080" y="891" />
          <mxPoint x="2145" y="956" />
        </Array>
      </mxGeometry>
    </mxCell>
    <mxCell id="edge112" edge="1" value="" parent="1" source="node25" target="node6" style="html=1;rounded=1;;dashed=0;startArrow=none;endArrow=block;endSize=12;strokeColor=#3574f0;exitX=0.904;exitY=0.002;exitDx=0;exitDy=0;entryX=0.213;entryY=0.002;entryDx=0;entryDy=0;">
      <mxGeometry width="50" height="50" relative="1" as="geometry">
        <Array as="points">
          <mxPoint x="1223" y="741" />
          <mxPoint x="1208" y="726" />
          <mxPoint x="1071" y="726" />
          <mxPoint x="1071" y="-110" />
          <mxPoint x="1168" y="-110" />
          <mxPoint x="1210" y="-68" />
        </Array>
      </mxGeometry>
    </mxCell>
    <mxCell id="edge100" edge="1" value="" parent="1" source="node25" target="node33" style="html=1;rounded=1;;dashed=0;startArrow=none;endArrow=block;endSize=12;strokeColor=#3574f0;exitX=1.001;exitY=0.783;exitDx=0;exitDy=0;entryX=0.819;entryY=1.001;entryDx=0;entryDy=0;">
      <mxGeometry width="50" height="50" relative="1" as="geometry">
        <Array as="points">
          <mxPoint x="1436" y="796" />
          <mxPoint x="1473" y="833" />
          <mxPoint x="1732" y="833" />
          <mxPoint x="1842" y="723" />
        </Array>
      </mxGeometry>
    </mxCell>
    <mxCell id="edge84" edge="1" value="" parent="1" source="node25" target="node39" style="html=1;rounded=1;;dashed=0;startArrow=none;endArrow=block;endSize=12;strokeColor=#3574f0;exitX=1.000;exitY=0.326;exitDx=0;exitDy=0;entryX=0.420;entryY=1.001;entryDx=0;entryDy=0;">
      <mxGeometry width="50" height="50" relative="1" as="geometry">
        <Array as="points">
          <mxPoint x="1642" y="786" />
          <mxPoint x="1655" y="773" />
        </Array>
      </mxGeometry>
    </mxCell>
    <mxCell id="edge89" edge="1" value="" parent="1" source="node25" target="node4" style="html=1;rounded=1;;dashed=1;startArrow=none;endArrow=block;endSize=12;endFill=0;strokeColor=#24a394;exitX=0.098;exitY=1.002;exitDx=0;exitDy=0;entryX=0.227;entryY=0.002;entryDx=0;entryDy=0;">
      <mxGeometry width="50" height="50" relative="1" as="geometry">
        <Array as="points">
          <mxPoint x="1147" y="964" />
          <mxPoint x="1250" y="964" />
          <mxPoint x="1294" y="1008" />
        </Array>
      </mxGeometry>
    </mxCell>
    <mxCell id="edge98" edge="1" value="" parent="1" source="node25" target="node4" style="html=1;rounded=1;;dashed=0;startArrow=none;endArrow=block;endSize=12;strokeColor=#3574f0;exitX=0.000;exitY=0.217;exitDx=0;exitDy=0;entryX=0.212;entryY=0.002;entryDx=0;entryDy=0;">
      <mxGeometry width="50" height="50" relative="1" as="geometry">
        <Array as="points">
          <mxPoint x="1091" y="783" />
          <mxPoint x="1091" y="1065" />
          <mxPoint x="1233" y="1065" />
          <mxPoint x="1293" y="1125" />
        </Array>
      </mxGeometry>
    </mxCell>
    <mxCell id="edge118" edge="1" value="" parent="1" source="node25" target="node2" style="html=1;rounded=1;;dashed=0;startArrow=none;endArrow=block;endSize=12;strokeColor=#3574f0;exitX=1.000;exitY=0.783;exitDx=0;exitDy=0;entryX=0.411;entryY=1.002;entryDx=0;entryDy=0;">
      <mxGeometry width="50" height="50" relative="1" as="geometry">
        <Array as="points">
          <mxPoint x="1408" y="796" />
          <mxPoint x="1483" y="871" />
          <mxPoint x="1483" y="2136" />
          <mxPoint x="2363" y="2136" />
          <mxPoint x="2402" y="2098" />
        </Array>
      </mxGeometry>
    </mxCell>
    <mxCell id="edge74" edge="1" value="" parent="1" source="node22" target="node10" style="html=1;rounded=1;;dashed=0;startArrow=none;endArrow=block;endSize=12;strokeColor=#3574f0;exitX=1.000;exitY=0.435;exitDx=0;exitDy=0;entryX=0.092;entryY=1.002;entryDx=0;entryDy=0;">
      <mxGeometry width="50" height="50" relative="1" as="geometry">
        <Array as="points">
          <mxPoint x="769" y="1138" />
          <mxPoint x="821" y="1087" />
        </Array>
      </mxGeometry>
    </mxCell>
    <mxCell id="edge131" edge="1" value="" parent="1" source="node22" target="node4" style="html=1;rounded=1;;dashed=1;startArrow=none;endArrow=block;endSize=12;endFill=0;strokeColor=#24a394;exitX=0.879;exitY=1.002;exitDx=0;exitDy=0;entryX=0.288;entryY=0.001;entryDx=0;entryDy=0;">
      <mxGeometry width="50" height="50" relative="1" as="geometry">
        <Array as="points">
          <mxPoint x="636" y="1231" />
          <mxPoint x="749" y="1231" />
          <mxPoint x="809" y="1171" />
          <mxPoint x="1259" y="1171" />
          <mxPoint x="1298" y="1210" />
        </Array>
      </mxGeometry>
    </mxCell>
    <mxCell id="edge132" edge="1" value="" parent="1" source="node22" target="node4" style="html=1;rounded=1;;dashed=0;startArrow=none;endArrow=block;endSize=12;strokeColor=#3574f0;exitX=1.000;exitY=0.783;exitDx=0;exitDy=0;entryX=0.318;entryY=0.001;entryDx=0;entryDy=0;">
      <mxGeometry width="50" height="50" relative="1" as="geometry">
        <Array as="points">
          <mxPoint x="676" y="1146" />
          <mxPoint x="681" y="1151" />
          <mxPoint x="1250" y="1151" />
          <mxPoint x="1300" y="1201" />
        </Array>
      </mxGeometry>
    </mxCell>
    <mxCell id="edge151" edge="1" value="" parent="1" source="node36" target="node5" style="html=1;rounded=1;;dashed=0;startArrow=none;endArrow=block;endSize=12;strokeColor=#3574f0;exitX=1.001;exitY=0.326;exitDx=0;exitDy=0;entryX=0.397;entryY=1.002;entryDx=0;entryDy=0;">
      <mxGeometry width="50" height="50" relative="1" as="geometry">
        <Array as="points">
          <mxPoint x="2059" y="1611" />
          <mxPoint x="2151" y="1520" />
        </Array>
      </mxGeometry>
    </mxCell>
    <mxCell id="edge147" edge="1" value="" parent="1" source="node36" target="node6" style="html=1;rounded=1;;dashed=0;startArrow=none;endArrow=block;endSize=12;strokeColor=#3574f0;exitX=0.796;exitY=1.001;exitDx=0;exitDy=0;entryX=1.001;entryY=0.652;entryDx=0;entryDy=0;">
      <mxGeometry width="50" height="50" relative="1" as="geometry">
        <Array as="points">
          <mxPoint x="1292" y="1656" />
          <mxPoint x="2059" y="1656" />
          <mxPoint x="2341" y="1375" />
          <mxPoint x="2341" y="390" />
          <mxPoint x="2074" y="123" />
        </Array>
      </mxGeometry>
    </mxCell>
    <mxCell id="edge153" edge="1" value="" parent="1" source="node36" target="node22" style="html=1;rounded=1;;dashed=0;startArrow=none;endArrow=block;endSize=12;strokeColor=#3574f0;exitX=0.704;exitY=0.001;exitDx=0;exitDy=0;entryX=0.658;entryY=1.002;entryDx=0;entryDy=0;">
      <mxGeometry width="50" height="50" relative="1" as="geometry">
        <Array as="points">
          <mxPoint x="1286" y="1499" />
          <mxPoint x="1242" y="1455" />
          <mxPoint x="621" y="1455" />
        </Array>
      </mxGeometry>
    </mxCell>
    <mxCell id="edge40" edge="1" value="" parent="1" source="node36" target="node24" style="html=1;rounded=1;;dashed=0;startArrow=none;endArrow=block;endSize=12;strokeColor=#3574f0;exitX=0.612;exitY=1.001;exitDx=0;exitDy=0;entryX=0.572;entryY=0.001;entryDx=0;entryDy=0;">
      <mxGeometry width="50" height="50" relative="1" as="geometry">
        <Array as="points" />
      </mxGeometry>
    </mxCell>
    <mxCell id="edge135" edge="1" value="" parent="1" source="node36" target="node4" style="html=1;rounded=1;;dashed=0;startArrow=none;endArrow=block;endSize=12;strokeColor=#3574f0;exitX=1.001;exitY=0.217;exitDx=0;exitDy=0;entryX=0.924;entryY=1.001;entryDx=0;entryDy=0;">
      <mxGeometry width="50" height="50" relative="1" as="geometry">
        <Array as="points">
          <mxPoint x="1330" y="1608" />
          <mxPoint x="1340" y="1598" />
        </Array>
      </mxGeometry>
    </mxCell>
    <mxCell id="edge144" edge="1" value="" parent="1" source="node36" target="node4" style="html=1;rounded=1;;dashed=1;startArrow=none;endArrow=block;endSize=12;endFill=0;strokeColor=#24a394;exitX=0.888;exitY=0.001;exitDx=0;exitDy=0;entryX=0.288;entryY=1.001;entryDx=0;entryDy=0;">
      <mxGeometry width="50" height="50" relative="1" as="geometry">
        <Array as="points" />
      </mxGeometry>
    </mxCell>
    <mxCell id="edge150" edge="1" value="" parent="1" source="node24" target="node5" style="html=1;rounded=1;;dashed=0;startArrow=none;endArrow=block;endSize=12;strokeColor=#3574f0;exitX=1.000;exitY=0.783;exitDx=0;exitDy=0;entryX=0.483;entryY=1.001;entryDx=0;entryDy=0;">
      <mxGeometry width="50" height="50" relative="1" as="geometry">
        <Array as="points">
          <mxPoint x="2059" y="1696" />
          <mxPoint x="2156" y="1600" />
        </Array>
      </mxGeometry>
    </mxCell>
    <mxCell id="edge145" edge="1" value="" parent="1" source="node24" target="node6" style="html=1;rounded=1;;dashed=0;startArrow=none;endArrow=block;endSize=12;strokeColor=#3574f0;exitX=0.000;exitY=0.500;exitDx=0;exitDy=0;entryX=0.693;entryY=0.002;entryDx=0;entryDy=0;">
      <mxGeometry width="50" height="50" relative="1" as="geometry">
        <Array as="points">
          <mxPoint x="422" y="1690" />
          <mxPoint x="422" y="49" />
          <mxPoint x="1229" y="49" />
          <mxPoint x="1246" y="66" />
        </Array>
      </mxGeometry>
    </mxCell>
    <mxCell id="edge137" edge="1" value="" parent="1" source="node24" target="node4" style="html=1;rounded=1;;dashed=1;startArrow=none;endArrow=block;endSize=12;endFill=0;strokeColor=#24a394;exitX=0.116;exitY=0.001;exitDx=0;exitDy=0;entryX=0.379;entryY=1.001;entryDx=0;entryDy=0;">
      <mxGeometry width="50" height="50" relative="1" as="geometry">
        <Array as="points">
          <mxPoint x="1234" y="1573" />
          <mxPoint x="1289" y="1573" />
          <mxPoint x="1304" y="1558" />
        </Array>
      </mxGeometry>
    </mxCell>
    <mxCell id="edge142" edge="1" value="" parent="1" source="node24" target="node4" style="html=1;rounded=1;;dashed=0;startArrow=none;endArrow=block;endSize=12;strokeColor=#3574f0;exitX=1.000;exitY=0.217;exitDx=0;exitDy=0;entryX=1.001;entryY=0.559;entryDx=0;entryDy=0;">
      <mxGeometry width="50" height="50" relative="1" as="geometry">
        <Array as="points">
          <mxPoint x="1387" y="1683" />
          <mxPoint x="1413" y="1657" />
          <mxPoint x="1413" y="1351" />
          <mxPoint x="1393" y="1331" />
        </Array>
      </mxGeometry>
    </mxCell>
    <mxCell id="edge154" edge="1" value="" parent="1" source="node45" target="node22" style="html=1;rounded=1;;dashed=0;startArrow=none;endArrow=block;endSize=12;strokeColor=#3574f0;exitX=0.612;exitY=1.002;exitDx=0;exitDy=0;entryX=0.158;entryY=1.002;entryDx=0;entryDy=0;">
      <mxGeometry width="50" height="50" relative="1" as="geometry">
        <Array as="points">
          <mxPoint x="1258" y="1773" />
          <mxPoint x="1250" y="1781" />
          <mxPoint x="587" y="1781" />
        </Array>
      </mxGeometry>
    </mxCell>
    <mxCell id="edge30" edge="1" value="" parent="1" source="node45" target="node46" style="html=1;rounded=1;;dashed=0;startArrow=none;endArrow=block;endSize=12;strokeColor=#3574f0;exitX=0.399;exitY=1.001;exitDx=0;exitDy=0;entryX=0.397;entryY=0.001;entryDx=0;entryDy=0;">
      <mxGeometry width="50" height="50" relative="1" as="geometry">
        <Array as="points" />
      </mxGeometry>
    </mxCell>
    <mxCell id="edge138" edge="1" value="" parent="1" source="node45" target="node4" style="html=1;rounded=1;;dashed=1;startArrow=none;endArrow=block;endSize=12;endFill=0;strokeColor=#24a394;exitX=0.101;exitY=0.001;exitDx=0;exitDy=0;entryX=0.833;entryY=1.001;entryDx=0;entryDy=0;">
      <mxGeometry width="50" height="50" relative="1" as="geometry">
        <Array as="points">
          <mxPoint x="1210" y="1511" />
          <mxPoint x="1297" y="1511" />
          <mxPoint x="1334" y="1474" />
        </Array>
      </mxGeometry>
    </mxCell>
    <mxCell id="edge141" edge="1" value="" parent="1" source="node45" target="node4" style="html=1;rounded=1;;dashed=0;startArrow=none;endArrow=block;endSize=12;strokeColor=#3574f0;exitX=0.000;exitY=0.500;exitDx=0;exitDy=0;entryX=0.136;entryY=0.002;entryDx=0;entryDy=0;">
      <mxGeometry width="50" height="50" relative="1" as="geometry">
        <Array as="points">
          <mxPoint x="861" y="1740" />
          <mxPoint x="861" y="1187" />
          <mxPoint x="1249" y="1187" />
          <mxPoint x="1288" y="1226" />
        </Array>
      </mxGeometry>
    </mxCell>
    <mxCell id="edge149" edge="1" value="" parent="1" source="node46" target="node5" style="html=1;rounded=1;;dashed=0;startArrow=none;endArrow=block;endSize=12;strokeColor=#3574f0;exitX=1.001;exitY=0.541;exitDx=0;exitDy=0;entryX=0.655;entryY=1.002;entryDx=0;entryDy=0;">
      <mxGeometry width="50" height="50" relative="1" as="geometry">
        <Array as="points">
          <mxPoint x="2059" y="1816" />
          <mxPoint x="2166" y="1710" />
        </Array>
      </mxGeometry>
    </mxCell>
    <mxCell id="edge148" edge="1" value="" parent="1" source="node46" target="node6" style="html=1;rounded=1;;dashed=0;startArrow=none;endArrow=block;endSize=12;strokeColor=#3574f0;exitX=0.609;exitY=1.001;exitDx=0;exitDy=0;entryX=1.001;entryY=0.435;entryDx=0;entryDy=0;">
      <mxGeometry width="50" height="50" relative="1" as="geometry">
        <Array as="points">
          <mxPoint x="1258" y="2079" />
          <mxPoint x="2021" y="2079" />
          <mxPoint x="2349" y="1752" />
          <mxPoint x="2349" y="393" />
          <mxPoint x="2074" y="118" />
        </Array>
      </mxGeometry>
    </mxCell>
    <mxCell id="edge139" edge="1" value="" parent="1" source="node46" target="node4" style="html=1;rounded=1;;dashed=1;startArrow=none;endArrow=block;endSize=12;endFill=0;strokeColor=#24a394;exitX=0.000;exitY=0.348;exitDx=0;exitDy=0;entryX=0.152;entryY=0.002;entryDx=0;entryDy=0;">
      <mxGeometry width="50" height="50" relative="1" as="geometry">
        <Array as="points">
          <mxPoint x="853" y="1811" />
          <mxPoint x="853" y="1183" />
          <mxPoint x="1249" y="1183" />
          <mxPoint x="1289" y="1223" />
        </Array>
      </mxGeometry>
    </mxCell>
    <mxCell id="edge143" edge="1" value="" parent="1" source="node46" target="node4" style="html=1;rounded=1;;dashed=0;startArrow=none;endArrow=block;endSize=12;strokeColor=#3574f0;exitX=0.391;exitY=1.001;exitDx=0;exitDy=0;entryX=0.167;entryY=0.001;entryDx=0;entryDy=0;">
      <mxGeometry width="50" height="50" relative="1" as="geometry">
        <Array as="points">
          <mxPoint x="1238" y="1855" />
          <mxPoint x="1226" y="1866" />
          <mxPoint x="845" y="1866" />
          <mxPoint x="845" y="1136" />
          <mxPoint x="1236" y="1136" />
          <mxPoint x="1290" y="1190" />
        </Array>
      </mxGeometry>
    </mxCell>
    <mxCell id="edge50" edge="1" value="" parent="1" source="node30" target="node42" style="html=1;rounded=1;;dashed=0;startArrow=none;endArrow=block;endSize=12;strokeColor=#3574f0;exitX=0.267;exitY=1.001;exitDx=0;exitDy=0;entryX=0.285;entryY=0.001;entryDx=0;entryDy=0;">
      <mxGeometry width="50" height="50" relative="1" as="geometry">
        <Array as="points" />
      </mxGeometry>
    </mxCell>
    <mxCell id="edge190" edge="1" value="" parent="1" source="node30" target="node22" style="html=1;rounded=1;;dashed=0;startArrow=none;endArrow=block;endSize=12;strokeColor=#3574f0;exitX=1.000;exitY=0.500;exitDx=0;exitDy=0;entryX=0.085;entryY=1.002;entryDx=0;entryDy=0;">
      <mxGeometry width="50" height="50" relative="1" as="geometry">
        <Array as="points">
          <mxPoint x="1854" y="1365" />
          <mxPoint x="1868" y="1379" />
          <mxPoint x="1868" y="1739" />
          <mxPoint x="1708" y="1898" />
          <mxPoint x="582" y="1898" />
        </Array>
      </mxGeometry>
    </mxCell>
    <mxCell id="edge173" edge="1" value="" parent="1" source="node30" target="node4" style="html=1;rounded=1;;dashed=1;startArrow=none;endArrow=block;endSize=12;endFill=0;strokeColor=#24a394;exitX=0.500;exitY=1.002;exitDx=0;exitDy=0;entryX=1.001;entryY=0.559;entryDx=0;entryDy=0;">
      <mxGeometry width="50" height="50" relative="1" as="geometry">
        <Array as="points">
          <mxPoint x="1779" y="1398" />
          <mxPoint x="1771" y="1406" />
          <mxPoint x="1615" y="1406" />
          <mxPoint x="1540" y="1331" />
        </Array>
      </mxGeometry>
    </mxCell>
    <mxCell id="edge182" edge="1" value="" parent="1" source="node30" target="node4" style="html=1;rounded=1;;dashed=0;startArrow=none;endArrow=block;endSize=12;strokeColor=#3574f0;exitX=0.001;exitY=0.500;exitDx=0;exitDy=0;entryX=0.470;entryY=0.002;entryDx=0;entryDy=0;">
      <mxGeometry width="50" height="50" relative="1" as="geometry">
        <Array as="points">
          <mxPoint x="1531" y="1365" />
          <mxPoint x="1531" y="1199" />
          <mxPoint x="1495" y="1163" />
          <mxPoint x="1310" y="1163" />
        </Array>
      </mxGeometry>
    </mxCell>
    <mxCell id="edge27" edge="1" value="" parent="1" source="node41" target="node27" style="html=1;rounded=1;;dashed=0;startArrow=none;endArrow=block;endSize=12;strokeColor=#3574f0;exitX=1.000;exitY=0.500;exitDx=0;exitDy=0;entryX=0.000;entryY=0.500;entryDx=0;entryDy=0;">
      <mxGeometry width="50" height="50" relative="1" as="geometry">
        <Array as="points" />
      </mxGeometry>
    </mxCell>
    <mxCell id="edge189" edge="1" value="" parent="1" source="node41" target="node22" style="html=1;rounded=1;;dashed=0;startArrow=none;endArrow=block;endSize=12;strokeColor=#3574f0;exitX=0.622;exitY=0.001;exitDx=0;exitDy=0;entryX=1.001;entryY=0.543;entryDx=0;entryDy=0;">
      <mxGeometry width="50" height="50" relative="1" as="geometry">
        <Array as="points">
          <mxPoint x="1818" y="1167" />
          <mxPoint x="1792" y="1141" />
        </Array>
      </mxGeometry>
    </mxCell>
    <mxCell id="edge44" edge="1" value="" parent="1" source="node41" target="node34" style="html=1;rounded=1;;dashed=0;startArrow=none;endArrow=block;endSize=12;strokeColor=#3574f0;exitX=0.326;exitY=1.001;exitDx=0;exitDy=0;entryX=0.283;entryY=0.001;entryDx=0;entryDy=0;">
      <mxGeometry width="50" height="50" relative="1" as="geometry">
        <Array as="points" />
      </mxGeometry>
    </mxCell>
    <mxCell id="edge178" edge="1" value="" parent="1" source="node41" target="node4" style="html=1;rounded=1;;dashed=1;startArrow=none;endArrow=block;endSize=12;endFill=0;strokeColor=#24a394;exitX=0.413;exitY=0.001;exitDx=0;exitDy=0;entryX=0.394;entryY=0.001;entryDx=0;entryDy=0;">
      <mxGeometry width="50" height="50" relative="1" as="geometry">
        <Array as="points">
          <mxPoint x="1794" y="1105" />
          <mxPoint x="1741" y="1052" />
          <mxPoint x="1305" y="1052" />
        </Array>
      </mxGeometry>
    </mxCell>
    <mxCell id="edge179" edge="1" value="" parent="1" source="node41" target="node4" style="html=1;rounded=1;;dashed=0;startArrow=none;endArrow=block;endSize=12;strokeColor=#3574f0;exitX=0.517;exitY=0.001;exitDx=0;exitDy=0;entryX=0.409;entryY=0.001;entryDx=0;entryDy=0;">
      <mxGeometry width="50" height="50" relative="1" as="geometry">
        <Array as="points">
          <mxPoint x="1806" y="1109" />
          <mxPoint x="1755" y="1058" />
          <mxPoint x="1306" y="1058" />
        </Array>
      </mxGeometry>
    </mxCell>
    <mxCell id="edge56" edge="1" value="" parent="1" source="node41" target="node17" style="html=1;rounded=1;;dashed=0;startArrow=none;endArrow=block;endSize=12;strokeColor=#3574f0;exitX=0.000;exitY=0.217;exitDx=0;exitDy=0;entryX=1.000;entryY=0.217;entryDx=0;entryDy=0;">
      <mxGeometry width="50" height="50" relative="1" as="geometry">
        <Array as="points">
          <mxPoint x="1625" y="1233" />
          <mxPoint x="1625" y="1673" />
          <mxPoint x="1565" y="1733" />
        </Array>
      </mxGeometry>
    </mxCell>
    <mxCell id="edge128" edge="1" value="" parent="1" source="node38" target="node4" style="html=1;rounded=1;;dashed=0;startArrow=none;endArrow=block;endSize=12;strokeColor=#3574f0;exitX=0.425;exitY=0.001;exitDx=0;exitDy=0;entryX=0.303;entryY=0.001;entryDx=0;entryDy=0;">
      <mxGeometry width="50" height="50" relative="1" as="geometry">
        <Array as="points">
          <mxPoint x="627" y="756" />
          <mxPoint x="1017" y="756" />
          <mxPoint x="1081" y="820" />
          <mxPoint x="1081" y="971" />
          <mxPoint x="1234" y="971" />
          <mxPoint x="1299" y="1036" />
        </Array>
      </mxGeometry>
    </mxCell>
    <mxCell id="edge130" edge="1" value="" parent="1" source="node38" target="node4" style="html=1;rounded=1;;dashed=1;startArrow=none;endArrow=block;endSize=12;endFill=0;strokeColor=#24a394;exitX=0.882;exitY=0.001;exitDx=0;exitDy=0;entryX=0.364;entryY=0.001;entryDx=0;entryDy=0;">
      <mxGeometry width="50" height="50" relative="1" as="geometry">
        <Array as="points">
          <mxPoint x="680" y="998" />
          <mxPoint x="1207" y="998" />
          <mxPoint x="1303" y="1094" />
        </Array>
      </mxGeometry>
    </mxCell>
    <mxCell id="edge121" edge="1" value="" parent="1" source="node18" target="node5" style="html=1;rounded=1;;dashed=0;startArrow=none;endArrow=block;endSize=12;strokeColor=#3574f0;exitX=0.509;exitY=0.002;exitDx=0;exitDy=0;entryX=0.569;entryY=0.001;entryDx=0;entryDy=0;">
      <mxGeometry width="50" height="50" relative="1" as="geometry">
        <Array as="points">
          <mxPoint x="1311" y="532" />
          <mxPoint x="2059" y="532" />
          <mxPoint x="2161" y="633" />
        </Array>
      </mxGeometry>
    </mxCell>
    <mxCell id="edge110" edge="1" value="" parent="1" source="node18" target="node6" style="html=1;rounded=1;;dashed=0;startArrow=none;endArrow=block;endSize=12;strokeColor=#3574f0;exitX=0.000;exitY=0.217;exitDx=0;exitDy=0;entryX=0.250;entryY=1.001;entryDx=0;entryDy=0;">
      <mxGeometry width="50" height="50" relative="1" as="geometry">
        <Array as="points">
          <mxPoint x="1213" y="633" />
        </Array>
      </mxGeometry>
    </mxCell>
    <mxCell id="edge88" edge="1" value="" parent="1" source="node18" target="node4" style="html=1;rounded=1;;dashed=0;startArrow=none;endArrow=block;endSize=12;strokeColor=#3574f0;exitX=0.957;exitY=0.001;exitDx=0;exitDy=0;entryX=0.561;entryY=0.002;entryDx=0;entryDy=0;">
      <mxGeometry width="50" height="50" relative="1" as="geometry">
        <Array as="points">
          <mxPoint x="1363" y="598" />
          <mxPoint x="1510" y="598" />
          <mxPoint x="1571" y="659" />
          <mxPoint x="1571" y="909" />
          <mxPoint x="1495" y="985" />
          <mxPoint x="1316" y="985" />
        </Array>
      </mxGeometry>
    </mxCell>
    <mxCell id="edge92" edge="1" value="" parent="1" source="node18" target="node4" style="html=1;rounded=1;;dashed=1;startArrow=none;endArrow=block;endSize=12;endFill=0;strokeColor=#24a394;exitX=1.000;exitY=0.217;exitDx=0;exitDy=0;entryX=0.545;entryY=0.002;entryDx=0;entryDy=0;">
      <mxGeometry width="50" height="50" relative="1" as="geometry">
        <Array as="points">
          <mxPoint x="1504" y="633" />
          <mxPoint x="1561" y="690" />
          <mxPoint x="1561" y="905" />
          <mxPoint x="1488" y="978" />
          <mxPoint x="1315" y="978" />
        </Array>
      </mxGeometry>
    </mxCell>
    <mxCell id="edge187" edge="1" value="" parent="1" source="node34" target="node5" style="html=1;rounded=1;;dashed=0;startArrow=none;endArrow=block;endSize=12;strokeColor=#3574f0;exitX=1.000;exitY=0.500;exitDx=0;exitDy=0;entryX=0.224;entryY=1.001;entryDx=0;entryDy=0;">
      <mxGeometry width="50" height="50" relative="1" as="geometry">
        <Array as="points">
          <mxPoint x="2086" y="1315" />
          <mxPoint x="2141" y="1261" />
        </Array>
      </mxGeometry>
    </mxCell>
    <mxCell id="edge185" edge="1" value="" parent="1" source="node34" target="node6" style="html=1;rounded=1;;dashed=0;startArrow=none;endArrow=block;endSize=12;strokeColor=#3574f0;exitX=0.717;exitY=0.002;exitDx=0;exitDy=0;entryX=1.001;entryY=0.783;entryDx=0;entryDy=0;">
      <mxGeometry width="50" height="50" relative="1" as="geometry">
        <Array as="points">
          <mxPoint x="1824" y="1268" />
          <mxPoint x="1809" y="1253" />
          <mxPoint x="1551" y="1253" />
          <mxPoint x="1551" y="210" />
          <mxPoint x="1467" y="126" />
        </Array>
      </mxGeometry>
    </mxCell>
    <mxCell id="edge174" edge="1" value="" parent="1" source="node34" target="node4" style="html=1;rounded=1;;dashed=1;startArrow=none;endArrow=block;endSize=12;endFill=0;strokeColor=#24a394;exitX=0.000;exitY=0.326;exitDx=0;exitDy=0;entryX=0.485;entryY=0.002;entryDx=0;entryDy=0;">
      <mxGeometry width="50" height="50" relative="1" as="geometry">
        <Array as="points">
          <mxPoint x="1521" y="1311" />
          <mxPoint x="1521" y="1189" />
          <mxPoint x="1487" y="1155" />
          <mxPoint x="1311" y="1155" />
        </Array>
      </mxGeometry>
    </mxCell>
    <mxCell id="edge177" edge="1" value="" parent="1" source="node34" target="node4" style="html=1;rounded=1;;dashed=0;startArrow=none;endArrow=block;endSize=12;strokeColor=#3574f0;exitX=0.500;exitY=0.002;exitDx=0;exitDy=0;entryX=0.500;entryY=0.002;entryDx=0;entryDy=0;">
      <mxGeometry width="50" height="50" relative="1" as="geometry">
        <Array as="points">
          <mxPoint x="1804" y="1282" />
          <mxPoint x="1795" y="1273" />
          <mxPoint x="1511" y="1273" />
          <mxPoint x="1511" y="1179" />
          <mxPoint x="1491" y="1159" />
          <mxPoint x="1312" y="1159" />
        </Array>
      </mxGeometry>
    </mxCell>
    <mxCell id="edge34" edge="1" value="" parent="1" source="node31" target="node16" style="html=1;rounded=1;;dashed=0;startArrow=none;endArrow=block;endSize=12;strokeColor=#3574f0;exitX=0.000;exitY=0.500;exitDx=0;exitDy=0;entryX=0.001;entryY=0.359;entryDx=0;entryDy=0;">
      <mxGeometry width="50" height="50" relative="1" as="geometry">
        <Array as="points">
          <mxPoint x="522" y="1090" />
          <mxPoint x="522" y="1501" />
        </Array>
      </mxGeometry>
    </mxCell>
    <mxCell id="edge127" edge="1" value="" parent="1" source="node31" target="node4" style="html=1;rounded=1;;dashed=0;startArrow=none;endArrow=block;endSize=12;strokeColor=#3574f0;exitX=1.001;exitY=0.783;exitDx=0;exitDy=0;entryX=0.348;entryY=0.002;entryDx=0;entryDy=0;">
      <mxGeometry width="50" height="50" relative="1" as="geometry">
        <Array as="points">
          <mxPoint x="665" y="1096" />
          <mxPoint x="684" y="1077" />
          <mxPoint x="1230" y="1077" />
          <mxPoint x="1302" y="1149" />
        </Array>
      </mxGeometry>
    </mxCell>
    <mxCell id="edge129" edge="1" value="" parent="1" source="node31" target="node4" style="html=1;rounded=1;;dashed=1;startArrow=none;endArrow=block;endSize=12;endFill=0;strokeColor=#24a394;exitX=1.001;exitY=0.395;exitDx=0;exitDy=0;entryX=0.333;entryY=0.002;entryDx=0;entryDy=0;">
      <mxGeometry width="50" height="50" relative="1" as="geometry">
        <Array as="points">
          <mxPoint x="1232" y="1087" />
          <mxPoint x="1301" y="1156" />
        </Array>
      </mxGeometry>
    </mxCell>
    <mxCell id="edge68" edge="1" value="" parent="1" source="node39" target="node37" style="html=1;rounded=1;;dashed=0;startArrow=none;endArrow=block;endSize=12;strokeColor=#3574f0;exitX=0.377;exitY=0.001;exitDx=0;exitDy=0;entryX=0.696;entryY=1.002;entryDx=0;entryDy=0;">
      <mxGeometry width="50" height="50" relative="1" as="geometry">
        <Array as="points">
          <mxPoint x="1652" y="612" />
          <mxPoint x="1608" y="568" />
          <mxPoint x="1323" y="568" />
        </Array>
      </mxGeometry>
    </mxCell>
    <mxCell id="edge36" edge="1" value="" parent="1" source="node39" target="node11" style="html=1;rounded=1;;dashed=0;startArrow=none;endArrow=block;endSize=12;strokeColor=#3574f0;exitX=0.623;exitY=0.002;exitDx=0;exitDy=0;entryX=0.897;entryY=0.002;entryDx=0;entryDy=0;">
      <mxGeometry width="50" height="50" relative="1" as="geometry">
        <Array as="points">
          <mxPoint x="1672" y="338" />
          <mxPoint x="2383" y="338" />
          <mxPoint x="2688" y="643" />
        </Array>
      </mxGeometry>
    </mxCell>
    <mxCell id="edge52" edge="1" value="" parent="1" source="node39" target="node33" style="html=1;rounded=1;;dashed=0;startArrow=none;endArrow=block;endSize=12;strokeColor=#3574f0;exitX=1.001;exitY=0.500;exitDx=0;exitDy=0;entryX=0.691;entryY=1.001;entryDx=0;entryDy=0;">
      <mxGeometry width="50" height="50" relative="1" as="geometry">
        <Array as="points">
          <mxPoint x="1792" y="729" />
          <mxPoint x="1830" y="691" />
        </Array>
      </mxGeometry>
    </mxCell>
    <mxCell id="edge32" edge="1" value="" parent="1" source="node39" target="node4" style="html=1;rounded=1;;dashed=0;startArrow=none;endArrow=block;endSize=12;strokeColor=#3574f0;exitX=0.790;exitY=1.002;exitDx=0;exitDy=0;entryX=0.576;entryY=0.002;entryDx=0;entryDy=0;">
      <mxGeometry width="50" height="50" relative="1" as="geometry">
        <Array as="points">
          <mxPoint x="1685" y="946" />
          <mxPoint x="1598" y="1033" />
          <mxPoint x="1317" y="1033" />
        </Array>
      </mxGeometry>
    </mxCell>
    <mxCell id="edge79" edge="1" value="" parent="1" source="node4" target="node5" style="html=1;rounded=1;;dashed=0;startArrow=none;endArrow=block;endSize=12;strokeColor=#3574f0;exitX=0.379;exitY=0.001;exitDx=0;exitDy=0;entryX=0.000;entryY=0.217;entryDx=0;entryDy=0;">
      <mxGeometry width="50" height="50" relative="1" as="geometry">
        <Array as="points">
          <mxPoint x="1304" y="1113" />
        </Array>
      </mxGeometry>
    </mxCell>
    <mxCell id="edge14" edge="1" value="" parent="1" source="node4" target="node10" style="html=1;rounded=1;;dashed=0;startArrow=none;endArrow=block;endSize=12;strokeColor=#3574f0;exitX=0.242;exitY=0.002;exitDx=0;exitDy=0;entryX=0.950;entryY=1.001;entryDx=0;entryDy=0;">
      <mxGeometry width="50" height="50" relative="1" as="geometry">
        <Array as="points">
          <mxPoint x="1295" y="1145" />
          <mxPoint x="1221" y="1071" />
          <mxPoint x="907" y="1071" />
        </Array>
      </mxGeometry>
    </mxCell>
    <mxCell id="edge25" edge="1" value="" parent="1" source="node4" target="node16" style="html=1;rounded=1;;dashed=0;startArrow=none;endArrow=block;endSize=12;strokeColor=#3574f0;exitX=0.273;exitY=0.001;exitDx=0;exitDy=0;entryX=0.744;entryY=0.002;entryDx=0;entryDy=0;">
      <mxGeometry width="50" height="50" relative="1" as="geometry">
        <Array as="points">
          <mxPoint x="1297" y="1209" />
          <mxPoint x="1263" y="1175" />
          <mxPoint x="789" y="1175" />
          <mxPoint x="789" y="1283" />
          <mxPoint x="746" y="1325" />
          <mxPoint x="646" y="1325" />
        </Array>
      </mxGeometry>
    </mxCell>
    <mxCell id="edge54" edge="1" value="" parent="1" source="node4" target="node39" style="html=1;rounded=1;;dashed=0;startArrow=none;endArrow=block;endSize=12;strokeColor=#3574f0;exitX=0.591;exitY=0.002;exitDx=0;exitDy=0;entryX=0.667;entryY=1.002;entryDx=0;entryDy=0;">
      <mxGeometry width="50" height="50" relative="1" as="geometry">
        <Array as="points">
          <mxPoint x="1318" y="991" />
          <mxPoint x="1601" y="991" />
          <mxPoint x="1675" y="917" />
        </Array>
      </mxGeometry>
    </mxCell>
    <mxCell id="edge1" edge="1" value="" parent="1" source="node4" target="node4" style="html=1;rounded=1;;dashed=0;startArrow=none;endArrow=block;endSize=12;strokeColor=#3574f0;exitX=0.470;exitY=1.002;exitDx=0;exitDy=0;entryX=0.000;entryY=0.298;entryDx=0;entryDy=0;">
      <mxGeometry width="50" height="50" relative="1" as="geometry">
        <Array as="points">
          <mxPoint x="1310" y="1380" />
          <mxPoint x="1294" y="1396" />
          <mxPoint x="1246" y="1396" />
          <mxPoint x="1246" y="1325" />
        </Array>
      </mxGeometry>
    </mxCell>
    <mxCell id="edge102" edge="1" value="" parent="1" source="node0" target="node37" style="html=1;rounded=1;;dashed=0;startArrow=none;endArrow=block;endSize=12;strokeColor=#3574f0;exitX=0.000;exitY=0.217;exitDx=0;exitDy=0;entryX=0.268;entryY=1.002;entryDx=0;entryDy=0;">
      <mxGeometry width="50" height="50" relative="1" as="geometry">
        <Array as="points">
          <mxPoint x="1076" y="833" />
          <mxPoint x="1076" y="498" />
          <mxPoint x="1290" y="498" />
          <mxPoint x="1299" y="489" />
        </Array>
      </mxGeometry>
    </mxCell>
    <mxCell id="edge124" edge="1" value="" parent="1" source="node0" target="node5" style="html=1;rounded=1;;dashed=0;startArrow=none;endArrow=block;endSize=12;strokeColor=#3574f0;exitX=0.944;exitY=1.002;exitDx=0;exitDy=0;entryX=0.224;entryY=0.001;entryDx=0;entryDy=0;">
      <mxGeometry width="50" height="50" relative="1" as="geometry">
        <Array as="points">
          <mxPoint x="1262" y="944" />
          <mxPoint x="2092" y="944" />
          <mxPoint x="2141" y="993" />
        </Array>
      </mxGeometry>
    </mxCell>
    <mxCell id="edge113" edge="1" value="" parent="1" source="node0" target="node6" style="html=1;rounded=1;;dashed=0;startArrow=none;endArrow=block;endSize=12;strokeColor=#3574f0;exitX=0.842;exitY=1.002;exitDx=0;exitDy=0;entryX=0.293;entryY=0.002;entryDx=0;entryDy=0;">
      <mxGeometry width="50" height="50" relative="1" as="geometry">
        <Array as="points">
          <mxPoint x="1250" y="1009" />
          <mxPoint x="1201" y="1058" />
          <mxPoint x="1086" y="1058" />
          <mxPoint x="1086" y="-128" />
          <mxPoint x="1177" y="-128" />
          <mxPoint x="1216" y="-89" />
        </Array>
      </mxGeometry>
    </mxCell>
    <mxCell id="edge99" edge="1" value="" parent="1" source="node0" target="node33" style="html=1;rounded=1;;dashed=0;startArrow=none;endArrow=block;endSize=12;strokeColor=#3574f0;exitX=0.910;exitY=1.002;exitDx=0;exitDy=0;entryX=0.947;entryY=1.002;entryDx=0;entryDy=0;">
      <mxGeometry width="50" height="50" relative="1" as="geometry">
        <Array as="points">
          <mxPoint x="1258" y="937" />
          <mxPoint x="1713" y="937" />
          <mxPoint x="1854" y="796" />
        </Array>
      </mxGeometry>
    </mxCell>
    <mxCell id="edge86" edge="1" value="" parent="1" source="node0" target="node39" style="html=1;rounded=1;;dashed=0;startArrow=none;endArrow=block;endSize=12;strokeColor=#3574f0;exitX=1.000;exitY=0.217;exitDx=0;exitDy=0;entryX=0.543;entryY=1.001;entryDx=0;entryDy=0;">
      <mxGeometry width="50" height="50" relative="1" as="geometry">
        <Array as="points">
          <mxPoint x="1638" y="833" />
          <mxPoint x="1665" y="806" />
        </Array>
      </mxGeometry>
    </mxCell>
    <mxCell id="edge87" edge="1" value="" parent="1" source="node0" target="node4" style="html=1;rounded=1;;dashed=0;startArrow=none;endArrow=block;endSize=12;strokeColor=#3574f0;exitX=0.876;exitY=1.001;exitDx=0;exitDy=0;entryX=0.197;entryY=0.002;entryDx=0;entryDy=0;">
      <mxGeometry width="50" height="50" relative="1" as="geometry">
        <Array as="points">
          <mxPoint x="1254" y="957" />
          <mxPoint x="1292" y="995" />
        </Array>
      </mxGeometry>
    </mxCell>
    <mxCell id="edge95" edge="1" value="" parent="1" source="node0" target="node4" style="html=1;rounded=1;;dashed=1;startArrow=none;endArrow=block;endSize=12;endFill=0;strokeColor=#24a394;exitX=0.957;exitY=1.002;exitDx=0;exitDy=0;entryX=0.182;entryY=0.002;entryDx=0;entryDy=0;">
      <mxGeometry width="50" height="50" relative="1" as="geometry">
        <Array as="points">
          <mxPoint x="1263" y="950" />
          <mxPoint x="1291" y="978" />
        </Array>
      </mxGeometry>
    </mxCell>
    <mxCell id="edge169" edge="1" value="" parent="1" source="node3" target="node5" style="html=1;rounded=1;;dashed=0;startArrow=none;endArrow=block;endSize=12;strokeColor=#3574f0;exitX=0.867;exitY=0.002;exitDx=0;exitDy=0;entryX=0.776;entryY=0.001;entryDx=0;entryDy=0;">
      <mxGeometry width="50" height="50" relative="1" as="geometry">
        <Array as="points">
          <mxPoint x="991" y="59" />
          <mxPoint x="2062" y="59" />
          <mxPoint x="2173" y="170" />
        </Array>
      </mxGeometry>
    </mxCell>
    <mxCell id="edge166" edge="1" value="" parent="1" source="node3" target="node6" style="html=1;rounded=1;;dashed=0;startArrow=none;endArrow=block;endSize=12;strokeColor=#3574f0;exitX=0.800;exitY=0.002;exitDx=0;exitDy=0;entryX=0.533;entryY=0.001;entryDx=0;entryDy=0;">
      <mxGeometry width="50" height="50" relative="1" as="geometry">
        <Array as="points">
          <mxPoint x="986" y="-55" />
          <mxPoint x="1186" y="-55" />
          <mxPoint x="1234" y="-7" />
        </Array>
      </mxGeometry>
    </mxCell>
    <mxCell id="edge172" edge="1" value="" parent="1" source="node3" target="node22" style="html=1;rounded=1;;dashed=0;startArrow=none;endArrow=block;endSize=12;strokeColor=#3574f0;exitX=0.000;exitY=0.783;exitDx=0;exitDy=0;entryX=0.805;entryY=1.001;entryDx=0;entryDy=0;">
      <mxGeometry width="50" height="50" relative="1" as="geometry">
        <Array as="points">
          <mxPoint x="631" y="1284" />
        </Array>
      </mxGeometry>
    </mxCell>
    <mxCell id="edge155" edge="1" value="" parent="1" source="node3" target="node4" style="html=1;rounded=1;;dashed=0;startArrow=none;endArrow=block;endSize=12;strokeColor=#3574f0;exitX=0.733;exitY=0.001;exitDx=0;exitDy=0;entryX=0.106;entryY=0.002;entryDx=0;entryDy=0;">
      <mxGeometry width="50" height="50" relative="1" as="geometry">
        <Array as="points">
          <mxPoint x="981" y="1205" />
          <mxPoint x="1252" y="1205" />
          <mxPoint x="1286" y="1239" />
        </Array>
      </mxGeometry>
    </mxCell>
    <mxCell id="edge158" edge="1" value="" parent="1" source="node3" target="node4" style="html=1;rounded=1;;dashed=1;startArrow=none;endArrow=block;endSize=12;endFill=0;strokeColor=#24a394;exitX=0.933;exitY=0.002;exitDx=0;exitDy=0;entryX=0.121;entryY=0.002;entryDx=0;entryDy=0;">
      <mxGeometry width="50" height="50" relative="1" as="geometry">
        <Array as="points">
          <mxPoint x="996" y="1191" />
          <mxPoint x="1249" y="1191" />
          <mxPoint x="1287" y="1229" />
        </Array>
      </mxGeometry>
    </mxCell>
    <mxCell id="edge46" edge="1" value="" parent="1" source="node3" target="node21" style="html=1;rounded=1;;dashed=0;startArrow=none;endArrow=block;endSize=12;strokeColor=#3574f0;exitX=1.000;exitY=0.500;exitDx=0;exitDy=0;entryX=0.000;entryY=0.500;entryDx=0;entryDy=0;">
      <mxGeometry width="50" height="50" relative="1" as="geometry">
        <Array as="points" />
      </mxGeometry>
    </mxCell>
    <mxCell id="edge48" edge="1" value="" parent="1" source="node3" target="node40" style="html=1;rounded=1;;dashed=0;startArrow=none;endArrow=block;endSize=12;strokeColor=#3574f0;exitX=0.500;exitY=1.001;exitDx=0;exitDy=0;entryX=0.500;entryY=0.001;entryDx=0;entryDy=0;">
      <mxGeometry width="50" height="50" relative="1" as="geometry">
        <Array as="points" />
      </mxGeometry>
    </mxCell>
    <mxCell id="edge168" edge="1" value="" parent="1" source="node21" target="node5" style="html=1;rounded=1;;dashed=0;startArrow=none;endArrow=block;endSize=12;strokeColor=#3574f0;exitX=0.393;exitY=0.002;exitDx=0;exitDy=0;entryX=0.707;entryY=0.001;entryDx=0;entryDy=0;">
      <mxGeometry width="50" height="50" relative="1" as="geometry">
        <Array as="points">
          <mxPoint x="1101" y="-92" />
          <mxPoint x="2006" y="-92" />
          <mxPoint x="2169" y="70" />
        </Array>
      </mxGeometry>
    </mxCell>
    <mxCell id="edge163" edge="1" value="" parent="1" source="node21" target="node6" style="html=1;rounded=1;;dashed=0;startArrow=none;endArrow=block;endSize=12;strokeColor=#3574f0;exitX=0.351;exitY=0.002;exitDx=0;exitDy=0;entryX=0.453;entryY=0.001;entryDx=0;entryDy=0;">
      <mxGeometry width="50" height="50" relative="1" as="geometry">
        <Array as="points">
          <mxPoint x="1096" y="-37" />
          <mxPoint x="1189" y="-37" />
          <mxPoint x="1228" y="2" />
        </Array>
      </mxGeometry>
    </mxCell>
    <mxCell id="edge159" edge="1" value="" parent="1" source="node21" target="node4" style="html=1;rounded=1;;dashed=1;startArrow=none;endArrow=block;endSize=12;endFill=0;strokeColor=#24a394;exitX=0.914;exitY=0.001;exitDx=0;exitDy=0;entryX=0.091;entryY=0.001;entryDx=0;entryDy=0;">
      <mxGeometry width="50" height="50" relative="1" as="geometry">
        <Array as="points">
          <mxPoint x="1163" y="1236" />
          <mxPoint x="1261" y="1236" />
          <mxPoint x="1285" y="1260" />
        </Array>
      </mxGeometry>
    </mxCell>
    <mxCell id="edge162" edge="1" value="" parent="1" source="node21" target="node4" style="html=1;rounded=1;;dashed=0;startArrow=none;endArrow=block;endSize=12;strokeColor=#3574f0;exitX=1.000;exitY=0.500;exitDx=0;exitDy=0;entryX=0.076;entryY=0.001;entryDx=0;entryDy=0;">
      <mxGeometry width="50" height="50" relative="1" as="geometry">
        <Array as="points">
          <mxPoint x="1272" y="1277" />
          <mxPoint x="1284" y="1289" />
        </Array>
      </mxGeometry>
    </mxCell>
    <mxCell id="edge167" edge="1" value="" parent="1" source="node40" target="node5" style="html=1;rounded=1;;dashed=0;startArrow=none;endArrow=block;endSize=12;strokeColor=#3574f0;exitX=0.904;exitY=1.001;exitDx=0;exitDy=0;entryX=0.741;entryY=1.002;entryDx=0;entryDy=0;">
      <mxGeometry width="50" height="50" relative="1" as="geometry">
        <Array as="points">
          <mxPoint x="1010" y="1926" />
          <mxPoint x="2058" y="1926" />
          <mxPoint x="2171" y="1814" />
        </Array>
      </mxGeometry>
    </mxCell>
    <mxCell id="edge165" edge="1" value="" parent="1" source="node40" target="node6" style="html=1;rounded=1;;dashed=0;startArrow=none;endArrow=block;endSize=12;strokeColor=#3574f0;exitX=0.000;exitY=0.217;exitDx=0;exitDy=0;entryX=0.613;entryY=0.001;entryDx=0;entryDy=0;">
      <mxGeometry width="50" height="50" relative="1" as="geometry">
        <Array as="points">
          <mxPoint x="462" y="1346" />
          <mxPoint x="462" y="-73" />
          <mxPoint x="1187" y="-73" />
          <mxPoint x="1240" y="-20" />
        </Array>
      </mxGeometry>
    </mxCell>
    <mxCell id="edge160" edge="1" value="" parent="1" source="node40" target="node4" style="html=1;rounded=1;;dashed=1;startArrow=none;endArrow=block;endSize=12;endFill=0;strokeColor=#24a394;exitX=0.956;exitY=1.001;exitDx=0;exitDy=0;entryX=0.561;entryY=1.001;entryDx=0;entryDy=0;">
      <mxGeometry width="50" height="50" relative="1" as="geometry">
        <Array as="points">
          <mxPoint x="1016" y="1421" />
          <mxPoint x="1292" y="1421" />
          <mxPoint x="1316" y="1397" />
        </Array>
      </mxGeometry>
    </mxCell>
    <mxCell id="edge161" edge="1" value="" parent="1" source="node40" target="node4" style="html=1;rounded=1;;dashed=0;startArrow=none;endArrow=block;endSize=12;strokeColor=#3574f0;exitX=1.000;exitY=0.217;exitDx=0;exitDy=0;entryX=0.001;entryY=0.783;entryDx=0;entryDy=0;">
      <mxGeometry width="50" height="50" relative="1" as="geometry">
        <Array as="points">
          <mxPoint x="1228" y="1346" />
          <mxPoint x="1238" y="1336" />
        </Array>
      </mxGeometry>
    </mxCell>
    <mxCell id="edge170" edge="1" value="" parent="1" source="node1" target="node5" style="html=1;rounded=1;;dashed=0;startArrow=none;endArrow=block;endSize=12;strokeColor=#3574f0;exitX=0.378;exitY=1.002;exitDx=0;exitDy=0;entryX=0.828;entryY=1.002;entryDx=0;entryDy=0;">
      <mxGeometry width="50" height="50" relative="1" as="geometry">
        <Array as="points">
          <mxPoint x="929" y="2083" />
          <mxPoint x="1945" y="2083" />
          <mxPoint x="2176" y="1853" />
        </Array>
      </mxGeometry>
    </mxCell>
    <mxCell id="edge164" edge="1" value="" parent="1" source="node1" target="node6" style="html=1;rounded=1;;dashed=0;startArrow=none;endArrow=block;endSize=12;strokeColor=#3574f0;exitX=0.866;exitY=1.001;exitDx=0;exitDy=0;entryX=1.000;entryY=0.783;entryDx=0;entryDy=0;">
      <mxGeometry width="50" height="50" relative="1" as="geometry">
        <Array as="points">
          <mxPoint x="969" y="1476" />
          <mxPoint x="1446" y="1476" />
          <mxPoint x="1591" y="1331" />
          <mxPoint x="1591" y="222" />
          <mxPoint x="1495" y="126" />
        </Array>
      </mxGeometry>
    </mxCell>
    <mxCell id="edge171" edge="1" value="" parent="1" source="node1" target="node22" style="html=1;rounded=1;;dashed=0;startArrow=none;endArrow=block;endSize=12;strokeColor=#3574f0;exitX=0.000;exitY=0.217;exitDx=0;exitDy=0;entryX=0.732;entryY=1.001;entryDx=0;entryDy=0;">
      <mxGeometry width="50" height="50" relative="1" as="geometry">
        <Array as="points">
          <mxPoint x="626" y="1396" />
        </Array>
      </mxGeometry>
    </mxCell>
    <mxCell id="edge156" edge="1" value="" parent="1" source="node1" target="node4" style="html=1;rounded=1;;dashed=1;startArrow=none;endArrow=block;endSize=12;endFill=0;strokeColor=#24a394;exitX=0.622;exitY=1.002;exitDx=0;exitDy=0;entryX=0.742;entryY=1.001;entryDx=0;entryDy=0;">
      <mxGeometry width="50" height="50" relative="1" as="geometry">
        <Array as="points">
          <mxPoint x="949" y="1498" />
          <mxPoint x="1281" y="1498" />
          <mxPoint x="1328" y="1451" />
        </Array>
      </mxGeometry>
    </mxCell>
    <mxCell id="edge157" edge="1" value="" parent="1" source="node1" target="node4" style="html=1;rounded=1;;dashed=0;startArrow=none;endArrow=block;endSize=12;strokeColor=#3574f0;exitX=1.000;exitY=0.217;exitDx=0;exitDy=0;entryX=0.652;entryY=1.002;entryDx=0;entryDy=0;">
      <mxGeometry width="50" height="50" relative="1" as="geometry">
        <Array as="points">
          <mxPoint x="1306" y="1396" />
          <mxPoint x="1322" y="1380" />
        </Array>
      </mxGeometry>
    </mxCell>
    <mxCell id="edge152" edge="1" value="" parent="1" source="node17" target="node5" style="html=1;rounded=1;;dashed=0;startArrow=none;endArrow=block;endSize=12;strokeColor=#3574f0;exitX=0.516;exitY=1.001;exitDx=0;exitDy=0;entryX=0.569;entryY=1.001;entryDx=0;entryDy=0;">
      <mxGeometry width="50" height="50" relative="1" as="geometry">
        <Array as="points">
          <mxPoint x="1374" y="1781" />
          <mxPoint x="2059" y="1781" />
          <mxPoint x="2161" y="1680" />
        </Array>
      </mxGeometry>
    </mxCell>
    <mxCell id="edge146" edge="1" value="" parent="1" source="node17" target="node6" style="html=1;rounded=1;;dashed=0;startArrow=none;endArrow=block;endSize=12;strokeColor=#3574f0;exitX=0.726;exitY=1.002;exitDx=0;exitDy=0;entryX=1.001;entryY=0.543;entryDx=0;entryDy=0;">
      <mxGeometry width="50" height="50" relative="1" as="geometry">
        <Array as="points">
          <mxPoint x="1394" y="1788" />
          <mxPoint x="2060" y="1788" />
          <mxPoint x="2345" y="1504" />
          <mxPoint x="2345" y="391" />
          <mxPoint x="2074" y="120" />
        </Array>
      </mxGeometry>
    </mxCell>
    <mxCell id="edge136" edge="1" value="" parent="1" source="node17" target="node4" style="html=1;rounded=1;;dashed=0;startArrow=none;endArrow=block;endSize=12;strokeColor=#3574f0;exitX=0.818;exitY=0.001;exitDx=0;exitDy=0;entryX=0.455;entryY=0.002;entryDx=0;entryDy=0;">
      <mxGeometry width="50" height="50" relative="1" as="geometry">
        <Array as="points">
          <mxPoint x="1403" y="1195" />
          <mxPoint x="1375" y="1167" />
          <mxPoint x="1309" y="1167" />
        </Array>
      </mxGeometry>
    </mxCell>
    <mxCell id="edge140" edge="1" value="" parent="1" source="node17" target="node4" style="html=1;rounded=1;;dashed=1;startArrow=none;endArrow=block;endSize=12;endFill=0;strokeColor=#24a394;exitX=0.713;exitY=0.002;exitDx=0;exitDy=0;entryX=1.001;entryY=0.668;entryDx=0;entryDy=0;">
      <mxGeometry width="50" height="50" relative="1" as="geometry">
        <Array as="points">
          <mxPoint x="1393" y="1347" />
          <mxPoint x="1379" y="1333" />
        </Array>
      </mxGeometry>
    </mxCell>
    <mxCell id="edge122" edge="1" value="" parent="1" source="node19" target="node5" style="html=1;rounded=1;;dashed=0;startArrow=none;endArrow=block;endSize=12;strokeColor=#3574f0;exitX=0.651;exitY=0.002;exitDx=0;exitDy=0;entryX=0.431;entryY=0.002;entryDx=0;entryDy=0;">
      <mxGeometry width="50" height="50" relative="1" as="geometry">
        <Array as="points">
          <mxPoint x="1449" y="615" />
          <mxPoint x="2058" y="615" />
          <mxPoint x="2153" y="710" />
        </Array>
      </mxGeometry>
    </mxCell>
    <mxCell id="edge111" edge="1" value="" parent="1" source="node19" target="node6" style="html=1;rounded=1;;dashed=0;startArrow=none;endArrow=block;endSize=12;strokeColor=#3574f0;exitX=0.443;exitY=0.001;exitDx=0;exitDy=0;entryX=1.000;entryY=0.783;entryDx=0;entryDy=0;">
      <mxGeometry width="50" height="50" relative="1" as="geometry">
        <Array as="points">
          <mxPoint x="1429" y="173" />
          <mxPoint x="1382" y="126" />
        </Array>
      </mxGeometry>
    </mxCell>
    <mxCell id="edge93" edge="1" value="" parent="1" source="node19" target="node4" style="html=1;rounded=1;;dashed=0;startArrow=none;endArrow=block;endSize=12;strokeColor=#3574f0;exitX=0.688;exitY=1.001;exitDx=0;exitDy=0;entryX=0.530;entryY=0.001;entryDx=0;entryDy=0;">
      <mxGeometry width="50" height="50" relative="1" as="geometry">
        <Array as="points">
          <mxPoint x="1453" y="862" />
          <mxPoint x="1421" y="894" />
          <mxPoint x="1314" y="894" />
        </Array>
      </mxGeometry>
    </mxCell>
    <mxCell id="edge97" edge="1" value="" parent="1" source="node19" target="node4" style="html=1;rounded=1;;dashed=1;startArrow=none;endArrow=block;endSize=12;endFill=0;strokeColor=#24a394;exitX=0.583;exitY=1.002;exitDx=0;exitDy=0;entryX=0.515;entryY=0.002;entryDx=0;entryDy=0;">
      <mxGeometry width="50" height="50" relative="1" as="geometry">
        <Array as="points">
          <mxPoint x="1443" y="891" />
          <mxPoint x="1404" y="930" />
          <mxPoint x="1313" y="930" />
        </Array>
      </mxGeometry>
    </mxCell>
    <mxCell id="edge101" edge="1" value="" parent="1" source="node26" target="node37" style="html=1;rounded=1;;dashed=0;startArrow=none;endArrow=block;endSize=12;strokeColor=#3574f0;exitX=0.761;exitY=1.001;exitDx=0;exitDy=0;entryX=1.001;entryY=0.500;entryDx=0;entryDy=0;">
      <mxGeometry width="50" height="50" relative="1" as="geometry">
        <Array as="points">
          <mxPoint x="1328" y="756" />
          <mxPoint x="1506" y="756" />
          <mxPoint x="1581" y="681" />
          <mxPoint x="1581" y="526" />
          <mxPoint x="1509" y="454" />
        </Array>
      </mxGeometry>
    </mxCell>
    <mxCell id="edge120" edge="1" value="" parent="1" source="node26" target="node5" style="html=1;rounded=1;;dashed=0;startArrow=none;endArrow=block;endSize=12;strokeColor=#3574f0;exitX=0.717;exitY=1.001;exitDx=0;exitDy=0;entryX=0.362;entryY=0.001;entryDx=0;entryDy=0;">
      <mxGeometry width="50" height="50" relative="1" as="geometry">
        <Array as="points">
          <mxPoint x="1325" y="796" />
          <mxPoint x="2059" y="796" />
          <mxPoint x="2149" y="886" />
        </Array>
      </mxGeometry>
    </mxCell>
    <mxCell id="edge109" edge="1" value="" parent="1" source="node26" target="node6" style="html=1;rounded=1;;dashed=0;startArrow=none;endArrow=block;endSize=12;strokeColor=#3574f0;exitX=0.645;exitY=0.002;exitDx=0;exitDy=0;entryX=0.183;entryY=1.001;entryDx=0;entryDy=0;">
      <mxGeometry width="50" height="50" relative="1" as="geometry">
        <Array as="points">
          <mxPoint x="1320" y="682" />
          <mxPoint x="1311" y="673" />
          <mxPoint x="1208" y="673" />
        </Array>
      </mxGeometry>
    </mxCell>
    <mxCell id="edge105" edge="1" value="" parent="1" source="node26" target="node10" style="html=1;rounded=1;;dashed=0;startArrow=none;endArrow=block;endSize=12;strokeColor=#3574f0;exitX=0.659;exitY=1.001;exitDx=0;exitDy=0;entryX=1.000;entryY=0.217;entryDx=0;entryDy=0;">
      <mxGeometry width="50" height="50" relative="1" as="geometry">
        <Array as="points">
          <mxPoint x="1321" y="864" />
          <mxPoint x="1262" y="923" />
        </Array>
      </mxGeometry>
    </mxCell>
    <mxCell id="edge106" edge="1" value="" parent="1" source="node26" target="node22" style="html=1;rounded=1;;dashed=0;startArrow=none;endArrow=block;endSize=12;strokeColor=#3574f0;exitX=0.674;exitY=1.002;exitDx=0;exitDy=0;entryX=1.000;entryY=0.217;entryDx=0;entryDy=0;">
      <mxGeometry width="50" height="50" relative="1" as="geometry">
        <Array as="points">
          <mxPoint x="1322" y="1011" />
          <mxPoint x="1200" y="1133" />
        </Array>
      </mxGeometry>
    </mxCell>
    <mxCell id="edge37" edge="1" value="" parent="1" source="node26" target="node18" style="html=1;rounded=1;;dashed=0;startArrow=none;endArrow=block;endSize=12;strokeColor=#3574f0;exitX=0.355;exitY=0.001;exitDx=0;exitDy=0;entryX=0.415;entryY=1.001;entryDx=0;entryDy=0;">
      <mxGeometry width="50" height="50" relative="1" as="geometry">
        <Array as="points" />
      </mxGeometry>
    </mxCell>
    <mxCell id="edge85" edge="1" value="" parent="1" source="node26" target="node39" style="html=1;rounded=1;;dashed=0;startArrow=none;endArrow=block;endSize=12;strokeColor=#3574f0;exitX=0.732;exitY=1.001;exitDx=0;exitDy=0;entryX=0.296;entryY=1.001;entryDx=0;entryDy=0;">
      <mxGeometry width="50" height="50" relative="1" as="geometry">
        <Array as="points">
          <mxPoint x="1326" y="783" />
          <mxPoint x="1633" y="783" />
          <mxPoint x="1645" y="771" />
        </Array>
      </mxGeometry>
    </mxCell>
    <mxCell id="edge90" edge="1" value="" parent="1" source="node26" target="node4" style="html=1;rounded=1;;dashed=0;startArrow=none;endArrow=block;endSize=12;strokeColor=#3574f0;exitX=0.645;exitY=1.002;exitDx=0;exitDy=0;entryX=0.621;entryY=0.002;entryDx=0;entryDy=0;">
      <mxGeometry width="50" height="50" relative="1" as="geometry">
        <Array as="points" />
      </mxGeometry>
    </mxCell>
    <mxCell id="edge96" edge="1" value="" parent="1" source="node26" target="node4" style="html=1;rounded=1;;dashed=1;startArrow=none;endArrow=block;endSize=12;endFill=0;strokeColor=#24a394;exitX=0.630;exitY=1.002;exitDx=0;exitDy=0;entryX=0.606;entryY=0.002;entryDx=0;entryDy=0;">
      <mxGeometry width="50" height="50" relative="1" as="geometry">
        <Array as="points" />
      </mxGeometry>
    </mxCell>
    <mxCell id="edge53" edge="1" value="" parent="1" source="node26" target="node19" style="html=1;rounded=1;;dashed=0;startArrow=none;endArrow=block;endSize=12;strokeColor=#3574f0;exitX=1.001;exitY=0.500;exitDx=0;exitDy=0;entryX=0.000;entryY=0.500;entryDx=0;entryDy=0;">
      <mxGeometry width="50" height="50" relative="1" as="geometry">
        <Array as="points" />
      </mxGeometry>
    </mxCell>
    <mxCell id="edge114" edge="1" value="" parent="1" source="node26" target="node2" style="html=1;rounded=1;;dashed=0;startArrow=none;endArrow=block;endSize=12;strokeColor=#3574f0;exitX=0.703;exitY=1.001;exitDx=0;exitDy=0;entryX=0.696;entryY=0.001;entryDx=0;entryDy=0;">
      <mxGeometry width="50" height="50" relative="1" as="geometry">
        <Array as="points">
          <mxPoint x="1324" y="788" />
          <mxPoint x="2090" y="788" />
          <mxPoint x="2418" y="1116" />
        </Array>
      </mxGeometry>
    </mxCell>
    <mxCell id="edge115" edge="1" value="" parent="1" source="node26" target="node2" style="html=1;rounded=1;;dashed=1;dashPattern=1 1;startArrow=none;endArrow=block;endSize=12;strokeColor=#5fad65;exitX=0.746;exitY=1.001;exitDx=0;exitDy=0;entryX=0.000;entryY=0.435;entryDx=0;entryDy=0;">
      <mxGeometry width="50" height="50" relative="1" as="geometry">
        <Array as="points">
          <mxPoint x="1327" y="793" />
          <mxPoint x="1443" y="793" />
          <mxPoint x="1493" y="843" />
          <mxPoint x="1493" y="1993" />
        </Array>
      </mxGeometry>
    </mxCell>
    <mxCell id="edge116" edge="1" value="" parent="1" source="node26" target="node2" style="html=1;rounded=1;;dashed=0;startArrow=none;endArrow=diamondThinendSize=12;strokeColor=#f2c55c;exitX=0.688;exitY=1.001;exitDx=0;exitDy=0;entryX=0.625;entryY=0.001;entryDx=0;entryDy=0;">
      <mxGeometry width="50" height="50" relative="1" as="geometry">
        <Array as="points">
          <mxPoint x="1323" y="791" />
          <mxPoint x="2087" y="791" />
          <mxPoint x="2414" y="1118" />
        </Array>
      </mxGeometry>
    </mxCell>
    <mxCell id="edge119" edge="1" value="" parent="1" source="node35" target="node5" style="html=1;rounded=1;;dashed=0;startArrow=none;endArrow=block;endSize=12;strokeColor=#3574f0;exitX=0.737;exitY=0.002;exitDx=0;exitDy=0;entryX=0.500;entryY=0.002;entryDx=0;entryDy=0;">
      <mxGeometry width="50" height="50" relative="1" as="geometry">
        <Array as="points">
          <mxPoint x="1203" y="660" />
          <mxPoint x="2059" y="660" />
          <mxPoint x="2157" y="758" />
        </Array>
      </mxGeometry>
    </mxCell>
    <mxCell id="edge108" edge="1" value="" parent="1" source="node35" target="node6" style="html=1;rounded=1;;dashed=0;startArrow=none;endArrow=block;endSize=12;strokeColor=#3574f0;exitX=0.145;exitY=0.002;exitDx=0;exitDy=0;entryX=0.000;entryY=0.500;entryDx=0;entryDy=0;">
      <mxGeometry width="50" height="50" relative="1" as="geometry">
        <Array as="points">
          <mxPoint x="1158" y="119" />
        </Array>
      </mxGeometry>
    </mxCell>
    <mxCell id="edge104" edge="1" value="" parent="1" source="node35" target="node10" style="html=1;rounded=1;;dashed=0;startArrow=none;endArrow=block;endSize=12;strokeColor=#3574f0;exitX=0.000;exitY=0.217;exitDx=0;exitDy=0;entryX=0.950;entryY=0.001;entryDx=0;entryDy=0;">
      <mxGeometry width="50" height="50" relative="1" as="geometry">
        <Array as="points">
          <mxPoint x="907" y="708" />
        </Array>
      </mxGeometry>
    </mxCell>
    <mxCell id="edge57" edge="1" value="" parent="1" source="node35" target="node25" style="html=1;rounded=1;;dashed=0;startArrow=none;endArrow=block;endSize=12;strokeColor=#3574f0;exitX=0.276;exitY=1.001;exitDx=0;exitDy=0;entryX=0.319;entryY=0.001;entryDx=0;entryDy=0;">
      <mxGeometry width="50" height="50" relative="1" as="geometry">
        <Array as="points" />
      </mxGeometry>
    </mxCell>
    <mxCell id="edge107" edge="1" value="" parent="1" source="node35" target="node22" style="html=1;rounded=1;;dashed=0;startArrow=none;endArrow=block;endSize=12;strokeColor=#3574f0;exitX=0.408;exitY=0.002;exitDx=0;exitDy=0;entryX=0.001;entryY=0.500;entryDx=0;entryDy=0;">
      <mxGeometry width="50" height="50" relative="1" as="geometry">
        <Array as="points">
          <mxPoint x="1178" y="629" />
          <mxPoint x="1147" y="598" />
          <mxPoint x="502" y="598" />
          <mxPoint x="502" y="1140" />
        </Array>
      </mxGeometry>
    </mxCell>
    <mxCell id="edge91" edge="1" value="" parent="1" source="node35" target="node4" style="html=1;rounded=1;;dashed=0;startArrow=none;endArrow=block;endSize=12;strokeColor=#3574f0;exitX=0.605;exitY=1.002;exitDx=0;exitDy=0;entryX=0.758;entryY=0.001;entryDx=0;entryDy=0;">
      <mxGeometry width="50" height="50" relative="1" as="geometry">
        <Array as="points">
          <mxPoint x="1193" y="764" />
          <mxPoint x="1288" y="764" />
          <mxPoint x="1329" y="805" />
        </Array>
      </mxGeometry>
    </mxCell>
    <mxCell id="edge94" edge="1" value="" parent="1" source="node35" target="node4" style="html=1;rounded=1;;dashed=1;startArrow=none;endArrow=block;endSize=12;endFill=0;strokeColor=#24a394;exitX=0.671;exitY=1.001;exitDx=0;exitDy=0;entryX=0.773;entryY=0.001;entryDx=0;entryDy=0;">
      <mxGeometry width="50" height="50" relative="1" as="geometry">
        <Array as="points">
          <mxPoint x="1198" y="778" />
          <mxPoint x="1290" y="778" />
          <mxPoint x="1330" y="818" />
        </Array>
      </mxGeometry>
    </mxCell>
    <mxCell id="edge33" edge="1" value="" parent="1" source="node35" target="node26" style="html=1;rounded=1;;dashed=0;startArrow=none;endArrow=block;endSize=12;strokeColor=#3574f0;exitX=1.000;exitY=0.217;exitDx=0;exitDy=0;entryX=0.000;entryY=0.217;entryDx=0;entryDy=0;">
      <mxGeometry width="50" height="50" relative="1" as="geometry">
        <Array as="points" />
      </mxGeometry>
    </mxCell>
    <mxCell id="edge117" edge="1" value="" parent="1" source="node35" target="node2" style="html=1;rounded=1;;dashed=0;startArrow=none;endArrow=block;endSize=12;strokeColor=#3574f0;exitX=0.539;exitY=0.002;exitDx=0;exitDy=0;entryX=0.339;entryY=1.001;entryDx=0;entryDy=0;">
      <mxGeometry width="50" height="50" relative="1" as="geometry">
        <Array as="points">
          <mxPoint x="1188" y="654" />
          <mxPoint x="1167" y="633" />
          <mxPoint x="442" y="633" />
          <mxPoint x="442" y="2103" />
          <mxPoint x="2369" y="2103" />
          <mxPoint x="2398" y="2075" />
        </Array>
      </mxGeometry>
    </mxCell>
    <mxCell id="edge47" edge="1" value="" parent="1" source="node35" target="node28" style="html=1;rounded=1;;dashed=0;startArrow=none;endArrow=block;endSize=12;strokeColor=#3574f0;exitX=0.474;exitY=0.002;exitDx=0;exitDy=0;entryX=0.869;entryY=1.002;entryDx=0;entryDy=0;">
      <mxGeometry width="50" height="50" relative="1" as="geometry">
        <Array as="points">
          <mxPoint x="1183" y="631" />
          <mxPoint x="1152" y="600" />
          <mxPoint x="355" y="600" />
        </Array>
      </mxGeometry>
    </mxCell>
    <mxCell id="edge10" edge="1" value="" parent="1" source="node2" target="node9" style="html=1;rounded=1;;dashed=0;startArrow=none;endArrow=block;endSize=12;strokeColor=#3574f0;exitX=1.001;exitY=0.783;exitDx=0;exitDy=0;entryX=0.904;entryY=0.002;entryDx=0;entryDy=0;">
      <mxGeometry width="50" height="50" relative="1" as="geometry">
        <Array as="points">
          <mxPoint x="2524" y="2001" />
          <mxPoint x="2562" y="2039" />
        </Array>
      </mxGeometry>
    </mxCell>
    <mxCell id="edge3" edge="1" value="" parent="1" source="node2" target="node5" style="html=1;rounded=1;;dashed=0;startArrow=none;endArrow=block;endSize=12;strokeColor=#955ae0;exitX=0.554;exitY=0.001;exitDx=0;exitDy=0;entryX=0.914;entryY=0.002;entryDx=0;entryDy=0;">
      <mxGeometry width="50" height="50" relative="1" as="geometry">
        <Array as="points">
          <mxPoint x="2410" y="862" />
          <mxPoint x="2341" y="793" />
          <mxPoint x="2181" y="793" />
        </Array>
      </mxGeometry>
    </mxCell>
    <mxCell id="edge5" edge="1" value="" parent="1" source="node2" target="node5" style="html=1;rounded=1;;dashed=0;startArrow=none;endArrow=block;endSize=12;strokeColor=#3574f0;exitX=0.482;exitY=0.002;exitDx=0;exitDy=0;entryX=1.001;entryY=0.500;entryDx=0;entryDy=0;">
      <mxGeometry width="50" height="50" relative="1" as="geometry">
        <Array as="points">
          <mxPoint x="2406" y="1185" />
          <mxPoint x="2340" y="1119" />
        </Array>
      </mxGeometry>
    </mxCell>
    <mxCell id="edge2" edge="1" value="" parent="1" source="node2" target="node6" style="html=1;rounded=1;;dashed=0;startArrow=none;endArrow=block;endSize=12;strokeColor=#3574f0;exitX=0.768;exitY=0.002;exitDx=0;exitDy=0;entryX=1.001;entryY=0.326;entryDx=0;entryDy=0;">
      <mxGeometry width="50" height="50" relative="1" as="geometry">
        <Array as="points">
          <mxPoint x="2422" y="461" />
          <mxPoint x="2076" y="115" />
        </Array>
      </mxGeometry>
    </mxCell>
    <mxCell id="edge7" edge="1" value="" parent="1" source="node2" target="node7" style="html=1;rounded=1;;dashed=0;startArrow=none;endArrow=block;endSize=12;strokeColor=#3574f0;exitX=0.911;exitY=0.001;exitDx=0;exitDy=0;entryX=0.761;entryY=1.002;entryDx=0;entryDy=0;">
      <mxGeometry width="50" height="50" relative="1" as="geometry">
        <Array as="points">
          <mxPoint x="2430" y="1572" />
          <mxPoint x="2605" y="1572" />
          <mxPoint x="2680" y="1498" />
        </Array>
      </mxGeometry>
    </mxCell>
    <mxCell id="edge9" edge="1" value="" parent="1" source="node2" target="node7" style="html=1;rounded=1;;dashed=1;startArrow=none;endArrow=block;endSize=12;endFill=0;strokeColor=#24a394;exitX=1.001;exitY=0.261;exitDx=0;exitDy=0;entryX=0.943;entryY=1.001;entryDx=0;entryDy=0;">
      <mxGeometry width="50" height="50" relative="1" as="geometry">
        <Array as="points">
          <mxPoint x="2617" y="1989" />
          <mxPoint x="2696" y="1911" />
        </Array>
      </mxGeometry>
    </mxCell>
    <mxCell id="edge67" edge="1" value="" parent="1" source="node28" target="node5" style="html=1;rounded=1;;dashed=0;startArrow=none;endArrow=block;endSize=12;strokeColor=#3574f0;exitX=0.552;exitY=1.001;exitDx=0;exitDy=0;entryX=0.914;entryY=1.002;entryDx=0;entryDy=0;">
      <mxGeometry width="50" height="50" relative="1" as="geometry">
        <Array as="points">
          <mxPoint x="335" y="2087" />
          <mxPoint x="1941" y="2087" />
          <mxPoint x="2181" y="1848" />
        </Array>
      </mxGeometry>
    </mxCell>
    <mxCell id="edge62" edge="1" value="" parent="1" source="node28" target="node6" style="html=1;rounded=1;;dashed=0;startArrow=none;endArrow=block;endSize=12;strokeColor=#3574f0;exitX=0.500;exitY=0.002;exitDx=0;exitDy=0;entryX=0.373;entryY=0.001;entryDx=0;entryDy=0;">
      <mxGeometry width="50" height="50" relative="1" as="geometry">
        <Array as="points">
          <mxPoint x="332" y="19" />
          <mxPoint x="1196" y="19" />
          <mxPoint x="1222" y="45" />
        </Array>
      </mxGeometry>
    </mxCell>
    <mxCell id="edge29" edge="1" value="" parent="1" source="node28" target="node7" style="html=1;rounded=1;;dashed=0;startArrow=none;endArrow=block;endSize=12;strokeColor=#3574f0;exitX=0.183;exitY=0.002;exitDx=0;exitDy=0;entryX=0.000;entryY=0.326;entryDx=0;entryDy=0;">
      <mxGeometry width="50" height="50" relative="1" as="geometry">
        <Array as="points">
          <mxPoint x="312" y="40" />
        </Array>
      </mxGeometry>
    </mxCell>
    <mxCell id="edge73" edge="1" value="" parent="1" source="node28" target="node7" style="html=1;rounded=1;;dashed=1;startArrow=none;endArrow=block;endSize=12;endFill=0;strokeColor=#24a394;exitX=1.001;exitY=0.217;exitDx=0;exitDy=0;entryX=0.489;entryY=1.002;entryDx=0;entryDy=0;">
      <mxGeometry width="50" height="50" relative="1" as="geometry">
        <Array as="points">
          <mxPoint x="2616" y="188" />
          <mxPoint x="2656" y="149" />
        </Array>
      </mxGeometry>
    </mxCell>
    <mxCell id="edge63" edge="1" value="" parent="1" source="node28" target="node8" style="html=1;rounded=1;;dashed=0;startArrow=none;endArrow=block;endSize=12;strokeColor=#3574f0;exitX=0.001;exitY=0.500;exitDx=0;exitDy=0;entryX=1.001;entryY=0.500;entryDx=0;entryDy=0;">
      <mxGeometry width="50" height="50" relative="1" as="geometry">
        <Array as="points" />
      </mxGeometry>
    </mxCell>
    <mxCell id="edge55" edge="1" value="" parent="1" source="node28" target="node2" style="html=1;rounded=1;;dashed=0;startArrow=none;endArrow=block;endSize=12;strokeColor=#3574f0;exitX=0.817;exitY=0.002;exitDx=0;exitDy=0;entryX=0.839;entryY=0.001;entryDx=0;entryDy=0;">
      <mxGeometry width="50" height="50" relative="1" as="geometry">
        <Array as="points">
          <mxPoint x="352" y="0" />
          <mxPoint x="2130" y="0" />
          <mxPoint x="2426" y="296" />
        </Array>
      </mxGeometry>
    </mxCell>
    <mxCell id="edge64" edge="1" value="" parent="1" source="node28" target="node2" style="html=1;rounded=1;;dashed=0;startArrow=none;endArrow=block;endSize=12;strokeColor=#955ae0;exitX=0.234;exitY=1.001;exitDx=0;exitDy=0;entryX=0.196;entryY=1.001;entryDx=0;entryDy=0;">
      <mxGeometry width="50" height="50" relative="1" as="geometry">
        <Array as="points">
          <mxPoint x="315" y="2291" />
          <mxPoint x="2364" y="2291" />
          <mxPoint x="2390" y="2266" />
        </Array>
      </mxGeometry>
    </mxCell>
  </root>
</mxGraphModel>